G04 #@! TF.GenerationSoftware,KiCad,Pcbnew,(5.0.1)-3*
G04 #@! TF.CreationDate,2019-04-26T03:26:33+02:00*
G04 #@! TF.ProjectId,piezo_amplifier,7069657A6F5F616D706C69666965722E,rev?*
G04 #@! TF.SameCoordinates,Original*
G04 #@! TF.FileFunction,Soldermask,Bot*
G04 #@! TF.FilePolarity,Negative*
%FSLAX46Y46*%
G04 Gerber Fmt 4.6, Leading zero omitted, Abs format (unit mm)*
G04 Created by KiCad (PCBNEW (5.0.1)-3) date 19/04/26 3:26:33 AM*
%MOMM*%
%LPD*%
G01*
G04 APERTURE LIST*
%ADD10C,0.100000*%
G04 APERTURE END LIST*
D10*
G36*
X141388513Y-87762589D02*
X141948282Y-87873934D01*
X142539926Y-88119001D01*
X143068802Y-88472385D01*
X143072395Y-88474786D01*
X143525214Y-88927605D01*
X143525216Y-88927608D01*
X143880999Y-89460074D01*
X143880999Y-89460075D01*
X144126066Y-90051719D01*
X144251000Y-90679803D01*
X144251000Y-91320197D01*
X144214640Y-91502989D01*
X144126066Y-91948282D01*
X143880999Y-92539926D01*
X143527615Y-93068802D01*
X143525214Y-93072395D01*
X143072395Y-93525214D01*
X143072392Y-93525216D01*
X142539926Y-93880999D01*
X141948282Y-94126066D01*
X141634239Y-94188533D01*
X141320197Y-94251000D01*
X140679803Y-94251000D01*
X140365761Y-94188533D01*
X140051718Y-94126066D01*
X139460074Y-93880999D01*
X138927608Y-93525216D01*
X138927605Y-93525214D01*
X138474786Y-93072395D01*
X138472385Y-93068802D01*
X138119001Y-92539926D01*
X137873934Y-91948282D01*
X137785360Y-91502989D01*
X137749000Y-91320197D01*
X137749000Y-90679803D01*
X137873934Y-90051719D01*
X138119001Y-89460075D01*
X138119001Y-89460074D01*
X138474784Y-88927608D01*
X138474786Y-88927605D01*
X138927605Y-88474786D01*
X138931198Y-88472385D01*
X139460074Y-88119001D01*
X140051718Y-87873934D01*
X140611487Y-87762589D01*
X140679803Y-87749000D01*
X141320197Y-87749000D01*
X141388513Y-87762589D01*
X141388513Y-87762589D01*
G37*
G36*
X114760443Y-90105519D02*
X114826627Y-90112037D01*
X114939853Y-90146384D01*
X114996467Y-90163557D01*
X115135087Y-90237652D01*
X115152991Y-90247222D01*
X115188729Y-90276552D01*
X115290186Y-90359814D01*
X115373448Y-90461271D01*
X115402778Y-90497009D01*
X115402779Y-90497011D01*
X115486443Y-90653533D01*
X115486443Y-90653534D01*
X115537963Y-90823373D01*
X115555359Y-91000000D01*
X115537963Y-91176627D01*
X115503616Y-91289853D01*
X115486443Y-91346467D01*
X115412348Y-91485087D01*
X115402778Y-91502991D01*
X115373448Y-91538729D01*
X115290186Y-91640186D01*
X115188729Y-91723448D01*
X115152991Y-91752778D01*
X115152989Y-91752779D01*
X114996467Y-91836443D01*
X114939853Y-91853616D01*
X114826627Y-91887963D01*
X114760442Y-91894482D01*
X114694260Y-91901000D01*
X114305740Y-91901000D01*
X114239558Y-91894482D01*
X114173373Y-91887963D01*
X114060147Y-91853616D01*
X114003533Y-91836443D01*
X113847011Y-91752779D01*
X113847009Y-91752778D01*
X113811271Y-91723448D01*
X113709814Y-91640186D01*
X113626552Y-91538729D01*
X113597222Y-91502991D01*
X113587652Y-91485087D01*
X113513557Y-91346467D01*
X113496384Y-91289853D01*
X113462037Y-91176627D01*
X113444641Y-91000000D01*
X113462037Y-90823373D01*
X113513557Y-90653534D01*
X113513557Y-90653533D01*
X113597221Y-90497011D01*
X113597222Y-90497009D01*
X113626552Y-90461271D01*
X113709814Y-90359814D01*
X113811271Y-90276552D01*
X113847009Y-90247222D01*
X113864913Y-90237652D01*
X114003533Y-90163557D01*
X114060147Y-90146384D01*
X114173373Y-90112037D01*
X114239557Y-90105519D01*
X114305740Y-90099000D01*
X114694260Y-90099000D01*
X114760443Y-90105519D01*
X114760443Y-90105519D01*
G37*
G36*
X115408600Y-87602989D02*
X115441649Y-87613014D01*
X115472106Y-87629294D01*
X115498799Y-87651201D01*
X115520706Y-87677894D01*
X115536986Y-87708351D01*
X115547011Y-87741400D01*
X115551000Y-87781904D01*
X115551000Y-89218096D01*
X115547011Y-89258600D01*
X115536986Y-89291649D01*
X115520706Y-89322106D01*
X115498799Y-89348799D01*
X115472106Y-89370706D01*
X115441649Y-89386986D01*
X115408600Y-89397011D01*
X115368096Y-89401000D01*
X113631904Y-89401000D01*
X113591400Y-89397011D01*
X113558351Y-89386986D01*
X113527894Y-89370706D01*
X113501201Y-89348799D01*
X113479294Y-89322106D01*
X113463014Y-89291649D01*
X113452989Y-89258600D01*
X113449000Y-89218096D01*
X113449000Y-87781904D01*
X113452989Y-87741400D01*
X113463014Y-87708351D01*
X113479294Y-87677894D01*
X113501201Y-87651201D01*
X113527894Y-87629294D01*
X113558351Y-87613014D01*
X113591400Y-87602989D01*
X113631904Y-87599000D01*
X115368096Y-87599000D01*
X115408600Y-87602989D01*
X115408600Y-87602989D01*
G37*
G36*
X124676627Y-80462037D02*
X124789853Y-80496384D01*
X124846467Y-80513557D01*
X124985087Y-80587652D01*
X125002991Y-80597222D01*
X125038729Y-80626552D01*
X125140186Y-80709814D01*
X125223448Y-80811271D01*
X125252778Y-80847009D01*
X125336443Y-81003534D01*
X125387963Y-81173374D01*
X125401000Y-81305743D01*
X125401000Y-81694258D01*
X125387963Y-81826627D01*
X125353616Y-81939853D01*
X125336443Y-81996467D01*
X125262348Y-82135087D01*
X125252778Y-82152991D01*
X125223448Y-82188729D01*
X125140186Y-82290186D01*
X125002989Y-82402779D01*
X124846466Y-82486443D01*
X124805733Y-82498799D01*
X124676626Y-82537963D01*
X124500000Y-82555359D01*
X124323373Y-82537963D01*
X124194266Y-82498799D01*
X124153533Y-82486443D01*
X123997011Y-82402779D01*
X123997009Y-82402778D01*
X123954749Y-82368096D01*
X123859814Y-82290186D01*
X123747221Y-82152989D01*
X123663557Y-81996466D01*
X123646384Y-81939852D01*
X123612037Y-81826626D01*
X123599000Y-81694257D01*
X123599000Y-81305742D01*
X123612037Y-81173373D01*
X123663557Y-81003534D01*
X123663557Y-81003533D01*
X123747222Y-80847008D01*
X123859812Y-80709817D01*
X123954750Y-80631904D01*
X123997010Y-80597222D01*
X124014914Y-80587652D01*
X124153534Y-80513557D01*
X124210148Y-80496384D01*
X124323374Y-80462037D01*
X124500000Y-80444641D01*
X124676627Y-80462037D01*
X124676627Y-80462037D01*
G37*
G36*
X139476627Y-80462037D02*
X139589853Y-80496384D01*
X139646467Y-80513557D01*
X139785087Y-80587652D01*
X139802991Y-80597222D01*
X139838729Y-80626552D01*
X139940186Y-80709814D01*
X140023448Y-80811271D01*
X140052778Y-80847009D01*
X140136443Y-81003534D01*
X140187963Y-81173374D01*
X140201000Y-81305743D01*
X140201000Y-81694258D01*
X140187963Y-81826627D01*
X140153616Y-81939853D01*
X140136443Y-81996467D01*
X140062348Y-82135087D01*
X140052778Y-82152991D01*
X140023448Y-82188729D01*
X139940186Y-82290186D01*
X139802989Y-82402779D01*
X139646466Y-82486443D01*
X139605733Y-82498799D01*
X139476626Y-82537963D01*
X139300000Y-82555359D01*
X139123373Y-82537963D01*
X138994266Y-82498799D01*
X138953533Y-82486443D01*
X138797011Y-82402779D01*
X138797009Y-82402778D01*
X138754749Y-82368096D01*
X138659814Y-82290186D01*
X138547221Y-82152989D01*
X138463557Y-81996466D01*
X138446384Y-81939852D01*
X138412037Y-81826626D01*
X138399000Y-81694257D01*
X138399000Y-81305742D01*
X138412037Y-81173373D01*
X138463557Y-81003534D01*
X138463557Y-81003533D01*
X138547222Y-80847008D01*
X138659812Y-80709817D01*
X138754750Y-80631904D01*
X138797010Y-80597222D01*
X138814914Y-80587652D01*
X138953534Y-80513557D01*
X139010148Y-80496384D01*
X139123374Y-80462037D01*
X139300000Y-80444641D01*
X139476627Y-80462037D01*
X139476627Y-80462037D01*
G37*
G36*
X115676627Y-80462037D02*
X115789853Y-80496384D01*
X115846467Y-80513557D01*
X115985087Y-80587652D01*
X116002991Y-80597222D01*
X116038729Y-80626552D01*
X116140186Y-80709814D01*
X116223448Y-80811271D01*
X116252778Y-80847009D01*
X116336443Y-81003534D01*
X116387963Y-81173374D01*
X116401000Y-81305743D01*
X116401000Y-81694258D01*
X116387963Y-81826627D01*
X116353616Y-81939853D01*
X116336443Y-81996467D01*
X116262348Y-82135087D01*
X116252778Y-82152991D01*
X116223448Y-82188729D01*
X116140186Y-82290186D01*
X116002989Y-82402779D01*
X115846466Y-82486443D01*
X115805733Y-82498799D01*
X115676626Y-82537963D01*
X115500000Y-82555359D01*
X115323373Y-82537963D01*
X115194266Y-82498799D01*
X115153533Y-82486443D01*
X114997011Y-82402779D01*
X114997009Y-82402778D01*
X114954749Y-82368096D01*
X114859814Y-82290186D01*
X114747221Y-82152989D01*
X114663557Y-81996466D01*
X114646384Y-81939852D01*
X114612037Y-81826626D01*
X114599000Y-81694257D01*
X114599000Y-81305742D01*
X114612037Y-81173373D01*
X114663557Y-81003534D01*
X114663557Y-81003533D01*
X114747222Y-80847008D01*
X114859812Y-80709817D01*
X114954750Y-80631904D01*
X114997010Y-80597222D01*
X115014914Y-80587652D01*
X115153534Y-80513557D01*
X115210148Y-80496384D01*
X115323374Y-80462037D01*
X115500000Y-80444641D01*
X115676627Y-80462037D01*
X115676627Y-80462037D01*
G37*
G36*
X142558600Y-80452989D02*
X142591649Y-80463014D01*
X142622106Y-80479294D01*
X142648799Y-80501201D01*
X142670706Y-80527894D01*
X142686986Y-80558351D01*
X142697011Y-80591400D01*
X142701000Y-80631904D01*
X142701000Y-82368096D01*
X142697011Y-82408600D01*
X142686986Y-82441649D01*
X142670706Y-82472106D01*
X142648799Y-82498799D01*
X142622106Y-82520706D01*
X142591649Y-82536986D01*
X142558600Y-82547011D01*
X142518096Y-82551000D01*
X141081904Y-82551000D01*
X141041400Y-82547011D01*
X141008351Y-82536986D01*
X140977894Y-82520706D01*
X140951201Y-82498799D01*
X140929294Y-82472106D01*
X140913014Y-82441649D01*
X140902989Y-82408600D01*
X140899000Y-82368096D01*
X140899000Y-80631904D01*
X140902989Y-80591400D01*
X140913014Y-80558351D01*
X140929294Y-80527894D01*
X140951201Y-80501201D01*
X140977894Y-80479294D01*
X141008351Y-80463014D01*
X141041400Y-80452989D01*
X141081904Y-80449000D01*
X142518096Y-80449000D01*
X142558600Y-80452989D01*
X142558600Y-80452989D01*
G37*
G36*
X127758600Y-80452989D02*
X127791649Y-80463014D01*
X127822106Y-80479294D01*
X127848799Y-80501201D01*
X127870706Y-80527894D01*
X127886986Y-80558351D01*
X127897011Y-80591400D01*
X127901000Y-80631904D01*
X127901000Y-82368096D01*
X127897011Y-82408600D01*
X127886986Y-82441649D01*
X127870706Y-82472106D01*
X127848799Y-82498799D01*
X127822106Y-82520706D01*
X127791649Y-82536986D01*
X127758600Y-82547011D01*
X127718096Y-82551000D01*
X126281904Y-82551000D01*
X126241400Y-82547011D01*
X126208351Y-82536986D01*
X126177894Y-82520706D01*
X126151201Y-82498799D01*
X126129294Y-82472106D01*
X126113014Y-82441649D01*
X126102989Y-82408600D01*
X126099000Y-82368096D01*
X126099000Y-80631904D01*
X126102989Y-80591400D01*
X126113014Y-80558351D01*
X126129294Y-80527894D01*
X126151201Y-80501201D01*
X126177894Y-80479294D01*
X126208351Y-80463014D01*
X126241400Y-80452989D01*
X126281904Y-80449000D01*
X127718096Y-80449000D01*
X127758600Y-80452989D01*
X127758600Y-80452989D01*
G37*
G36*
X118758600Y-80452989D02*
X118791649Y-80463014D01*
X118822106Y-80479294D01*
X118848799Y-80501201D01*
X118870706Y-80527894D01*
X118886986Y-80558351D01*
X118897011Y-80591400D01*
X118901000Y-80631904D01*
X118901000Y-82368096D01*
X118897011Y-82408600D01*
X118886986Y-82441649D01*
X118870706Y-82472106D01*
X118848799Y-82498799D01*
X118822106Y-82520706D01*
X118791649Y-82536986D01*
X118758600Y-82547011D01*
X118718096Y-82551000D01*
X117281904Y-82551000D01*
X117241400Y-82547011D01*
X117208351Y-82536986D01*
X117177894Y-82520706D01*
X117151201Y-82498799D01*
X117129294Y-82472106D01*
X117113014Y-82441649D01*
X117102989Y-82408600D01*
X117099000Y-82368096D01*
X117099000Y-80631904D01*
X117102989Y-80591400D01*
X117113014Y-80558351D01*
X117129294Y-80527894D01*
X117151201Y-80501201D01*
X117177894Y-80479294D01*
X117208351Y-80463014D01*
X117241400Y-80452989D01*
X117281904Y-80449000D01*
X118718096Y-80449000D01*
X118758600Y-80452989D01*
X118758600Y-80452989D01*
G37*
G36*
X109634239Y-72311467D02*
X109948282Y-72373934D01*
X110539926Y-72619001D01*
X111068802Y-72972385D01*
X111072395Y-72974786D01*
X111525214Y-73427605D01*
X111525216Y-73427608D01*
X111880999Y-73960074D01*
X112126066Y-74551718D01*
X112251000Y-75179804D01*
X112251000Y-75820196D01*
X112126066Y-76448282D01*
X111880999Y-77039926D01*
X111527615Y-77568802D01*
X111525214Y-77572395D01*
X111072395Y-78025214D01*
X111072392Y-78025216D01*
X110539926Y-78380999D01*
X109948282Y-78626066D01*
X109634239Y-78688533D01*
X109320197Y-78751000D01*
X108679803Y-78751000D01*
X108365761Y-78688533D01*
X108051718Y-78626066D01*
X107460074Y-78380999D01*
X106927608Y-78025216D01*
X106927605Y-78025214D01*
X106474786Y-77572395D01*
X106472385Y-77568802D01*
X106119001Y-77039926D01*
X105873934Y-76448282D01*
X105749000Y-75820196D01*
X105749000Y-75179804D01*
X105873934Y-74551718D01*
X106119001Y-73960074D01*
X106474784Y-73427608D01*
X106474786Y-73427605D01*
X106927605Y-72974786D01*
X106931198Y-72972385D01*
X107460074Y-72619001D01*
X108051718Y-72373934D01*
X108365761Y-72311467D01*
X108679803Y-72249000D01*
X109320197Y-72249000D01*
X109634239Y-72311467D01*
X109634239Y-72311467D01*
G37*
M02*
