G04 #@! TF.GenerationSoftware,KiCad,Pcbnew,(5.0.1)-3*
G04 #@! TF.CreationDate,2019-04-26T03:26:33+02:00*
G04 #@! TF.ProjectId,piezo_amplifier,7069657A6F5F616D706C69666965722E,rev?*
G04 #@! TF.SameCoordinates,Original*
G04 #@! TF.FileFunction,Legend,Bot*
G04 #@! TF.FilePolarity,Positive*
%FSLAX46Y46*%
G04 Gerber Fmt 4.6, Leading zero omitted, Abs format (unit mm)*
G04 Created by KiCad (PCBNEW (5.0.1)-3) date 19/04/26 3:26:33 AM*
%MOMM*%
%LPD*%
G01*
G04 APERTURE LIST*
%ADD10C,0.300000*%
G04 APERTURE END LIST*
D10*
X122871428Y-92450000D02*
X122157142Y-92450000D01*
X123014285Y-92878571D02*
X122514285Y-91378571D01*
X122014285Y-92878571D01*
X121585714Y-92807142D02*
X121442857Y-92878571D01*
X121157142Y-92878571D01*
X121014285Y-92807142D01*
X120942857Y-92664285D01*
X120942857Y-92592857D01*
X121014285Y-92450000D01*
X121157142Y-92378571D01*
X121371428Y-92378571D01*
X121514285Y-92307142D01*
X121585714Y-92164285D01*
X121585714Y-92092857D01*
X121514285Y-91950000D01*
X121371428Y-91878571D01*
X121157142Y-91878571D01*
X121014285Y-91950000D01*
X119657142Y-92878571D02*
X119657142Y-92092857D01*
X119728571Y-91950000D01*
X119871428Y-91878571D01*
X120157142Y-91878571D01*
X120300000Y-91950000D01*
X119657142Y-92807142D02*
X119800000Y-92878571D01*
X120157142Y-92878571D01*
X120300000Y-92807142D01*
X120371428Y-92664285D01*
X120371428Y-92521428D01*
X120300000Y-92378571D01*
X120157142Y-92307142D01*
X119800000Y-92307142D01*
X119657142Y-92235714D01*
X118300000Y-91878571D02*
X118300000Y-92878571D01*
X118942857Y-91878571D02*
X118942857Y-92664285D01*
X118871428Y-92807142D01*
X118728571Y-92878571D01*
X118514285Y-92878571D01*
X118371428Y-92807142D01*
X118300000Y-92735714D01*
X117585714Y-92878571D02*
X117585714Y-91878571D01*
X117585714Y-92164285D02*
X117514285Y-92021428D01*
X117442857Y-91950000D01*
X117300000Y-91878571D01*
X117157142Y-91878571D01*
X116014285Y-91878571D02*
X116014285Y-92878571D01*
X116657142Y-91878571D02*
X116657142Y-92664285D01*
X116585714Y-92807142D01*
X116442857Y-92878571D01*
X116228571Y-92878571D01*
X116085714Y-92807142D01*
X116014285Y-92735714D01*
X115371428Y-92807142D02*
X115228571Y-92878571D01*
X114942857Y-92878571D01*
X114800000Y-92807142D01*
X114728571Y-92664285D01*
X114728571Y-92592857D01*
X114800000Y-92450000D01*
X114942857Y-92378571D01*
X115157142Y-92378571D01*
X115300000Y-92307142D01*
X115371428Y-92164285D01*
X115371428Y-92092857D01*
X115300000Y-91950000D01*
X115157142Y-91878571D01*
X114942857Y-91878571D01*
X114800000Y-91950000D01*
X144214285Y-85928571D02*
X144214285Y-84428571D01*
X143642857Y-84428571D01*
X143500000Y-84500000D01*
X143428571Y-84571428D01*
X143357142Y-84714285D01*
X143357142Y-84928571D01*
X143428571Y-85071428D01*
X143500000Y-85142857D01*
X143642857Y-85214285D01*
X144214285Y-85214285D01*
X142714285Y-85928571D02*
X142714285Y-84928571D01*
X142714285Y-84428571D02*
X142785714Y-84500000D01*
X142714285Y-84571428D01*
X142642857Y-84500000D01*
X142714285Y-84428571D01*
X142714285Y-84571428D01*
X141428571Y-85857142D02*
X141571428Y-85928571D01*
X141857142Y-85928571D01*
X142000000Y-85857142D01*
X142071428Y-85714285D01*
X142071428Y-85142857D01*
X142000000Y-85000000D01*
X141857142Y-84928571D01*
X141571428Y-84928571D01*
X141428571Y-85000000D01*
X141357142Y-85142857D01*
X141357142Y-85285714D01*
X142071428Y-85428571D01*
X140857142Y-84928571D02*
X140071428Y-84928571D01*
X140857142Y-85928571D01*
X140071428Y-85928571D01*
X139285714Y-85928571D02*
X139428571Y-85857142D01*
X139500000Y-85785714D01*
X139571428Y-85642857D01*
X139571428Y-85214285D01*
X139500000Y-85071428D01*
X139428571Y-85000000D01*
X139285714Y-84928571D01*
X139071428Y-84928571D01*
X138928571Y-85000000D01*
X138857142Y-85071428D01*
X138785714Y-85214285D01*
X138785714Y-85642857D01*
X138857142Y-85785714D01*
X138928571Y-85857142D01*
X139071428Y-85928571D01*
X139285714Y-85928571D01*
X137571428Y-85857142D02*
X137714285Y-85928571D01*
X138000000Y-85928571D01*
X138142857Y-85857142D01*
X138214285Y-85714285D01*
X138214285Y-85142857D01*
X138142857Y-85000000D01*
X138000000Y-84928571D01*
X137714285Y-84928571D01*
X137571428Y-85000000D01*
X137500000Y-85142857D01*
X137500000Y-85285714D01*
X138214285Y-85428571D01*
X136642857Y-85928571D02*
X136785714Y-85857142D01*
X136857142Y-85714285D01*
X136857142Y-84428571D01*
X135500000Y-85857142D02*
X135642857Y-85928571D01*
X135928571Y-85928571D01*
X136071428Y-85857142D01*
X136142857Y-85714285D01*
X136142857Y-85142857D01*
X136071428Y-85000000D01*
X135928571Y-84928571D01*
X135642857Y-84928571D01*
X135500000Y-85000000D01*
X135428571Y-85142857D01*
X135428571Y-85285714D01*
X136142857Y-85428571D01*
X134142857Y-85857142D02*
X134285714Y-85928571D01*
X134571428Y-85928571D01*
X134714285Y-85857142D01*
X134785714Y-85785714D01*
X134857142Y-85642857D01*
X134857142Y-85214285D01*
X134785714Y-85071428D01*
X134714285Y-85000000D01*
X134571428Y-84928571D01*
X134285714Y-84928571D01*
X134142857Y-85000000D01*
X133714285Y-84928571D02*
X133142857Y-84928571D01*
X133500000Y-84428571D02*
X133500000Y-85714285D01*
X133428571Y-85857142D01*
X133285714Y-85928571D01*
X133142857Y-85928571D01*
X132642857Y-85928571D02*
X132642857Y-84928571D01*
X132642857Y-85214285D02*
X132571428Y-85071428D01*
X132500000Y-85000000D01*
X132357142Y-84928571D01*
X132214285Y-84928571D01*
X131714285Y-85928571D02*
X131714285Y-84928571D01*
X131714285Y-84428571D02*
X131785714Y-84500000D01*
X131714285Y-84571428D01*
X131642857Y-84500000D01*
X131714285Y-84428571D01*
X131714285Y-84571428D01*
X130357142Y-85857142D02*
X130500000Y-85928571D01*
X130785714Y-85928571D01*
X130928571Y-85857142D01*
X131000000Y-85785714D01*
X131071428Y-85642857D01*
X131071428Y-85214285D01*
X131000000Y-85071428D01*
X130928571Y-85000000D01*
X130785714Y-84928571D01*
X130500000Y-84928571D01*
X130357142Y-85000000D01*
X128571428Y-85928571D02*
X128571428Y-84428571D01*
X128000000Y-84428571D01*
X127857142Y-84500000D01*
X127785714Y-84571428D01*
X127714285Y-84714285D01*
X127714285Y-84928571D01*
X127785714Y-85071428D01*
X127857142Y-85142857D01*
X128000000Y-85214285D01*
X128571428Y-85214285D01*
X127071428Y-85928571D02*
X127071428Y-84928571D01*
X127071428Y-85214285D02*
X127000000Y-85071428D01*
X126928571Y-85000000D01*
X126785714Y-84928571D01*
X126642857Y-84928571D01*
X125928571Y-85928571D02*
X126071428Y-85857142D01*
X126142857Y-85785714D01*
X126214285Y-85642857D01*
X126214285Y-85214285D01*
X126142857Y-85071428D01*
X126071428Y-85000000D01*
X125928571Y-84928571D01*
X125714285Y-84928571D01*
X125571428Y-85000000D01*
X125500000Y-85071428D01*
X125428571Y-85214285D01*
X125428571Y-85642857D01*
X125500000Y-85785714D01*
X125571428Y-85857142D01*
X125714285Y-85928571D01*
X125928571Y-85928571D01*
X124785714Y-85928571D02*
X124785714Y-84428571D01*
X124785714Y-85000000D02*
X124642857Y-84928571D01*
X124357142Y-84928571D01*
X124214285Y-85000000D01*
X124142857Y-85071428D01*
X124071428Y-85214285D01*
X124071428Y-85642857D01*
X124142857Y-85785714D01*
X124214285Y-85857142D01*
X124357142Y-85928571D01*
X124642857Y-85928571D01*
X124785714Y-85857142D01*
X122857142Y-85857142D02*
X122999999Y-85928571D01*
X123285714Y-85928571D01*
X123428571Y-85857142D01*
X123499999Y-85714285D01*
X123499999Y-85142857D01*
X123428571Y-85000000D01*
X123285714Y-84928571D01*
X122999999Y-84928571D01*
X122857142Y-85000000D01*
X122785714Y-85142857D01*
X122785714Y-85285714D01*
X123499999Y-85428571D01*
X121071428Y-85500000D02*
X120357142Y-85500000D01*
X121214285Y-85928571D02*
X120714285Y-84428571D01*
X120214285Y-85928571D01*
X119714285Y-85928571D02*
X119714285Y-84928571D01*
X119714285Y-85071428D02*
X119642857Y-85000000D01*
X119499999Y-84928571D01*
X119285714Y-84928571D01*
X119142857Y-85000000D01*
X119071428Y-85142857D01*
X119071428Y-85928571D01*
X119071428Y-85142857D02*
X118999999Y-85000000D01*
X118857142Y-84928571D01*
X118642857Y-84928571D01*
X118499999Y-85000000D01*
X118428571Y-85142857D01*
X118428571Y-85928571D01*
X117714285Y-84928571D02*
X117714285Y-86428571D01*
X117714285Y-85000000D02*
X117571428Y-84928571D01*
X117285714Y-84928571D01*
X117142857Y-85000000D01*
X117071428Y-85071428D01*
X116999999Y-85214285D01*
X116999999Y-85642857D01*
X117071428Y-85785714D01*
X117142857Y-85857142D01*
X117285714Y-85928571D01*
X117571428Y-85928571D01*
X117714285Y-85857142D01*
X116142857Y-85928571D02*
X116285714Y-85857142D01*
X116357142Y-85714285D01*
X116357142Y-84428571D01*
X115571428Y-85928571D02*
X115571428Y-84928571D01*
X115571428Y-84428571D02*
X115642857Y-84500000D01*
X115571428Y-84571428D01*
X115499999Y-84500000D01*
X115571428Y-84428571D01*
X115571428Y-84571428D01*
X115071428Y-84928571D02*
X114499999Y-84928571D01*
X114857142Y-85928571D02*
X114857142Y-84642857D01*
X114785714Y-84500000D01*
X114642857Y-84428571D01*
X114499999Y-84428571D01*
X114000000Y-85928571D02*
X114000000Y-84928571D01*
X114000000Y-84428571D02*
X114071428Y-84500000D01*
X114000000Y-84571428D01*
X113928571Y-84500000D01*
X114000000Y-84428571D01*
X114000000Y-84571428D01*
X112714285Y-85857142D02*
X112857142Y-85928571D01*
X113142857Y-85928571D01*
X113285714Y-85857142D01*
X113357142Y-85714285D01*
X113357142Y-85142857D01*
X113285714Y-85000000D01*
X113142857Y-84928571D01*
X112857142Y-84928571D01*
X112714285Y-85000000D01*
X112642857Y-85142857D01*
X112642857Y-85285714D01*
X113357142Y-85428571D01*
X111999999Y-85928571D02*
X111999999Y-84928571D01*
X111999999Y-85214285D02*
X111928571Y-85071428D01*
X111857142Y-85000000D01*
X111714285Y-84928571D01*
X111571428Y-84928571D01*
X110142857Y-84428571D02*
X109642857Y-85928571D01*
X109142857Y-84428571D01*
X107857142Y-85928571D02*
X108714285Y-85928571D01*
X108285714Y-85928571D02*
X108285714Y-84428571D01*
X108428571Y-84642857D01*
X108571428Y-84785714D01*
X108714285Y-84857142D01*
X107214285Y-85785714D02*
X107142857Y-85857142D01*
X107214285Y-85928571D01*
X107285714Y-85857142D01*
X107214285Y-85785714D01*
X107214285Y-85928571D01*
X106214285Y-84428571D02*
X106071428Y-84428571D01*
X105928571Y-84500000D01*
X105857142Y-84571428D01*
X105785714Y-84714285D01*
X105714285Y-85000000D01*
X105714285Y-85357142D01*
X105785714Y-85642857D01*
X105857142Y-85785714D01*
X105928571Y-85857142D01*
X106071428Y-85928571D01*
X106214285Y-85928571D01*
X106357142Y-85857142D01*
X106428571Y-85785714D01*
X106499999Y-85642857D01*
X106571428Y-85357142D01*
X106571428Y-85000000D01*
X106499999Y-84714285D01*
X106428571Y-84571428D01*
X106357142Y-84500000D01*
X106214285Y-84428571D01*
M02*
