G04 #@! TF.GenerationSoftware,KiCad,Pcbnew,(5.0.1)-3*
G04 #@! TF.CreationDate,2019-04-26T03:26:33+02:00*
G04 #@! TF.ProjectId,piezo_amplifier,7069657A6F5F616D706C69666965722E,rev?*
G04 #@! TF.SameCoordinates,Original*
G04 #@! TF.FileFunction,Paste,Top*
G04 #@! TF.FilePolarity,Positive*
%FSLAX46Y46*%
G04 Gerber Fmt 4.6, Leading zero omitted, Abs format (unit mm)*
G04 Created by KiCad (PCBNEW (5.0.1)-3) date 19/04/26 3:26:33 AM*
%MOMM*%
%LPD*%
G01*
G04 APERTURE LIST*
%ADD10C,0.100000*%
%ADD11C,0.875000*%
%ADD12R,1.500000X0.600000*%
%ADD13R,1.600000X1.500000*%
%ADD14R,1.200000X1.200000*%
%ADD15R,0.600000X1.300000*%
G04 APERTURE END LIST*
D10*
G04 #@! TO.C,C1*
G36*
X131527691Y-81526053D02*
X131548926Y-81529203D01*
X131569750Y-81534419D01*
X131589962Y-81541651D01*
X131609368Y-81550830D01*
X131627781Y-81561866D01*
X131645024Y-81574654D01*
X131660930Y-81589070D01*
X131675346Y-81604976D01*
X131688134Y-81622219D01*
X131699170Y-81640632D01*
X131708349Y-81660038D01*
X131715581Y-81680250D01*
X131720797Y-81701074D01*
X131723947Y-81722309D01*
X131725000Y-81743750D01*
X131725000Y-82181250D01*
X131723947Y-82202691D01*
X131720797Y-82223926D01*
X131715581Y-82244750D01*
X131708349Y-82264962D01*
X131699170Y-82284368D01*
X131688134Y-82302781D01*
X131675346Y-82320024D01*
X131660930Y-82335930D01*
X131645024Y-82350346D01*
X131627781Y-82363134D01*
X131609368Y-82374170D01*
X131589962Y-82383349D01*
X131569750Y-82390581D01*
X131548926Y-82395797D01*
X131527691Y-82398947D01*
X131506250Y-82400000D01*
X130993750Y-82400000D01*
X130972309Y-82398947D01*
X130951074Y-82395797D01*
X130930250Y-82390581D01*
X130910038Y-82383349D01*
X130890632Y-82374170D01*
X130872219Y-82363134D01*
X130854976Y-82350346D01*
X130839070Y-82335930D01*
X130824654Y-82320024D01*
X130811866Y-82302781D01*
X130800830Y-82284368D01*
X130791651Y-82264962D01*
X130784419Y-82244750D01*
X130779203Y-82223926D01*
X130776053Y-82202691D01*
X130775000Y-82181250D01*
X130775000Y-81743750D01*
X130776053Y-81722309D01*
X130779203Y-81701074D01*
X130784419Y-81680250D01*
X130791651Y-81660038D01*
X130800830Y-81640632D01*
X130811866Y-81622219D01*
X130824654Y-81604976D01*
X130839070Y-81589070D01*
X130854976Y-81574654D01*
X130872219Y-81561866D01*
X130890632Y-81550830D01*
X130910038Y-81541651D01*
X130930250Y-81534419D01*
X130951074Y-81529203D01*
X130972309Y-81526053D01*
X130993750Y-81525000D01*
X131506250Y-81525000D01*
X131527691Y-81526053D01*
X131527691Y-81526053D01*
G37*
D11*
X131250000Y-81962500D03*
D10*
G36*
X131527691Y-83101053D02*
X131548926Y-83104203D01*
X131569750Y-83109419D01*
X131589962Y-83116651D01*
X131609368Y-83125830D01*
X131627781Y-83136866D01*
X131645024Y-83149654D01*
X131660930Y-83164070D01*
X131675346Y-83179976D01*
X131688134Y-83197219D01*
X131699170Y-83215632D01*
X131708349Y-83235038D01*
X131715581Y-83255250D01*
X131720797Y-83276074D01*
X131723947Y-83297309D01*
X131725000Y-83318750D01*
X131725000Y-83756250D01*
X131723947Y-83777691D01*
X131720797Y-83798926D01*
X131715581Y-83819750D01*
X131708349Y-83839962D01*
X131699170Y-83859368D01*
X131688134Y-83877781D01*
X131675346Y-83895024D01*
X131660930Y-83910930D01*
X131645024Y-83925346D01*
X131627781Y-83938134D01*
X131609368Y-83949170D01*
X131589962Y-83958349D01*
X131569750Y-83965581D01*
X131548926Y-83970797D01*
X131527691Y-83973947D01*
X131506250Y-83975000D01*
X130993750Y-83975000D01*
X130972309Y-83973947D01*
X130951074Y-83970797D01*
X130930250Y-83965581D01*
X130910038Y-83958349D01*
X130890632Y-83949170D01*
X130872219Y-83938134D01*
X130854976Y-83925346D01*
X130839070Y-83910930D01*
X130824654Y-83895024D01*
X130811866Y-83877781D01*
X130800830Y-83859368D01*
X130791651Y-83839962D01*
X130784419Y-83819750D01*
X130779203Y-83798926D01*
X130776053Y-83777691D01*
X130775000Y-83756250D01*
X130775000Y-83318750D01*
X130776053Y-83297309D01*
X130779203Y-83276074D01*
X130784419Y-83255250D01*
X130791651Y-83235038D01*
X130800830Y-83215632D01*
X130811866Y-83197219D01*
X130824654Y-83179976D01*
X130839070Y-83164070D01*
X130854976Y-83149654D01*
X130872219Y-83136866D01*
X130890632Y-83125830D01*
X130910038Y-83116651D01*
X130930250Y-83109419D01*
X130951074Y-83104203D01*
X130972309Y-83101053D01*
X130993750Y-83100000D01*
X131506250Y-83100000D01*
X131527691Y-83101053D01*
X131527691Y-83101053D01*
G37*
D11*
X131250000Y-83537500D03*
G04 #@! TD*
D10*
G04 #@! TO.C,C2*
G36*
X118527691Y-92026053D02*
X118548926Y-92029203D01*
X118569750Y-92034419D01*
X118589962Y-92041651D01*
X118609368Y-92050830D01*
X118627781Y-92061866D01*
X118645024Y-92074654D01*
X118660930Y-92089070D01*
X118675346Y-92104976D01*
X118688134Y-92122219D01*
X118699170Y-92140632D01*
X118708349Y-92160038D01*
X118715581Y-92180250D01*
X118720797Y-92201074D01*
X118723947Y-92222309D01*
X118725000Y-92243750D01*
X118725000Y-92681250D01*
X118723947Y-92702691D01*
X118720797Y-92723926D01*
X118715581Y-92744750D01*
X118708349Y-92764962D01*
X118699170Y-92784368D01*
X118688134Y-92802781D01*
X118675346Y-92820024D01*
X118660930Y-92835930D01*
X118645024Y-92850346D01*
X118627781Y-92863134D01*
X118609368Y-92874170D01*
X118589962Y-92883349D01*
X118569750Y-92890581D01*
X118548926Y-92895797D01*
X118527691Y-92898947D01*
X118506250Y-92900000D01*
X117993750Y-92900000D01*
X117972309Y-92898947D01*
X117951074Y-92895797D01*
X117930250Y-92890581D01*
X117910038Y-92883349D01*
X117890632Y-92874170D01*
X117872219Y-92863134D01*
X117854976Y-92850346D01*
X117839070Y-92835930D01*
X117824654Y-92820024D01*
X117811866Y-92802781D01*
X117800830Y-92784368D01*
X117791651Y-92764962D01*
X117784419Y-92744750D01*
X117779203Y-92723926D01*
X117776053Y-92702691D01*
X117775000Y-92681250D01*
X117775000Y-92243750D01*
X117776053Y-92222309D01*
X117779203Y-92201074D01*
X117784419Y-92180250D01*
X117791651Y-92160038D01*
X117800830Y-92140632D01*
X117811866Y-92122219D01*
X117824654Y-92104976D01*
X117839070Y-92089070D01*
X117854976Y-92074654D01*
X117872219Y-92061866D01*
X117890632Y-92050830D01*
X117910038Y-92041651D01*
X117930250Y-92034419D01*
X117951074Y-92029203D01*
X117972309Y-92026053D01*
X117993750Y-92025000D01*
X118506250Y-92025000D01*
X118527691Y-92026053D01*
X118527691Y-92026053D01*
G37*
D11*
X118250000Y-92462500D03*
D10*
G36*
X118527691Y-93601053D02*
X118548926Y-93604203D01*
X118569750Y-93609419D01*
X118589962Y-93616651D01*
X118609368Y-93625830D01*
X118627781Y-93636866D01*
X118645024Y-93649654D01*
X118660930Y-93664070D01*
X118675346Y-93679976D01*
X118688134Y-93697219D01*
X118699170Y-93715632D01*
X118708349Y-93735038D01*
X118715581Y-93755250D01*
X118720797Y-93776074D01*
X118723947Y-93797309D01*
X118725000Y-93818750D01*
X118725000Y-94256250D01*
X118723947Y-94277691D01*
X118720797Y-94298926D01*
X118715581Y-94319750D01*
X118708349Y-94339962D01*
X118699170Y-94359368D01*
X118688134Y-94377781D01*
X118675346Y-94395024D01*
X118660930Y-94410930D01*
X118645024Y-94425346D01*
X118627781Y-94438134D01*
X118609368Y-94449170D01*
X118589962Y-94458349D01*
X118569750Y-94465581D01*
X118548926Y-94470797D01*
X118527691Y-94473947D01*
X118506250Y-94475000D01*
X117993750Y-94475000D01*
X117972309Y-94473947D01*
X117951074Y-94470797D01*
X117930250Y-94465581D01*
X117910038Y-94458349D01*
X117890632Y-94449170D01*
X117872219Y-94438134D01*
X117854976Y-94425346D01*
X117839070Y-94410930D01*
X117824654Y-94395024D01*
X117811866Y-94377781D01*
X117800830Y-94359368D01*
X117791651Y-94339962D01*
X117784419Y-94319750D01*
X117779203Y-94298926D01*
X117776053Y-94277691D01*
X117775000Y-94256250D01*
X117775000Y-93818750D01*
X117776053Y-93797309D01*
X117779203Y-93776074D01*
X117784419Y-93755250D01*
X117791651Y-93735038D01*
X117800830Y-93715632D01*
X117811866Y-93697219D01*
X117824654Y-93679976D01*
X117839070Y-93664070D01*
X117854976Y-93649654D01*
X117872219Y-93636866D01*
X117890632Y-93625830D01*
X117910038Y-93616651D01*
X117930250Y-93609419D01*
X117951074Y-93604203D01*
X117972309Y-93601053D01*
X117993750Y-93600000D01*
X118506250Y-93600000D01*
X118527691Y-93601053D01*
X118527691Y-93601053D01*
G37*
D11*
X118250000Y-94037500D03*
G04 #@! TD*
D10*
G04 #@! TO.C,C3*
G36*
X135027691Y-83101053D02*
X135048926Y-83104203D01*
X135069750Y-83109419D01*
X135089962Y-83116651D01*
X135109368Y-83125830D01*
X135127781Y-83136866D01*
X135145024Y-83149654D01*
X135160930Y-83164070D01*
X135175346Y-83179976D01*
X135188134Y-83197219D01*
X135199170Y-83215632D01*
X135208349Y-83235038D01*
X135215581Y-83255250D01*
X135220797Y-83276074D01*
X135223947Y-83297309D01*
X135225000Y-83318750D01*
X135225000Y-83756250D01*
X135223947Y-83777691D01*
X135220797Y-83798926D01*
X135215581Y-83819750D01*
X135208349Y-83839962D01*
X135199170Y-83859368D01*
X135188134Y-83877781D01*
X135175346Y-83895024D01*
X135160930Y-83910930D01*
X135145024Y-83925346D01*
X135127781Y-83938134D01*
X135109368Y-83949170D01*
X135089962Y-83958349D01*
X135069750Y-83965581D01*
X135048926Y-83970797D01*
X135027691Y-83973947D01*
X135006250Y-83975000D01*
X134493750Y-83975000D01*
X134472309Y-83973947D01*
X134451074Y-83970797D01*
X134430250Y-83965581D01*
X134410038Y-83958349D01*
X134390632Y-83949170D01*
X134372219Y-83938134D01*
X134354976Y-83925346D01*
X134339070Y-83910930D01*
X134324654Y-83895024D01*
X134311866Y-83877781D01*
X134300830Y-83859368D01*
X134291651Y-83839962D01*
X134284419Y-83819750D01*
X134279203Y-83798926D01*
X134276053Y-83777691D01*
X134275000Y-83756250D01*
X134275000Y-83318750D01*
X134276053Y-83297309D01*
X134279203Y-83276074D01*
X134284419Y-83255250D01*
X134291651Y-83235038D01*
X134300830Y-83215632D01*
X134311866Y-83197219D01*
X134324654Y-83179976D01*
X134339070Y-83164070D01*
X134354976Y-83149654D01*
X134372219Y-83136866D01*
X134390632Y-83125830D01*
X134410038Y-83116651D01*
X134430250Y-83109419D01*
X134451074Y-83104203D01*
X134472309Y-83101053D01*
X134493750Y-83100000D01*
X135006250Y-83100000D01*
X135027691Y-83101053D01*
X135027691Y-83101053D01*
G37*
D11*
X134750000Y-83537500D03*
D10*
G36*
X135027691Y-81526053D02*
X135048926Y-81529203D01*
X135069750Y-81534419D01*
X135089962Y-81541651D01*
X135109368Y-81550830D01*
X135127781Y-81561866D01*
X135145024Y-81574654D01*
X135160930Y-81589070D01*
X135175346Y-81604976D01*
X135188134Y-81622219D01*
X135199170Y-81640632D01*
X135208349Y-81660038D01*
X135215581Y-81680250D01*
X135220797Y-81701074D01*
X135223947Y-81722309D01*
X135225000Y-81743750D01*
X135225000Y-82181250D01*
X135223947Y-82202691D01*
X135220797Y-82223926D01*
X135215581Y-82244750D01*
X135208349Y-82264962D01*
X135199170Y-82284368D01*
X135188134Y-82302781D01*
X135175346Y-82320024D01*
X135160930Y-82335930D01*
X135145024Y-82350346D01*
X135127781Y-82363134D01*
X135109368Y-82374170D01*
X135089962Y-82383349D01*
X135069750Y-82390581D01*
X135048926Y-82395797D01*
X135027691Y-82398947D01*
X135006250Y-82400000D01*
X134493750Y-82400000D01*
X134472309Y-82398947D01*
X134451074Y-82395797D01*
X134430250Y-82390581D01*
X134410038Y-82383349D01*
X134390632Y-82374170D01*
X134372219Y-82363134D01*
X134354976Y-82350346D01*
X134339070Y-82335930D01*
X134324654Y-82320024D01*
X134311866Y-82302781D01*
X134300830Y-82284368D01*
X134291651Y-82264962D01*
X134284419Y-82244750D01*
X134279203Y-82223926D01*
X134276053Y-82202691D01*
X134275000Y-82181250D01*
X134275000Y-81743750D01*
X134276053Y-81722309D01*
X134279203Y-81701074D01*
X134284419Y-81680250D01*
X134291651Y-81660038D01*
X134300830Y-81640632D01*
X134311866Y-81622219D01*
X134324654Y-81604976D01*
X134339070Y-81589070D01*
X134354976Y-81574654D01*
X134372219Y-81561866D01*
X134390632Y-81550830D01*
X134410038Y-81541651D01*
X134430250Y-81534419D01*
X134451074Y-81529203D01*
X134472309Y-81526053D01*
X134493750Y-81525000D01*
X135006250Y-81525000D01*
X135027691Y-81526053D01*
X135027691Y-81526053D01*
G37*
D11*
X134750000Y-81962500D03*
G04 #@! TD*
D10*
G04 #@! TO.C,C4*
G36*
X122027691Y-85526053D02*
X122048926Y-85529203D01*
X122069750Y-85534419D01*
X122089962Y-85541651D01*
X122109368Y-85550830D01*
X122127781Y-85561866D01*
X122145024Y-85574654D01*
X122160930Y-85589070D01*
X122175346Y-85604976D01*
X122188134Y-85622219D01*
X122199170Y-85640632D01*
X122208349Y-85660038D01*
X122215581Y-85680250D01*
X122220797Y-85701074D01*
X122223947Y-85722309D01*
X122225000Y-85743750D01*
X122225000Y-86181250D01*
X122223947Y-86202691D01*
X122220797Y-86223926D01*
X122215581Y-86244750D01*
X122208349Y-86264962D01*
X122199170Y-86284368D01*
X122188134Y-86302781D01*
X122175346Y-86320024D01*
X122160930Y-86335930D01*
X122145024Y-86350346D01*
X122127781Y-86363134D01*
X122109368Y-86374170D01*
X122089962Y-86383349D01*
X122069750Y-86390581D01*
X122048926Y-86395797D01*
X122027691Y-86398947D01*
X122006250Y-86400000D01*
X121493750Y-86400000D01*
X121472309Y-86398947D01*
X121451074Y-86395797D01*
X121430250Y-86390581D01*
X121410038Y-86383349D01*
X121390632Y-86374170D01*
X121372219Y-86363134D01*
X121354976Y-86350346D01*
X121339070Y-86335930D01*
X121324654Y-86320024D01*
X121311866Y-86302781D01*
X121300830Y-86284368D01*
X121291651Y-86264962D01*
X121284419Y-86244750D01*
X121279203Y-86223926D01*
X121276053Y-86202691D01*
X121275000Y-86181250D01*
X121275000Y-85743750D01*
X121276053Y-85722309D01*
X121279203Y-85701074D01*
X121284419Y-85680250D01*
X121291651Y-85660038D01*
X121300830Y-85640632D01*
X121311866Y-85622219D01*
X121324654Y-85604976D01*
X121339070Y-85589070D01*
X121354976Y-85574654D01*
X121372219Y-85561866D01*
X121390632Y-85550830D01*
X121410038Y-85541651D01*
X121430250Y-85534419D01*
X121451074Y-85529203D01*
X121472309Y-85526053D01*
X121493750Y-85525000D01*
X122006250Y-85525000D01*
X122027691Y-85526053D01*
X122027691Y-85526053D01*
G37*
D11*
X121750000Y-85962500D03*
D10*
G36*
X122027691Y-87101053D02*
X122048926Y-87104203D01*
X122069750Y-87109419D01*
X122089962Y-87116651D01*
X122109368Y-87125830D01*
X122127781Y-87136866D01*
X122145024Y-87149654D01*
X122160930Y-87164070D01*
X122175346Y-87179976D01*
X122188134Y-87197219D01*
X122199170Y-87215632D01*
X122208349Y-87235038D01*
X122215581Y-87255250D01*
X122220797Y-87276074D01*
X122223947Y-87297309D01*
X122225000Y-87318750D01*
X122225000Y-87756250D01*
X122223947Y-87777691D01*
X122220797Y-87798926D01*
X122215581Y-87819750D01*
X122208349Y-87839962D01*
X122199170Y-87859368D01*
X122188134Y-87877781D01*
X122175346Y-87895024D01*
X122160930Y-87910930D01*
X122145024Y-87925346D01*
X122127781Y-87938134D01*
X122109368Y-87949170D01*
X122089962Y-87958349D01*
X122069750Y-87965581D01*
X122048926Y-87970797D01*
X122027691Y-87973947D01*
X122006250Y-87975000D01*
X121493750Y-87975000D01*
X121472309Y-87973947D01*
X121451074Y-87970797D01*
X121430250Y-87965581D01*
X121410038Y-87958349D01*
X121390632Y-87949170D01*
X121372219Y-87938134D01*
X121354976Y-87925346D01*
X121339070Y-87910930D01*
X121324654Y-87895024D01*
X121311866Y-87877781D01*
X121300830Y-87859368D01*
X121291651Y-87839962D01*
X121284419Y-87819750D01*
X121279203Y-87798926D01*
X121276053Y-87777691D01*
X121275000Y-87756250D01*
X121275000Y-87318750D01*
X121276053Y-87297309D01*
X121279203Y-87276074D01*
X121284419Y-87255250D01*
X121291651Y-87235038D01*
X121300830Y-87215632D01*
X121311866Y-87197219D01*
X121324654Y-87179976D01*
X121339070Y-87164070D01*
X121354976Y-87149654D01*
X121372219Y-87136866D01*
X121390632Y-87125830D01*
X121410038Y-87116651D01*
X121430250Y-87109419D01*
X121451074Y-87104203D01*
X121472309Y-87101053D01*
X121493750Y-87100000D01*
X122006250Y-87100000D01*
X122027691Y-87101053D01*
X122027691Y-87101053D01*
G37*
D11*
X121750000Y-87537500D03*
G04 #@! TD*
D10*
G04 #@! TO.C,C5*
G36*
X133277691Y-83101053D02*
X133298926Y-83104203D01*
X133319750Y-83109419D01*
X133339962Y-83116651D01*
X133359368Y-83125830D01*
X133377781Y-83136866D01*
X133395024Y-83149654D01*
X133410930Y-83164070D01*
X133425346Y-83179976D01*
X133438134Y-83197219D01*
X133449170Y-83215632D01*
X133458349Y-83235038D01*
X133465581Y-83255250D01*
X133470797Y-83276074D01*
X133473947Y-83297309D01*
X133475000Y-83318750D01*
X133475000Y-83756250D01*
X133473947Y-83777691D01*
X133470797Y-83798926D01*
X133465581Y-83819750D01*
X133458349Y-83839962D01*
X133449170Y-83859368D01*
X133438134Y-83877781D01*
X133425346Y-83895024D01*
X133410930Y-83910930D01*
X133395024Y-83925346D01*
X133377781Y-83938134D01*
X133359368Y-83949170D01*
X133339962Y-83958349D01*
X133319750Y-83965581D01*
X133298926Y-83970797D01*
X133277691Y-83973947D01*
X133256250Y-83975000D01*
X132743750Y-83975000D01*
X132722309Y-83973947D01*
X132701074Y-83970797D01*
X132680250Y-83965581D01*
X132660038Y-83958349D01*
X132640632Y-83949170D01*
X132622219Y-83938134D01*
X132604976Y-83925346D01*
X132589070Y-83910930D01*
X132574654Y-83895024D01*
X132561866Y-83877781D01*
X132550830Y-83859368D01*
X132541651Y-83839962D01*
X132534419Y-83819750D01*
X132529203Y-83798926D01*
X132526053Y-83777691D01*
X132525000Y-83756250D01*
X132525000Y-83318750D01*
X132526053Y-83297309D01*
X132529203Y-83276074D01*
X132534419Y-83255250D01*
X132541651Y-83235038D01*
X132550830Y-83215632D01*
X132561866Y-83197219D01*
X132574654Y-83179976D01*
X132589070Y-83164070D01*
X132604976Y-83149654D01*
X132622219Y-83136866D01*
X132640632Y-83125830D01*
X132660038Y-83116651D01*
X132680250Y-83109419D01*
X132701074Y-83104203D01*
X132722309Y-83101053D01*
X132743750Y-83100000D01*
X133256250Y-83100000D01*
X133277691Y-83101053D01*
X133277691Y-83101053D01*
G37*
D11*
X133000000Y-83537500D03*
D10*
G36*
X133277691Y-81526053D02*
X133298926Y-81529203D01*
X133319750Y-81534419D01*
X133339962Y-81541651D01*
X133359368Y-81550830D01*
X133377781Y-81561866D01*
X133395024Y-81574654D01*
X133410930Y-81589070D01*
X133425346Y-81604976D01*
X133438134Y-81622219D01*
X133449170Y-81640632D01*
X133458349Y-81660038D01*
X133465581Y-81680250D01*
X133470797Y-81701074D01*
X133473947Y-81722309D01*
X133475000Y-81743750D01*
X133475000Y-82181250D01*
X133473947Y-82202691D01*
X133470797Y-82223926D01*
X133465581Y-82244750D01*
X133458349Y-82264962D01*
X133449170Y-82284368D01*
X133438134Y-82302781D01*
X133425346Y-82320024D01*
X133410930Y-82335930D01*
X133395024Y-82350346D01*
X133377781Y-82363134D01*
X133359368Y-82374170D01*
X133339962Y-82383349D01*
X133319750Y-82390581D01*
X133298926Y-82395797D01*
X133277691Y-82398947D01*
X133256250Y-82400000D01*
X132743750Y-82400000D01*
X132722309Y-82398947D01*
X132701074Y-82395797D01*
X132680250Y-82390581D01*
X132660038Y-82383349D01*
X132640632Y-82374170D01*
X132622219Y-82363134D01*
X132604976Y-82350346D01*
X132589070Y-82335930D01*
X132574654Y-82320024D01*
X132561866Y-82302781D01*
X132550830Y-82284368D01*
X132541651Y-82264962D01*
X132534419Y-82244750D01*
X132529203Y-82223926D01*
X132526053Y-82202691D01*
X132525000Y-82181250D01*
X132525000Y-81743750D01*
X132526053Y-81722309D01*
X132529203Y-81701074D01*
X132534419Y-81680250D01*
X132541651Y-81660038D01*
X132550830Y-81640632D01*
X132561866Y-81622219D01*
X132574654Y-81604976D01*
X132589070Y-81589070D01*
X132604976Y-81574654D01*
X132622219Y-81561866D01*
X132640632Y-81550830D01*
X132660038Y-81541651D01*
X132680250Y-81534419D01*
X132701074Y-81529203D01*
X132722309Y-81526053D01*
X132743750Y-81525000D01*
X133256250Y-81525000D01*
X133277691Y-81526053D01*
X133277691Y-81526053D01*
G37*
D11*
X133000000Y-81962500D03*
G04 #@! TD*
D10*
G04 #@! TO.C,C6*
G36*
X131777691Y-91451053D02*
X131798926Y-91454203D01*
X131819750Y-91459419D01*
X131839962Y-91466651D01*
X131859368Y-91475830D01*
X131877781Y-91486866D01*
X131895024Y-91499654D01*
X131910930Y-91514070D01*
X131925346Y-91529976D01*
X131938134Y-91547219D01*
X131949170Y-91565632D01*
X131958349Y-91585038D01*
X131965581Y-91605250D01*
X131970797Y-91626074D01*
X131973947Y-91647309D01*
X131975000Y-91668750D01*
X131975000Y-92106250D01*
X131973947Y-92127691D01*
X131970797Y-92148926D01*
X131965581Y-92169750D01*
X131958349Y-92189962D01*
X131949170Y-92209368D01*
X131938134Y-92227781D01*
X131925346Y-92245024D01*
X131910930Y-92260930D01*
X131895024Y-92275346D01*
X131877781Y-92288134D01*
X131859368Y-92299170D01*
X131839962Y-92308349D01*
X131819750Y-92315581D01*
X131798926Y-92320797D01*
X131777691Y-92323947D01*
X131756250Y-92325000D01*
X131243750Y-92325000D01*
X131222309Y-92323947D01*
X131201074Y-92320797D01*
X131180250Y-92315581D01*
X131160038Y-92308349D01*
X131140632Y-92299170D01*
X131122219Y-92288134D01*
X131104976Y-92275346D01*
X131089070Y-92260930D01*
X131074654Y-92245024D01*
X131061866Y-92227781D01*
X131050830Y-92209368D01*
X131041651Y-92189962D01*
X131034419Y-92169750D01*
X131029203Y-92148926D01*
X131026053Y-92127691D01*
X131025000Y-92106250D01*
X131025000Y-91668750D01*
X131026053Y-91647309D01*
X131029203Y-91626074D01*
X131034419Y-91605250D01*
X131041651Y-91585038D01*
X131050830Y-91565632D01*
X131061866Y-91547219D01*
X131074654Y-91529976D01*
X131089070Y-91514070D01*
X131104976Y-91499654D01*
X131122219Y-91486866D01*
X131140632Y-91475830D01*
X131160038Y-91466651D01*
X131180250Y-91459419D01*
X131201074Y-91454203D01*
X131222309Y-91451053D01*
X131243750Y-91450000D01*
X131756250Y-91450000D01*
X131777691Y-91451053D01*
X131777691Y-91451053D01*
G37*
D11*
X131500000Y-91887500D03*
D10*
G36*
X131777691Y-89876053D02*
X131798926Y-89879203D01*
X131819750Y-89884419D01*
X131839962Y-89891651D01*
X131859368Y-89900830D01*
X131877781Y-89911866D01*
X131895024Y-89924654D01*
X131910930Y-89939070D01*
X131925346Y-89954976D01*
X131938134Y-89972219D01*
X131949170Y-89990632D01*
X131958349Y-90010038D01*
X131965581Y-90030250D01*
X131970797Y-90051074D01*
X131973947Y-90072309D01*
X131975000Y-90093750D01*
X131975000Y-90531250D01*
X131973947Y-90552691D01*
X131970797Y-90573926D01*
X131965581Y-90594750D01*
X131958349Y-90614962D01*
X131949170Y-90634368D01*
X131938134Y-90652781D01*
X131925346Y-90670024D01*
X131910930Y-90685930D01*
X131895024Y-90700346D01*
X131877781Y-90713134D01*
X131859368Y-90724170D01*
X131839962Y-90733349D01*
X131819750Y-90740581D01*
X131798926Y-90745797D01*
X131777691Y-90748947D01*
X131756250Y-90750000D01*
X131243750Y-90750000D01*
X131222309Y-90748947D01*
X131201074Y-90745797D01*
X131180250Y-90740581D01*
X131160038Y-90733349D01*
X131140632Y-90724170D01*
X131122219Y-90713134D01*
X131104976Y-90700346D01*
X131089070Y-90685930D01*
X131074654Y-90670024D01*
X131061866Y-90652781D01*
X131050830Y-90634368D01*
X131041651Y-90614962D01*
X131034419Y-90594750D01*
X131029203Y-90573926D01*
X131026053Y-90552691D01*
X131025000Y-90531250D01*
X131025000Y-90093750D01*
X131026053Y-90072309D01*
X131029203Y-90051074D01*
X131034419Y-90030250D01*
X131041651Y-90010038D01*
X131050830Y-89990632D01*
X131061866Y-89972219D01*
X131074654Y-89954976D01*
X131089070Y-89939070D01*
X131104976Y-89924654D01*
X131122219Y-89911866D01*
X131140632Y-89900830D01*
X131160038Y-89891651D01*
X131180250Y-89884419D01*
X131201074Y-89879203D01*
X131222309Y-89876053D01*
X131243750Y-89875000D01*
X131756250Y-89875000D01*
X131777691Y-89876053D01*
X131777691Y-89876053D01*
G37*
D11*
X131500000Y-90312500D03*
G04 #@! TD*
D10*
G04 #@! TO.C,D1*
G36*
X137027691Y-93126053D02*
X137048926Y-93129203D01*
X137069750Y-93134419D01*
X137089962Y-93141651D01*
X137109368Y-93150830D01*
X137127781Y-93161866D01*
X137145024Y-93174654D01*
X137160930Y-93189070D01*
X137175346Y-93204976D01*
X137188134Y-93222219D01*
X137199170Y-93240632D01*
X137208349Y-93260038D01*
X137215581Y-93280250D01*
X137220797Y-93301074D01*
X137223947Y-93322309D01*
X137225000Y-93343750D01*
X137225000Y-93856250D01*
X137223947Y-93877691D01*
X137220797Y-93898926D01*
X137215581Y-93919750D01*
X137208349Y-93939962D01*
X137199170Y-93959368D01*
X137188134Y-93977781D01*
X137175346Y-93995024D01*
X137160930Y-94010930D01*
X137145024Y-94025346D01*
X137127781Y-94038134D01*
X137109368Y-94049170D01*
X137089962Y-94058349D01*
X137069750Y-94065581D01*
X137048926Y-94070797D01*
X137027691Y-94073947D01*
X137006250Y-94075000D01*
X136568750Y-94075000D01*
X136547309Y-94073947D01*
X136526074Y-94070797D01*
X136505250Y-94065581D01*
X136485038Y-94058349D01*
X136465632Y-94049170D01*
X136447219Y-94038134D01*
X136429976Y-94025346D01*
X136414070Y-94010930D01*
X136399654Y-93995024D01*
X136386866Y-93977781D01*
X136375830Y-93959368D01*
X136366651Y-93939962D01*
X136359419Y-93919750D01*
X136354203Y-93898926D01*
X136351053Y-93877691D01*
X136350000Y-93856250D01*
X136350000Y-93343750D01*
X136351053Y-93322309D01*
X136354203Y-93301074D01*
X136359419Y-93280250D01*
X136366651Y-93260038D01*
X136375830Y-93240632D01*
X136386866Y-93222219D01*
X136399654Y-93204976D01*
X136414070Y-93189070D01*
X136429976Y-93174654D01*
X136447219Y-93161866D01*
X136465632Y-93150830D01*
X136485038Y-93141651D01*
X136505250Y-93134419D01*
X136526074Y-93129203D01*
X136547309Y-93126053D01*
X136568750Y-93125000D01*
X137006250Y-93125000D01*
X137027691Y-93126053D01*
X137027691Y-93126053D01*
G37*
D11*
X136787500Y-93600000D03*
D10*
G36*
X135452691Y-93126053D02*
X135473926Y-93129203D01*
X135494750Y-93134419D01*
X135514962Y-93141651D01*
X135534368Y-93150830D01*
X135552781Y-93161866D01*
X135570024Y-93174654D01*
X135585930Y-93189070D01*
X135600346Y-93204976D01*
X135613134Y-93222219D01*
X135624170Y-93240632D01*
X135633349Y-93260038D01*
X135640581Y-93280250D01*
X135645797Y-93301074D01*
X135648947Y-93322309D01*
X135650000Y-93343750D01*
X135650000Y-93856250D01*
X135648947Y-93877691D01*
X135645797Y-93898926D01*
X135640581Y-93919750D01*
X135633349Y-93939962D01*
X135624170Y-93959368D01*
X135613134Y-93977781D01*
X135600346Y-93995024D01*
X135585930Y-94010930D01*
X135570024Y-94025346D01*
X135552781Y-94038134D01*
X135534368Y-94049170D01*
X135514962Y-94058349D01*
X135494750Y-94065581D01*
X135473926Y-94070797D01*
X135452691Y-94073947D01*
X135431250Y-94075000D01*
X134993750Y-94075000D01*
X134972309Y-94073947D01*
X134951074Y-94070797D01*
X134930250Y-94065581D01*
X134910038Y-94058349D01*
X134890632Y-94049170D01*
X134872219Y-94038134D01*
X134854976Y-94025346D01*
X134839070Y-94010930D01*
X134824654Y-93995024D01*
X134811866Y-93977781D01*
X134800830Y-93959368D01*
X134791651Y-93939962D01*
X134784419Y-93919750D01*
X134779203Y-93898926D01*
X134776053Y-93877691D01*
X134775000Y-93856250D01*
X134775000Y-93343750D01*
X134776053Y-93322309D01*
X134779203Y-93301074D01*
X134784419Y-93280250D01*
X134791651Y-93260038D01*
X134800830Y-93240632D01*
X134811866Y-93222219D01*
X134824654Y-93204976D01*
X134839070Y-93189070D01*
X134854976Y-93174654D01*
X134872219Y-93161866D01*
X134890632Y-93150830D01*
X134910038Y-93141651D01*
X134930250Y-93134419D01*
X134951074Y-93129203D01*
X134972309Y-93126053D01*
X134993750Y-93125000D01*
X135431250Y-93125000D01*
X135452691Y-93126053D01*
X135452691Y-93126053D01*
G37*
D11*
X135212500Y-93600000D03*
G04 #@! TD*
D10*
G04 #@! TO.C,R1*
G36*
X120277691Y-93601053D02*
X120298926Y-93604203D01*
X120319750Y-93609419D01*
X120339962Y-93616651D01*
X120359368Y-93625830D01*
X120377781Y-93636866D01*
X120395024Y-93649654D01*
X120410930Y-93664070D01*
X120425346Y-93679976D01*
X120438134Y-93697219D01*
X120449170Y-93715632D01*
X120458349Y-93735038D01*
X120465581Y-93755250D01*
X120470797Y-93776074D01*
X120473947Y-93797309D01*
X120475000Y-93818750D01*
X120475000Y-94256250D01*
X120473947Y-94277691D01*
X120470797Y-94298926D01*
X120465581Y-94319750D01*
X120458349Y-94339962D01*
X120449170Y-94359368D01*
X120438134Y-94377781D01*
X120425346Y-94395024D01*
X120410930Y-94410930D01*
X120395024Y-94425346D01*
X120377781Y-94438134D01*
X120359368Y-94449170D01*
X120339962Y-94458349D01*
X120319750Y-94465581D01*
X120298926Y-94470797D01*
X120277691Y-94473947D01*
X120256250Y-94475000D01*
X119743750Y-94475000D01*
X119722309Y-94473947D01*
X119701074Y-94470797D01*
X119680250Y-94465581D01*
X119660038Y-94458349D01*
X119640632Y-94449170D01*
X119622219Y-94438134D01*
X119604976Y-94425346D01*
X119589070Y-94410930D01*
X119574654Y-94395024D01*
X119561866Y-94377781D01*
X119550830Y-94359368D01*
X119541651Y-94339962D01*
X119534419Y-94319750D01*
X119529203Y-94298926D01*
X119526053Y-94277691D01*
X119525000Y-94256250D01*
X119525000Y-93818750D01*
X119526053Y-93797309D01*
X119529203Y-93776074D01*
X119534419Y-93755250D01*
X119541651Y-93735038D01*
X119550830Y-93715632D01*
X119561866Y-93697219D01*
X119574654Y-93679976D01*
X119589070Y-93664070D01*
X119604976Y-93649654D01*
X119622219Y-93636866D01*
X119640632Y-93625830D01*
X119660038Y-93616651D01*
X119680250Y-93609419D01*
X119701074Y-93604203D01*
X119722309Y-93601053D01*
X119743750Y-93600000D01*
X120256250Y-93600000D01*
X120277691Y-93601053D01*
X120277691Y-93601053D01*
G37*
D11*
X120000000Y-94037500D03*
D10*
G36*
X120277691Y-92026053D02*
X120298926Y-92029203D01*
X120319750Y-92034419D01*
X120339962Y-92041651D01*
X120359368Y-92050830D01*
X120377781Y-92061866D01*
X120395024Y-92074654D01*
X120410930Y-92089070D01*
X120425346Y-92104976D01*
X120438134Y-92122219D01*
X120449170Y-92140632D01*
X120458349Y-92160038D01*
X120465581Y-92180250D01*
X120470797Y-92201074D01*
X120473947Y-92222309D01*
X120475000Y-92243750D01*
X120475000Y-92681250D01*
X120473947Y-92702691D01*
X120470797Y-92723926D01*
X120465581Y-92744750D01*
X120458349Y-92764962D01*
X120449170Y-92784368D01*
X120438134Y-92802781D01*
X120425346Y-92820024D01*
X120410930Y-92835930D01*
X120395024Y-92850346D01*
X120377781Y-92863134D01*
X120359368Y-92874170D01*
X120339962Y-92883349D01*
X120319750Y-92890581D01*
X120298926Y-92895797D01*
X120277691Y-92898947D01*
X120256250Y-92900000D01*
X119743750Y-92900000D01*
X119722309Y-92898947D01*
X119701074Y-92895797D01*
X119680250Y-92890581D01*
X119660038Y-92883349D01*
X119640632Y-92874170D01*
X119622219Y-92863134D01*
X119604976Y-92850346D01*
X119589070Y-92835930D01*
X119574654Y-92820024D01*
X119561866Y-92802781D01*
X119550830Y-92784368D01*
X119541651Y-92764962D01*
X119534419Y-92744750D01*
X119529203Y-92723926D01*
X119526053Y-92702691D01*
X119525000Y-92681250D01*
X119525000Y-92243750D01*
X119526053Y-92222309D01*
X119529203Y-92201074D01*
X119534419Y-92180250D01*
X119541651Y-92160038D01*
X119550830Y-92140632D01*
X119561866Y-92122219D01*
X119574654Y-92104976D01*
X119589070Y-92089070D01*
X119604976Y-92074654D01*
X119622219Y-92061866D01*
X119640632Y-92050830D01*
X119660038Y-92041651D01*
X119680250Y-92034419D01*
X119701074Y-92029203D01*
X119722309Y-92026053D01*
X119743750Y-92025000D01*
X120256250Y-92025000D01*
X120277691Y-92026053D01*
X120277691Y-92026053D01*
G37*
D11*
X120000000Y-92462500D03*
G04 #@! TD*
D10*
G04 #@! TO.C,R2*
G36*
X122027691Y-92026053D02*
X122048926Y-92029203D01*
X122069750Y-92034419D01*
X122089962Y-92041651D01*
X122109368Y-92050830D01*
X122127781Y-92061866D01*
X122145024Y-92074654D01*
X122160930Y-92089070D01*
X122175346Y-92104976D01*
X122188134Y-92122219D01*
X122199170Y-92140632D01*
X122208349Y-92160038D01*
X122215581Y-92180250D01*
X122220797Y-92201074D01*
X122223947Y-92222309D01*
X122225000Y-92243750D01*
X122225000Y-92681250D01*
X122223947Y-92702691D01*
X122220797Y-92723926D01*
X122215581Y-92744750D01*
X122208349Y-92764962D01*
X122199170Y-92784368D01*
X122188134Y-92802781D01*
X122175346Y-92820024D01*
X122160930Y-92835930D01*
X122145024Y-92850346D01*
X122127781Y-92863134D01*
X122109368Y-92874170D01*
X122089962Y-92883349D01*
X122069750Y-92890581D01*
X122048926Y-92895797D01*
X122027691Y-92898947D01*
X122006250Y-92900000D01*
X121493750Y-92900000D01*
X121472309Y-92898947D01*
X121451074Y-92895797D01*
X121430250Y-92890581D01*
X121410038Y-92883349D01*
X121390632Y-92874170D01*
X121372219Y-92863134D01*
X121354976Y-92850346D01*
X121339070Y-92835930D01*
X121324654Y-92820024D01*
X121311866Y-92802781D01*
X121300830Y-92784368D01*
X121291651Y-92764962D01*
X121284419Y-92744750D01*
X121279203Y-92723926D01*
X121276053Y-92702691D01*
X121275000Y-92681250D01*
X121275000Y-92243750D01*
X121276053Y-92222309D01*
X121279203Y-92201074D01*
X121284419Y-92180250D01*
X121291651Y-92160038D01*
X121300830Y-92140632D01*
X121311866Y-92122219D01*
X121324654Y-92104976D01*
X121339070Y-92089070D01*
X121354976Y-92074654D01*
X121372219Y-92061866D01*
X121390632Y-92050830D01*
X121410038Y-92041651D01*
X121430250Y-92034419D01*
X121451074Y-92029203D01*
X121472309Y-92026053D01*
X121493750Y-92025000D01*
X122006250Y-92025000D01*
X122027691Y-92026053D01*
X122027691Y-92026053D01*
G37*
D11*
X121750000Y-92462500D03*
D10*
G36*
X122027691Y-93601053D02*
X122048926Y-93604203D01*
X122069750Y-93609419D01*
X122089962Y-93616651D01*
X122109368Y-93625830D01*
X122127781Y-93636866D01*
X122145024Y-93649654D01*
X122160930Y-93664070D01*
X122175346Y-93679976D01*
X122188134Y-93697219D01*
X122199170Y-93715632D01*
X122208349Y-93735038D01*
X122215581Y-93755250D01*
X122220797Y-93776074D01*
X122223947Y-93797309D01*
X122225000Y-93818750D01*
X122225000Y-94256250D01*
X122223947Y-94277691D01*
X122220797Y-94298926D01*
X122215581Y-94319750D01*
X122208349Y-94339962D01*
X122199170Y-94359368D01*
X122188134Y-94377781D01*
X122175346Y-94395024D01*
X122160930Y-94410930D01*
X122145024Y-94425346D01*
X122127781Y-94438134D01*
X122109368Y-94449170D01*
X122089962Y-94458349D01*
X122069750Y-94465581D01*
X122048926Y-94470797D01*
X122027691Y-94473947D01*
X122006250Y-94475000D01*
X121493750Y-94475000D01*
X121472309Y-94473947D01*
X121451074Y-94470797D01*
X121430250Y-94465581D01*
X121410038Y-94458349D01*
X121390632Y-94449170D01*
X121372219Y-94438134D01*
X121354976Y-94425346D01*
X121339070Y-94410930D01*
X121324654Y-94395024D01*
X121311866Y-94377781D01*
X121300830Y-94359368D01*
X121291651Y-94339962D01*
X121284419Y-94319750D01*
X121279203Y-94298926D01*
X121276053Y-94277691D01*
X121275000Y-94256250D01*
X121275000Y-93818750D01*
X121276053Y-93797309D01*
X121279203Y-93776074D01*
X121284419Y-93755250D01*
X121291651Y-93735038D01*
X121300830Y-93715632D01*
X121311866Y-93697219D01*
X121324654Y-93679976D01*
X121339070Y-93664070D01*
X121354976Y-93649654D01*
X121372219Y-93636866D01*
X121390632Y-93625830D01*
X121410038Y-93616651D01*
X121430250Y-93609419D01*
X121451074Y-93604203D01*
X121472309Y-93601053D01*
X121493750Y-93600000D01*
X122006250Y-93600000D01*
X122027691Y-93601053D01*
X122027691Y-93601053D01*
G37*
D11*
X121750000Y-94037500D03*
G04 #@! TD*
D10*
G04 #@! TO.C,R3*
G36*
X118527691Y-87101053D02*
X118548926Y-87104203D01*
X118569750Y-87109419D01*
X118589962Y-87116651D01*
X118609368Y-87125830D01*
X118627781Y-87136866D01*
X118645024Y-87149654D01*
X118660930Y-87164070D01*
X118675346Y-87179976D01*
X118688134Y-87197219D01*
X118699170Y-87215632D01*
X118708349Y-87235038D01*
X118715581Y-87255250D01*
X118720797Y-87276074D01*
X118723947Y-87297309D01*
X118725000Y-87318750D01*
X118725000Y-87756250D01*
X118723947Y-87777691D01*
X118720797Y-87798926D01*
X118715581Y-87819750D01*
X118708349Y-87839962D01*
X118699170Y-87859368D01*
X118688134Y-87877781D01*
X118675346Y-87895024D01*
X118660930Y-87910930D01*
X118645024Y-87925346D01*
X118627781Y-87938134D01*
X118609368Y-87949170D01*
X118589962Y-87958349D01*
X118569750Y-87965581D01*
X118548926Y-87970797D01*
X118527691Y-87973947D01*
X118506250Y-87975000D01*
X117993750Y-87975000D01*
X117972309Y-87973947D01*
X117951074Y-87970797D01*
X117930250Y-87965581D01*
X117910038Y-87958349D01*
X117890632Y-87949170D01*
X117872219Y-87938134D01*
X117854976Y-87925346D01*
X117839070Y-87910930D01*
X117824654Y-87895024D01*
X117811866Y-87877781D01*
X117800830Y-87859368D01*
X117791651Y-87839962D01*
X117784419Y-87819750D01*
X117779203Y-87798926D01*
X117776053Y-87777691D01*
X117775000Y-87756250D01*
X117775000Y-87318750D01*
X117776053Y-87297309D01*
X117779203Y-87276074D01*
X117784419Y-87255250D01*
X117791651Y-87235038D01*
X117800830Y-87215632D01*
X117811866Y-87197219D01*
X117824654Y-87179976D01*
X117839070Y-87164070D01*
X117854976Y-87149654D01*
X117872219Y-87136866D01*
X117890632Y-87125830D01*
X117910038Y-87116651D01*
X117930250Y-87109419D01*
X117951074Y-87104203D01*
X117972309Y-87101053D01*
X117993750Y-87100000D01*
X118506250Y-87100000D01*
X118527691Y-87101053D01*
X118527691Y-87101053D01*
G37*
D11*
X118250000Y-87537500D03*
D10*
G36*
X118527691Y-85526053D02*
X118548926Y-85529203D01*
X118569750Y-85534419D01*
X118589962Y-85541651D01*
X118609368Y-85550830D01*
X118627781Y-85561866D01*
X118645024Y-85574654D01*
X118660930Y-85589070D01*
X118675346Y-85604976D01*
X118688134Y-85622219D01*
X118699170Y-85640632D01*
X118708349Y-85660038D01*
X118715581Y-85680250D01*
X118720797Y-85701074D01*
X118723947Y-85722309D01*
X118725000Y-85743750D01*
X118725000Y-86181250D01*
X118723947Y-86202691D01*
X118720797Y-86223926D01*
X118715581Y-86244750D01*
X118708349Y-86264962D01*
X118699170Y-86284368D01*
X118688134Y-86302781D01*
X118675346Y-86320024D01*
X118660930Y-86335930D01*
X118645024Y-86350346D01*
X118627781Y-86363134D01*
X118609368Y-86374170D01*
X118589962Y-86383349D01*
X118569750Y-86390581D01*
X118548926Y-86395797D01*
X118527691Y-86398947D01*
X118506250Y-86400000D01*
X117993750Y-86400000D01*
X117972309Y-86398947D01*
X117951074Y-86395797D01*
X117930250Y-86390581D01*
X117910038Y-86383349D01*
X117890632Y-86374170D01*
X117872219Y-86363134D01*
X117854976Y-86350346D01*
X117839070Y-86335930D01*
X117824654Y-86320024D01*
X117811866Y-86302781D01*
X117800830Y-86284368D01*
X117791651Y-86264962D01*
X117784419Y-86244750D01*
X117779203Y-86223926D01*
X117776053Y-86202691D01*
X117775000Y-86181250D01*
X117775000Y-85743750D01*
X117776053Y-85722309D01*
X117779203Y-85701074D01*
X117784419Y-85680250D01*
X117791651Y-85660038D01*
X117800830Y-85640632D01*
X117811866Y-85622219D01*
X117824654Y-85604976D01*
X117839070Y-85589070D01*
X117854976Y-85574654D01*
X117872219Y-85561866D01*
X117890632Y-85550830D01*
X117910038Y-85541651D01*
X117930250Y-85534419D01*
X117951074Y-85529203D01*
X117972309Y-85526053D01*
X117993750Y-85525000D01*
X118506250Y-85525000D01*
X118527691Y-85526053D01*
X118527691Y-85526053D01*
G37*
D11*
X118250000Y-85962500D03*
G04 #@! TD*
D10*
G04 #@! TO.C,R4*
G36*
X120277691Y-87101053D02*
X120298926Y-87104203D01*
X120319750Y-87109419D01*
X120339962Y-87116651D01*
X120359368Y-87125830D01*
X120377781Y-87136866D01*
X120395024Y-87149654D01*
X120410930Y-87164070D01*
X120425346Y-87179976D01*
X120438134Y-87197219D01*
X120449170Y-87215632D01*
X120458349Y-87235038D01*
X120465581Y-87255250D01*
X120470797Y-87276074D01*
X120473947Y-87297309D01*
X120475000Y-87318750D01*
X120475000Y-87756250D01*
X120473947Y-87777691D01*
X120470797Y-87798926D01*
X120465581Y-87819750D01*
X120458349Y-87839962D01*
X120449170Y-87859368D01*
X120438134Y-87877781D01*
X120425346Y-87895024D01*
X120410930Y-87910930D01*
X120395024Y-87925346D01*
X120377781Y-87938134D01*
X120359368Y-87949170D01*
X120339962Y-87958349D01*
X120319750Y-87965581D01*
X120298926Y-87970797D01*
X120277691Y-87973947D01*
X120256250Y-87975000D01*
X119743750Y-87975000D01*
X119722309Y-87973947D01*
X119701074Y-87970797D01*
X119680250Y-87965581D01*
X119660038Y-87958349D01*
X119640632Y-87949170D01*
X119622219Y-87938134D01*
X119604976Y-87925346D01*
X119589070Y-87910930D01*
X119574654Y-87895024D01*
X119561866Y-87877781D01*
X119550830Y-87859368D01*
X119541651Y-87839962D01*
X119534419Y-87819750D01*
X119529203Y-87798926D01*
X119526053Y-87777691D01*
X119525000Y-87756250D01*
X119525000Y-87318750D01*
X119526053Y-87297309D01*
X119529203Y-87276074D01*
X119534419Y-87255250D01*
X119541651Y-87235038D01*
X119550830Y-87215632D01*
X119561866Y-87197219D01*
X119574654Y-87179976D01*
X119589070Y-87164070D01*
X119604976Y-87149654D01*
X119622219Y-87136866D01*
X119640632Y-87125830D01*
X119660038Y-87116651D01*
X119680250Y-87109419D01*
X119701074Y-87104203D01*
X119722309Y-87101053D01*
X119743750Y-87100000D01*
X120256250Y-87100000D01*
X120277691Y-87101053D01*
X120277691Y-87101053D01*
G37*
D11*
X120000000Y-87537500D03*
D10*
G36*
X120277691Y-85526053D02*
X120298926Y-85529203D01*
X120319750Y-85534419D01*
X120339962Y-85541651D01*
X120359368Y-85550830D01*
X120377781Y-85561866D01*
X120395024Y-85574654D01*
X120410930Y-85589070D01*
X120425346Y-85604976D01*
X120438134Y-85622219D01*
X120449170Y-85640632D01*
X120458349Y-85660038D01*
X120465581Y-85680250D01*
X120470797Y-85701074D01*
X120473947Y-85722309D01*
X120475000Y-85743750D01*
X120475000Y-86181250D01*
X120473947Y-86202691D01*
X120470797Y-86223926D01*
X120465581Y-86244750D01*
X120458349Y-86264962D01*
X120449170Y-86284368D01*
X120438134Y-86302781D01*
X120425346Y-86320024D01*
X120410930Y-86335930D01*
X120395024Y-86350346D01*
X120377781Y-86363134D01*
X120359368Y-86374170D01*
X120339962Y-86383349D01*
X120319750Y-86390581D01*
X120298926Y-86395797D01*
X120277691Y-86398947D01*
X120256250Y-86400000D01*
X119743750Y-86400000D01*
X119722309Y-86398947D01*
X119701074Y-86395797D01*
X119680250Y-86390581D01*
X119660038Y-86383349D01*
X119640632Y-86374170D01*
X119622219Y-86363134D01*
X119604976Y-86350346D01*
X119589070Y-86335930D01*
X119574654Y-86320024D01*
X119561866Y-86302781D01*
X119550830Y-86284368D01*
X119541651Y-86264962D01*
X119534419Y-86244750D01*
X119529203Y-86223926D01*
X119526053Y-86202691D01*
X119525000Y-86181250D01*
X119525000Y-85743750D01*
X119526053Y-85722309D01*
X119529203Y-85701074D01*
X119534419Y-85680250D01*
X119541651Y-85660038D01*
X119550830Y-85640632D01*
X119561866Y-85622219D01*
X119574654Y-85604976D01*
X119589070Y-85589070D01*
X119604976Y-85574654D01*
X119622219Y-85561866D01*
X119640632Y-85550830D01*
X119660038Y-85541651D01*
X119680250Y-85534419D01*
X119701074Y-85529203D01*
X119722309Y-85526053D01*
X119743750Y-85525000D01*
X120256250Y-85525000D01*
X120277691Y-85526053D01*
X120277691Y-85526053D01*
G37*
D11*
X120000000Y-85962500D03*
G04 #@! TD*
D10*
G04 #@! TO.C,R5*
G36*
X131777691Y-86676053D02*
X131798926Y-86679203D01*
X131819750Y-86684419D01*
X131839962Y-86691651D01*
X131859368Y-86700830D01*
X131877781Y-86711866D01*
X131895024Y-86724654D01*
X131910930Y-86739070D01*
X131925346Y-86754976D01*
X131938134Y-86772219D01*
X131949170Y-86790632D01*
X131958349Y-86810038D01*
X131965581Y-86830250D01*
X131970797Y-86851074D01*
X131973947Y-86872309D01*
X131975000Y-86893750D01*
X131975000Y-87331250D01*
X131973947Y-87352691D01*
X131970797Y-87373926D01*
X131965581Y-87394750D01*
X131958349Y-87414962D01*
X131949170Y-87434368D01*
X131938134Y-87452781D01*
X131925346Y-87470024D01*
X131910930Y-87485930D01*
X131895024Y-87500346D01*
X131877781Y-87513134D01*
X131859368Y-87524170D01*
X131839962Y-87533349D01*
X131819750Y-87540581D01*
X131798926Y-87545797D01*
X131777691Y-87548947D01*
X131756250Y-87550000D01*
X131243750Y-87550000D01*
X131222309Y-87548947D01*
X131201074Y-87545797D01*
X131180250Y-87540581D01*
X131160038Y-87533349D01*
X131140632Y-87524170D01*
X131122219Y-87513134D01*
X131104976Y-87500346D01*
X131089070Y-87485930D01*
X131074654Y-87470024D01*
X131061866Y-87452781D01*
X131050830Y-87434368D01*
X131041651Y-87414962D01*
X131034419Y-87394750D01*
X131029203Y-87373926D01*
X131026053Y-87352691D01*
X131025000Y-87331250D01*
X131025000Y-86893750D01*
X131026053Y-86872309D01*
X131029203Y-86851074D01*
X131034419Y-86830250D01*
X131041651Y-86810038D01*
X131050830Y-86790632D01*
X131061866Y-86772219D01*
X131074654Y-86754976D01*
X131089070Y-86739070D01*
X131104976Y-86724654D01*
X131122219Y-86711866D01*
X131140632Y-86700830D01*
X131160038Y-86691651D01*
X131180250Y-86684419D01*
X131201074Y-86679203D01*
X131222309Y-86676053D01*
X131243750Y-86675000D01*
X131756250Y-86675000D01*
X131777691Y-86676053D01*
X131777691Y-86676053D01*
G37*
D11*
X131500000Y-87112500D03*
D10*
G36*
X131777691Y-88251053D02*
X131798926Y-88254203D01*
X131819750Y-88259419D01*
X131839962Y-88266651D01*
X131859368Y-88275830D01*
X131877781Y-88286866D01*
X131895024Y-88299654D01*
X131910930Y-88314070D01*
X131925346Y-88329976D01*
X131938134Y-88347219D01*
X131949170Y-88365632D01*
X131958349Y-88385038D01*
X131965581Y-88405250D01*
X131970797Y-88426074D01*
X131973947Y-88447309D01*
X131975000Y-88468750D01*
X131975000Y-88906250D01*
X131973947Y-88927691D01*
X131970797Y-88948926D01*
X131965581Y-88969750D01*
X131958349Y-88989962D01*
X131949170Y-89009368D01*
X131938134Y-89027781D01*
X131925346Y-89045024D01*
X131910930Y-89060930D01*
X131895024Y-89075346D01*
X131877781Y-89088134D01*
X131859368Y-89099170D01*
X131839962Y-89108349D01*
X131819750Y-89115581D01*
X131798926Y-89120797D01*
X131777691Y-89123947D01*
X131756250Y-89125000D01*
X131243750Y-89125000D01*
X131222309Y-89123947D01*
X131201074Y-89120797D01*
X131180250Y-89115581D01*
X131160038Y-89108349D01*
X131140632Y-89099170D01*
X131122219Y-89088134D01*
X131104976Y-89075346D01*
X131089070Y-89060930D01*
X131074654Y-89045024D01*
X131061866Y-89027781D01*
X131050830Y-89009368D01*
X131041651Y-88989962D01*
X131034419Y-88969750D01*
X131029203Y-88948926D01*
X131026053Y-88927691D01*
X131025000Y-88906250D01*
X131025000Y-88468750D01*
X131026053Y-88447309D01*
X131029203Y-88426074D01*
X131034419Y-88405250D01*
X131041651Y-88385038D01*
X131050830Y-88365632D01*
X131061866Y-88347219D01*
X131074654Y-88329976D01*
X131089070Y-88314070D01*
X131104976Y-88299654D01*
X131122219Y-88286866D01*
X131140632Y-88275830D01*
X131160038Y-88266651D01*
X131180250Y-88259419D01*
X131201074Y-88254203D01*
X131222309Y-88251053D01*
X131243750Y-88250000D01*
X131756250Y-88250000D01*
X131777691Y-88251053D01*
X131777691Y-88251053D01*
G37*
D11*
X131500000Y-88687500D03*
G04 #@! TD*
D10*
G04 #@! TO.C,R6*
G36*
X133677691Y-92176053D02*
X133698926Y-92179203D01*
X133719750Y-92184419D01*
X133739962Y-92191651D01*
X133759368Y-92200830D01*
X133777781Y-92211866D01*
X133795024Y-92224654D01*
X133810930Y-92239070D01*
X133825346Y-92254976D01*
X133838134Y-92272219D01*
X133849170Y-92290632D01*
X133858349Y-92310038D01*
X133865581Y-92330250D01*
X133870797Y-92351074D01*
X133873947Y-92372309D01*
X133875000Y-92393750D01*
X133875000Y-92831250D01*
X133873947Y-92852691D01*
X133870797Y-92873926D01*
X133865581Y-92894750D01*
X133858349Y-92914962D01*
X133849170Y-92934368D01*
X133838134Y-92952781D01*
X133825346Y-92970024D01*
X133810930Y-92985930D01*
X133795024Y-93000346D01*
X133777781Y-93013134D01*
X133759368Y-93024170D01*
X133739962Y-93033349D01*
X133719750Y-93040581D01*
X133698926Y-93045797D01*
X133677691Y-93048947D01*
X133656250Y-93050000D01*
X133143750Y-93050000D01*
X133122309Y-93048947D01*
X133101074Y-93045797D01*
X133080250Y-93040581D01*
X133060038Y-93033349D01*
X133040632Y-93024170D01*
X133022219Y-93013134D01*
X133004976Y-93000346D01*
X132989070Y-92985930D01*
X132974654Y-92970024D01*
X132961866Y-92952781D01*
X132950830Y-92934368D01*
X132941651Y-92914962D01*
X132934419Y-92894750D01*
X132929203Y-92873926D01*
X132926053Y-92852691D01*
X132925000Y-92831250D01*
X132925000Y-92393750D01*
X132926053Y-92372309D01*
X132929203Y-92351074D01*
X132934419Y-92330250D01*
X132941651Y-92310038D01*
X132950830Y-92290632D01*
X132961866Y-92272219D01*
X132974654Y-92254976D01*
X132989070Y-92239070D01*
X133004976Y-92224654D01*
X133022219Y-92211866D01*
X133040632Y-92200830D01*
X133060038Y-92191651D01*
X133080250Y-92184419D01*
X133101074Y-92179203D01*
X133122309Y-92176053D01*
X133143750Y-92175000D01*
X133656250Y-92175000D01*
X133677691Y-92176053D01*
X133677691Y-92176053D01*
G37*
D11*
X133400000Y-92612500D03*
D10*
G36*
X133677691Y-93751053D02*
X133698926Y-93754203D01*
X133719750Y-93759419D01*
X133739962Y-93766651D01*
X133759368Y-93775830D01*
X133777781Y-93786866D01*
X133795024Y-93799654D01*
X133810930Y-93814070D01*
X133825346Y-93829976D01*
X133838134Y-93847219D01*
X133849170Y-93865632D01*
X133858349Y-93885038D01*
X133865581Y-93905250D01*
X133870797Y-93926074D01*
X133873947Y-93947309D01*
X133875000Y-93968750D01*
X133875000Y-94406250D01*
X133873947Y-94427691D01*
X133870797Y-94448926D01*
X133865581Y-94469750D01*
X133858349Y-94489962D01*
X133849170Y-94509368D01*
X133838134Y-94527781D01*
X133825346Y-94545024D01*
X133810930Y-94560930D01*
X133795024Y-94575346D01*
X133777781Y-94588134D01*
X133759368Y-94599170D01*
X133739962Y-94608349D01*
X133719750Y-94615581D01*
X133698926Y-94620797D01*
X133677691Y-94623947D01*
X133656250Y-94625000D01*
X133143750Y-94625000D01*
X133122309Y-94623947D01*
X133101074Y-94620797D01*
X133080250Y-94615581D01*
X133060038Y-94608349D01*
X133040632Y-94599170D01*
X133022219Y-94588134D01*
X133004976Y-94575346D01*
X132989070Y-94560930D01*
X132974654Y-94545024D01*
X132961866Y-94527781D01*
X132950830Y-94509368D01*
X132941651Y-94489962D01*
X132934419Y-94469750D01*
X132929203Y-94448926D01*
X132926053Y-94427691D01*
X132925000Y-94406250D01*
X132925000Y-93968750D01*
X132926053Y-93947309D01*
X132929203Y-93926074D01*
X132934419Y-93905250D01*
X132941651Y-93885038D01*
X132950830Y-93865632D01*
X132961866Y-93847219D01*
X132974654Y-93829976D01*
X132989070Y-93814070D01*
X133004976Y-93799654D01*
X133022219Y-93786866D01*
X133040632Y-93775830D01*
X133060038Y-93766651D01*
X133080250Y-93759419D01*
X133101074Y-93754203D01*
X133122309Y-93751053D01*
X133143750Y-93750000D01*
X133656250Y-93750000D01*
X133677691Y-93751053D01*
X133677691Y-93751053D01*
G37*
D11*
X133400000Y-94187500D03*
G04 #@! TD*
D12*
G04 #@! TO.C,U1*
X124175001Y-86245001D03*
X124175001Y-87515001D03*
X124175001Y-88785001D03*
X124175001Y-90055001D03*
X124175001Y-91325001D03*
X124175001Y-92595001D03*
X124175001Y-93865001D03*
X129575001Y-93865001D03*
X129575001Y-92595001D03*
X129575001Y-91325001D03*
X129575001Y-90055001D03*
X129575001Y-88785001D03*
X129575001Y-87515001D03*
X129575001Y-86245001D03*
G04 #@! TD*
D13*
G04 #@! TO.C,POT1*
X135400000Y-87550000D03*
D14*
X134400000Y-90800000D03*
X136400000Y-90800000D03*
G04 #@! TD*
D15*
G04 #@! TO.C,U2*
X133000000Y-79975000D03*
X132050000Y-77875000D03*
X133950000Y-77875000D03*
G04 #@! TD*
M02*
