G04 #@! TF.GenerationSoftware,KiCad,Pcbnew,5.1.5-1.fc31*
G04 #@! TF.CreationDate,2020-04-13T00:39:46+02:00*
G04 #@! TF.ProjectId,piezo_amplifier,7069657a-6f5f-4616-9d70-6c6966696572,rev?*
G04 #@! TF.SameCoordinates,Original*
G04 #@! TF.FileFunction,Legend,Bot*
G04 #@! TF.FilePolarity,Positive*
%FSLAX46Y46*%
G04 Gerber Fmt 4.6, Leading zero omitted, Abs format (unit mm)*
G04 Created by KiCad (PCBNEW 5.1.5-1.fc31) date 2020-04-13 00:39:46*
%MOMM*%
%LPD*%
G04 APERTURE LIST*
%ADD10C,0.300000*%
%ADD11C,0.010000*%
G04 APERTURE END LIST*
D10*
X114460000Y-66321428D02*
X114460000Y-67821428D01*
X115031428Y-67821428D01*
X115174285Y-67750000D01*
X115245714Y-67678571D01*
X115317142Y-67535714D01*
X115317142Y-67321428D01*
X115245714Y-67178571D01*
X115174285Y-67107142D01*
X115031428Y-67035714D01*
X114460000Y-67035714D01*
X115960000Y-66321428D02*
X115960000Y-67321428D01*
X115960000Y-67821428D02*
X115888571Y-67750000D01*
X115960000Y-67678571D01*
X116031428Y-67750000D01*
X115960000Y-67821428D01*
X115960000Y-67678571D01*
X117245714Y-66392857D02*
X117102857Y-66321428D01*
X116817142Y-66321428D01*
X116674285Y-66392857D01*
X116602857Y-66535714D01*
X116602857Y-67107142D01*
X116674285Y-67250000D01*
X116817142Y-67321428D01*
X117102857Y-67321428D01*
X117245714Y-67250000D01*
X117317142Y-67107142D01*
X117317142Y-66964285D01*
X116602857Y-66821428D01*
X117817142Y-67321428D02*
X118602857Y-67321428D01*
X117817142Y-66321428D01*
X118602857Y-66321428D01*
X119388571Y-66321428D02*
X119245714Y-66392857D01*
X119174285Y-66464285D01*
X119102857Y-66607142D01*
X119102857Y-67035714D01*
X119174285Y-67178571D01*
X119245714Y-67250000D01*
X119388571Y-67321428D01*
X119602857Y-67321428D01*
X119745714Y-67250000D01*
X119817142Y-67178571D01*
X119888571Y-67035714D01*
X119888571Y-66607142D01*
X119817142Y-66464285D01*
X119745714Y-66392857D01*
X119602857Y-66321428D01*
X119388571Y-66321428D01*
X120460000Y-66392857D02*
X120674285Y-66321428D01*
X121031428Y-66321428D01*
X121174285Y-66392857D01*
X121245714Y-66464285D01*
X121317142Y-66607142D01*
X121317142Y-66750000D01*
X121245714Y-66892857D01*
X121174285Y-66964285D01*
X121031428Y-67035714D01*
X120745714Y-67107142D01*
X120602857Y-67178571D01*
X120531428Y-67250000D01*
X120460000Y-67392857D01*
X120460000Y-67535714D01*
X120531428Y-67678571D01*
X120602857Y-67750000D01*
X120745714Y-67821428D01*
X121102857Y-67821428D01*
X121317142Y-67750000D01*
X122602857Y-66321428D02*
X122602857Y-67107142D01*
X122531428Y-67250000D01*
X122388571Y-67321428D01*
X122102857Y-67321428D01*
X121960000Y-67250000D01*
X122602857Y-66392857D02*
X122460000Y-66321428D01*
X122102857Y-66321428D01*
X121960000Y-66392857D01*
X121888571Y-66535714D01*
X121888571Y-66678571D01*
X121960000Y-66821428D01*
X122102857Y-66892857D01*
X122460000Y-66892857D01*
X122602857Y-66964285D01*
X123960000Y-67321428D02*
X123960000Y-66321428D01*
X123317142Y-67321428D02*
X123317142Y-66535714D01*
X123388571Y-66392857D01*
X123531428Y-66321428D01*
X123745714Y-66321428D01*
X123888571Y-66392857D01*
X123960000Y-66464285D01*
X124674285Y-66321428D02*
X124674285Y-67321428D01*
X124674285Y-67035714D02*
X124745714Y-67178571D01*
X124817142Y-67250000D01*
X124960000Y-67321428D01*
X125102857Y-67321428D01*
X126245714Y-67321428D02*
X126245714Y-66321428D01*
X125602857Y-67321428D02*
X125602857Y-66535714D01*
X125674285Y-66392857D01*
X125817142Y-66321428D01*
X126031428Y-66321428D01*
X126174285Y-66392857D01*
X126245714Y-66464285D01*
X126888571Y-66392857D02*
X127031428Y-66321428D01*
X127317142Y-66321428D01*
X127460000Y-66392857D01*
X127531428Y-66535714D01*
X127531428Y-66607142D01*
X127460000Y-66750000D01*
X127317142Y-66821428D01*
X127102857Y-66821428D01*
X126960000Y-66892857D01*
X126888571Y-67035714D01*
X126888571Y-67107142D01*
X126960000Y-67250000D01*
X127102857Y-67321428D01*
X127317142Y-67321428D01*
X127460000Y-67250000D01*
X129102857Y-67821428D02*
X129602857Y-66321428D01*
X130102857Y-67821428D01*
X130531428Y-67678571D02*
X130602857Y-67750000D01*
X130745714Y-67821428D01*
X131102857Y-67821428D01*
X131245714Y-67750000D01*
X131317142Y-67678571D01*
X131388571Y-67535714D01*
X131388571Y-67392857D01*
X131317142Y-67178571D01*
X130460000Y-66321428D01*
X131388571Y-66321428D01*
X132031428Y-66464285D02*
X132102857Y-66392857D01*
X132031428Y-66321428D01*
X131960000Y-66392857D01*
X132031428Y-66464285D01*
X132031428Y-66321428D01*
X133031428Y-67821428D02*
X133174285Y-67821428D01*
X133317142Y-67750000D01*
X133388571Y-67678571D01*
X133460000Y-67535714D01*
X133531428Y-67250000D01*
X133531428Y-66892857D01*
X133460000Y-66607142D01*
X133388571Y-66464285D01*
X133317142Y-66392857D01*
X133174285Y-66321428D01*
X133031428Y-66321428D01*
X132888571Y-66392857D01*
X132817142Y-66464285D01*
X132745714Y-66607142D01*
X132674285Y-66892857D01*
X132674285Y-67250000D01*
X132745714Y-67535714D01*
X132817142Y-67678571D01*
X132888571Y-67750000D01*
X133031428Y-67821428D01*
D11*
G36*
X125137320Y-81818730D02*
G01*
X125254710Y-81818578D01*
X125353764Y-81818275D01*
X125436076Y-81817781D01*
X125503241Y-81817054D01*
X125556853Y-81816054D01*
X125598506Y-81814739D01*
X125629796Y-81813070D01*
X125652317Y-81811005D01*
X125667662Y-81808504D01*
X125677428Y-81805526D01*
X125683207Y-81802030D01*
X125684011Y-81801279D01*
X125689438Y-81789591D01*
X125697265Y-81762577D01*
X125707650Y-81719469D01*
X125720753Y-81659502D01*
X125736733Y-81581908D01*
X125755749Y-81485921D01*
X125777961Y-81370774D01*
X125803526Y-81235700D01*
X125823045Y-81131343D01*
X125846261Y-81007732D01*
X125868311Y-80892310D01*
X125888857Y-80786738D01*
X125907559Y-80692679D01*
X125924080Y-80611792D01*
X125938081Y-80545740D01*
X125949224Y-80496184D01*
X125957171Y-80464785D01*
X125961072Y-80453739D01*
X125974537Y-80444171D01*
X126005614Y-80427859D01*
X126051837Y-80405821D01*
X126110741Y-80379076D01*
X126179861Y-80348642D01*
X126256731Y-80315537D01*
X126338885Y-80280778D01*
X126423859Y-80245386D01*
X126509186Y-80210377D01*
X126592402Y-80176770D01*
X126671041Y-80145583D01*
X126742638Y-80117835D01*
X126804727Y-80094543D01*
X126854843Y-80076726D01*
X126890520Y-80065402D01*
X126909293Y-80061590D01*
X126910324Y-80061691D01*
X126923277Y-80068466D01*
X126952337Y-80086411D01*
X126995900Y-80114459D01*
X127052364Y-80151545D01*
X127120127Y-80196603D01*
X127197584Y-80248566D01*
X127283134Y-80306368D01*
X127375173Y-80368943D01*
X127472099Y-80435226D01*
X127478135Y-80439366D01*
X127593512Y-80518398D01*
X127692528Y-80585927D01*
X127776466Y-80642781D01*
X127846610Y-80689784D01*
X127904244Y-80727764D01*
X127950651Y-80757546D01*
X127987116Y-80779957D01*
X128014922Y-80795822D01*
X128035353Y-80805968D01*
X128049693Y-80811221D01*
X128057867Y-80812458D01*
X128066266Y-80811520D01*
X128076183Y-80807961D01*
X128088827Y-80800659D01*
X128105407Y-80788493D01*
X128127131Y-80770343D01*
X128155208Y-80745086D01*
X128190847Y-80711602D01*
X128235257Y-80668771D01*
X128289646Y-80615471D01*
X128355223Y-80550580D01*
X128433197Y-80472979D01*
X128524777Y-80381546D01*
X128553984Y-80352352D01*
X128655456Y-80250696D01*
X128742388Y-80163123D01*
X128815664Y-80088699D01*
X128876168Y-80026492D01*
X128924784Y-79975568D01*
X128962395Y-79934995D01*
X128989886Y-79903840D01*
X129008139Y-79881169D01*
X129018039Y-79866050D01*
X129020390Y-79859958D01*
X129020978Y-79849283D01*
X129018125Y-79835939D01*
X129010650Y-79817950D01*
X128997368Y-79793339D01*
X128977100Y-79760128D01*
X128948662Y-79716342D01*
X128910871Y-79660003D01*
X128862547Y-79589134D01*
X128830507Y-79542458D01*
X128735795Y-79404639D01*
X128652575Y-79283428D01*
X128580113Y-79177715D01*
X128517675Y-79086392D01*
X128464526Y-79008349D01*
X128419931Y-78942479D01*
X128383156Y-78887673D01*
X128353466Y-78842821D01*
X128330127Y-78806816D01*
X128312405Y-78778549D01*
X128299564Y-78756910D01*
X128290871Y-78740792D01*
X128285591Y-78729086D01*
X128282989Y-78720682D01*
X128282330Y-78715040D01*
X128286399Y-78699607D01*
X128298170Y-78666512D01*
X128316801Y-78617852D01*
X128341452Y-78555722D01*
X128371282Y-78482220D01*
X128405449Y-78399441D01*
X128443113Y-78309481D01*
X128478750Y-78225415D01*
X128529918Y-78106002D01*
X128573529Y-78005582D01*
X128610038Y-77923171D01*
X128639901Y-77857784D01*
X128663575Y-77808438D01*
X128681516Y-77774148D01*
X128694179Y-77753930D01*
X128700149Y-77747622D01*
X128715346Y-77742529D01*
X128750014Y-77733978D01*
X128802436Y-77722319D01*
X128870899Y-77707903D01*
X128953686Y-77691080D01*
X129049082Y-77672200D01*
X129155372Y-77651614D01*
X129270841Y-77629673D01*
X129350776Y-77614706D01*
X129464202Y-77593544D01*
X129571478Y-77573442D01*
X129670707Y-77554761D01*
X129759992Y-77537861D01*
X129837434Y-77523105D01*
X129901137Y-77510854D01*
X129949203Y-77501470D01*
X129979735Y-77495313D01*
X129990690Y-77492816D01*
X129993587Y-77488042D01*
X129996077Y-77475197D01*
X129998186Y-77452916D01*
X129999943Y-77419833D01*
X130001375Y-77374584D01*
X130002509Y-77315803D01*
X130003371Y-77242126D01*
X130003990Y-77152187D01*
X130004393Y-77044621D01*
X130004607Y-76918064D01*
X130004661Y-76793648D01*
X130004633Y-76654117D01*
X130004523Y-76534559D01*
X130004289Y-76433425D01*
X130003889Y-76349161D01*
X130003281Y-76280217D01*
X130002423Y-76225041D01*
X130001274Y-76182082D01*
X129999792Y-76149788D01*
X129997935Y-76126607D01*
X129995662Y-76110989D01*
X129992930Y-76101382D01*
X129989698Y-76096234D01*
X129985924Y-76093995D01*
X129985826Y-76093964D01*
X129972019Y-76090956D01*
X129939001Y-76084395D01*
X129888721Y-76074653D01*
X129823133Y-76062099D01*
X129744188Y-76047105D01*
X129653839Y-76030043D01*
X129554037Y-76011283D01*
X129446735Y-75991196D01*
X129361829Y-75975356D01*
X129250078Y-75954417D01*
X129144309Y-75934365D01*
X129046482Y-75915585D01*
X128958554Y-75898467D01*
X128882487Y-75883396D01*
X128820240Y-75870761D01*
X128773771Y-75860948D01*
X128745041Y-75854344D01*
X128736304Y-75851727D01*
X128717976Y-75834807D01*
X128700637Y-75808204D01*
X128699311Y-75805478D01*
X128686316Y-75776201D01*
X128667470Y-75731448D01*
X128643711Y-75673618D01*
X128615980Y-75605110D01*
X128585215Y-75528322D01*
X128552355Y-75445652D01*
X128518339Y-75359499D01*
X128484106Y-75272262D01*
X128450595Y-75186340D01*
X128418745Y-75104130D01*
X128389495Y-75028032D01*
X128363785Y-74960443D01*
X128342552Y-74903763D01*
X128326736Y-74860391D01*
X128317277Y-74832723D01*
X128314915Y-74823593D01*
X128320808Y-74803767D01*
X128336660Y-74771749D01*
X128359731Y-74732727D01*
X128376009Y-74707948D01*
X128395921Y-74678841D01*
X128426256Y-74634548D01*
X128465258Y-74577632D01*
X128511169Y-74510658D01*
X128562232Y-74436187D01*
X128616691Y-74356782D01*
X128672790Y-74275007D01*
X128680789Y-74263347D01*
X128736422Y-74182251D01*
X128790189Y-74103854D01*
X128840420Y-74030591D01*
X128885446Y-73964898D01*
X128923597Y-73909211D01*
X128953205Y-73865965D01*
X128972601Y-73837596D01*
X128974864Y-73834278D01*
X128998362Y-73797183D01*
X129016013Y-73764301D01*
X129024795Y-73741426D01*
X129025254Y-73737699D01*
X129018600Y-73725729D01*
X128998449Y-73700985D01*
X128964521Y-73663170D01*
X128916532Y-73611989D01*
X128854200Y-73547145D01*
X128777244Y-73468343D01*
X128685381Y-73375287D01*
X128578329Y-73267681D01*
X128554550Y-73243865D01*
X128455018Y-73144385D01*
X128369494Y-73059260D01*
X128296910Y-72987483D01*
X128236198Y-72928046D01*
X128186291Y-72879941D01*
X128146119Y-72842160D01*
X128114616Y-72813695D01*
X128090712Y-72793537D01*
X128073341Y-72780680D01*
X128061433Y-72774114D01*
X128055335Y-72772712D01*
X128032232Y-72778864D01*
X127997940Y-72795426D01*
X127958232Y-72819554D01*
X127952925Y-72823132D01*
X127929002Y-72839493D01*
X127889462Y-72866582D01*
X127836431Y-72902940D01*
X127772035Y-72947110D01*
X127698398Y-72997633D01*
X127617649Y-73053050D01*
X127531912Y-73111903D01*
X127450878Y-73167539D01*
X127346012Y-73239326D01*
X127257436Y-73299451D01*
X127183891Y-73348715D01*
X127124118Y-73387923D01*
X127076861Y-73417878D01*
X127040859Y-73439383D01*
X127014855Y-73453240D01*
X126997590Y-73460255D01*
X126990295Y-73461525D01*
X126968353Y-73456058D01*
X126929141Y-73440018D01*
X126873824Y-73413949D01*
X126803567Y-73378394D01*
X126736731Y-73343136D01*
X126655042Y-73300073D01*
X126589915Y-73267428D01*
X126539477Y-73244508D01*
X126501856Y-73230620D01*
X126475176Y-73225070D01*
X126457566Y-73227165D01*
X126447277Y-73236005D01*
X126441242Y-73248906D01*
X126428293Y-73278625D01*
X126409742Y-73322085D01*
X126386897Y-73376212D01*
X126361068Y-73437929D01*
X126351349Y-73461275D01*
X126262379Y-73675287D01*
X126457228Y-73772149D01*
X126683678Y-73894910D01*
X126897712Y-74032398D01*
X127034137Y-74132286D01*
X127091890Y-74179521D01*
X127159813Y-74239742D01*
X127234330Y-74309371D01*
X127311863Y-74384831D01*
X127388835Y-74462544D01*
X127461668Y-74538934D01*
X127526784Y-74610422D01*
X127580608Y-74673431D01*
X127601104Y-74699252D01*
X127758369Y-74920081D01*
X127895289Y-75147021D01*
X128012253Y-75381027D01*
X128109649Y-75623051D01*
X128187867Y-75874047D01*
X128247297Y-76134969D01*
X128284274Y-76372839D01*
X128289566Y-76430971D01*
X128293516Y-76505820D01*
X128296126Y-76592620D01*
X128297396Y-76686607D01*
X128297327Y-76783012D01*
X128295921Y-76877072D01*
X128293178Y-76964019D01*
X128289099Y-77039087D01*
X128284123Y-77093941D01*
X128241418Y-77363528D01*
X128178715Y-77625150D01*
X128096023Y-77878788D01*
X127993350Y-78124421D01*
X127870704Y-78362029D01*
X127728093Y-78591593D01*
X127601104Y-78767528D01*
X127553868Y-78825280D01*
X127493647Y-78893204D01*
X127424018Y-78967721D01*
X127348558Y-79045254D01*
X127270845Y-79122225D01*
X127194456Y-79195058D01*
X127122968Y-79260175D01*
X127059958Y-79313998D01*
X127034137Y-79334494D01*
X126812679Y-79491548D01*
X126582763Y-79629201D01*
X126345280Y-79747222D01*
X126101118Y-79845384D01*
X125851168Y-79923457D01*
X125596317Y-79981213D01*
X125337457Y-80018423D01*
X125075474Y-80034857D01*
X124811260Y-80030288D01*
X124545703Y-80004486D01*
X124472627Y-79993649D01*
X124212337Y-79941517D01*
X123960071Y-79869454D01*
X123716178Y-79777639D01*
X123481008Y-79666251D01*
X123254908Y-79535471D01*
X123038229Y-79385478D01*
X122831319Y-79216450D01*
X122674579Y-79069162D01*
X122529144Y-78916942D01*
X122400872Y-78766818D01*
X122286452Y-78614246D01*
X122182571Y-78454680D01*
X122085918Y-78283575D01*
X122047035Y-78207881D01*
X121938009Y-77966380D01*
X121849312Y-77719122D01*
X121780942Y-77467305D01*
X121732896Y-77212126D01*
X121705173Y-76954782D01*
X121697771Y-76696470D01*
X121710687Y-76438388D01*
X121743921Y-76181732D01*
X121797470Y-75927701D01*
X121871331Y-75677491D01*
X121965504Y-75432300D01*
X122051792Y-75247806D01*
X122077878Y-75197709D01*
X122107996Y-75142232D01*
X122140004Y-75085062D01*
X122171760Y-75029887D01*
X122201124Y-74980395D01*
X122225955Y-74940274D01*
X122244111Y-74913212D01*
X122250995Y-74904692D01*
X122261318Y-74907330D01*
X122274277Y-74916762D01*
X122306835Y-74940891D01*
X122335961Y-74949450D01*
X122370271Y-74943909D01*
X122391048Y-74936696D01*
X122443588Y-74916752D01*
X122479075Y-74947910D01*
X122511628Y-74970336D01*
X122546985Y-74978613D01*
X122561610Y-74979068D01*
X122608658Y-74979068D01*
X122616053Y-75032842D01*
X122617211Y-75094296D01*
X122609823Y-75139784D01*
X122602559Y-75173172D01*
X122602956Y-75197326D01*
X122612316Y-75223014D01*
X122622272Y-75242679D01*
X122644642Y-75276569D01*
X122671261Y-75305137D01*
X122682804Y-75313878D01*
X122709592Y-75327420D01*
X122734317Y-75329348D01*
X122759681Y-75323925D01*
X122801876Y-75317637D01*
X122834967Y-75326741D01*
X122865778Y-75352270D01*
X122887000Y-75368672D01*
X122914932Y-75376043D01*
X122943172Y-75377288D01*
X122975388Y-75379231D01*
X122997844Y-75384185D01*
X123003358Y-75387794D01*
X123008378Y-75404045D01*
X123013732Y-75433330D01*
X123016001Y-75450228D01*
X123016728Y-75479534D01*
X123030423Y-75479534D01*
X123035805Y-75474152D01*
X123041186Y-75479534D01*
X123035805Y-75484915D01*
X123030423Y-75479534D01*
X123016728Y-75479534D01*
X123017069Y-75493230D01*
X123007213Y-75533256D01*
X122998454Y-75554174D01*
X122982370Y-75602842D01*
X122983004Y-75646653D01*
X123001141Y-75691554D01*
X123020499Y-75721145D01*
X123053127Y-75766186D01*
X123121321Y-75763714D01*
X123160454Y-75763337D01*
X123186674Y-75767381D01*
X123208507Y-75778344D01*
X123231049Y-75795856D01*
X123261780Y-75817771D01*
X123291564Y-75833248D01*
X123302182Y-75836622D01*
X123326266Y-75847513D01*
X123330819Y-75864775D01*
X123322831Y-75878292D01*
X123314581Y-75894316D01*
X123304414Y-75922524D01*
X123300603Y-75935162D01*
X123283776Y-75973825D01*
X123257555Y-75998036D01*
X123254559Y-75999739D01*
X123216340Y-76022422D01*
X123193866Y-76042123D01*
X123183049Y-76064231D01*
X123179803Y-76094135D01*
X123179729Y-76098390D01*
X123182866Y-76140443D01*
X123191348Y-76182573D01*
X123193592Y-76189873D01*
X123206567Y-76218504D01*
X123226575Y-76239282D01*
X123260302Y-76259062D01*
X123261834Y-76259830D01*
X123299599Y-76282834D01*
X123317404Y-76304452D01*
X123319023Y-76310561D01*
X123330250Y-76337773D01*
X123352628Y-76366037D01*
X123379653Y-76388816D01*
X123404823Y-76399571D01*
X123407723Y-76399746D01*
X123424455Y-76401579D01*
X123422449Y-76410760D01*
X123416249Y-76418580D01*
X123391167Y-76460358D01*
X123377852Y-76513508D01*
X123374830Y-76565923D01*
X123373295Y-76606951D01*
X123368129Y-76630514D01*
X123358686Y-76640417D01*
X123346322Y-76654773D01*
X123342542Y-76673398D01*
X123333070Y-76700652D01*
X123303754Y-76729518D01*
X123302804Y-76730240D01*
X123269979Y-76756958D01*
X123238539Y-76785422D01*
X123232484Y-76791420D01*
X123215137Y-76811032D01*
X123207011Y-76829194D01*
X123205999Y-76854083D01*
X123208779Y-76883322D01*
X123210811Y-76925128D01*
X123208411Y-76964811D01*
X123205153Y-76982139D01*
X123200830Y-77012236D01*
X123206705Y-77041358D01*
X123224691Y-77073186D01*
X123256702Y-77111405D01*
X123290019Y-77145448D01*
X123327508Y-77185531D01*
X123348121Y-77215749D01*
X123353305Y-77234657D01*
X123344763Y-77259988D01*
X123321612Y-77292360D01*
X123287559Y-77327509D01*
X123246316Y-77361175D01*
X123238221Y-77366882D01*
X123223702Y-77377807D01*
X123212966Y-77389963D01*
X123205112Y-77406886D01*
X123199237Y-77432114D01*
X123194439Y-77469182D01*
X123189815Y-77521626D01*
X123186053Y-77571358D01*
X123179418Y-77661318D01*
X123233173Y-77713131D01*
X123268483Y-77749341D01*
X123292840Y-77781714D01*
X123306551Y-77812097D01*
X123908223Y-77812097D01*
X123911608Y-77765663D01*
X123914298Y-77751278D01*
X123934194Y-77679972D01*
X123962356Y-77627395D01*
X124000883Y-77591654D01*
X124051877Y-77570854D01*
X124117439Y-77563103D01*
X124123134Y-77562993D01*
X124177491Y-77566554D01*
X124213379Y-77579107D01*
X124214617Y-77579913D01*
X124276077Y-77629225D01*
X124316934Y-77681796D01*
X124338041Y-77739107D01*
X124340574Y-77799277D01*
X124325355Y-77870497D01*
X124295795Y-77928245D01*
X124254896Y-77971797D01*
X124205661Y-78000428D01*
X124151093Y-78013415D01*
X124094195Y-78010035D01*
X124037968Y-77989562D01*
X123985416Y-77951273D01*
X123940372Y-77895763D01*
X123917209Y-77852129D01*
X123908223Y-77812097D01*
X123306551Y-77812097D01*
X123308149Y-77815638D01*
X123316315Y-77856497D01*
X123319243Y-77909680D01*
X123319204Y-77956428D01*
X123319992Y-78022519D01*
X123325614Y-78071844D01*
X123338193Y-78108993D01*
X123359856Y-78138555D01*
X123392725Y-78165119D01*
X123425194Y-78185358D01*
X123470265Y-78212622D01*
X123519037Y-78243434D01*
X123547033Y-78261823D01*
X123578479Y-78282567D01*
X123622147Y-78310816D01*
X123675380Y-78344901D01*
X123735522Y-78383152D01*
X123799913Y-78423900D01*
X123865898Y-78465475D01*
X123930819Y-78506209D01*
X123992018Y-78544432D01*
X124046838Y-78578474D01*
X124092621Y-78606665D01*
X124126711Y-78627338D01*
X124146449Y-78638822D01*
X124149858Y-78640518D01*
X124162202Y-78647426D01*
X124190694Y-78664667D01*
X124233335Y-78690992D01*
X124288127Y-78725154D01*
X124353072Y-78765905D01*
X124426173Y-78811997D01*
X124505431Y-78862184D01*
X124541803Y-78885281D01*
X124625246Y-78938199D01*
X124705207Y-78988684D01*
X124779374Y-79035295D01*
X124845437Y-79076587D01*
X124901085Y-79111119D01*
X124944006Y-79137447D01*
X124971890Y-79154129D01*
X124977580Y-79157372D01*
X125002580Y-79171961D01*
X125042921Y-79196382D01*
X125095804Y-79228881D01*
X125158429Y-79267703D01*
X125227996Y-79311095D01*
X125301707Y-79357304D01*
X125376760Y-79404573D01*
X125450356Y-79451150D01*
X125519696Y-79495281D01*
X125581979Y-79535211D01*
X125622283Y-79561286D01*
X125690460Y-79603285D01*
X125746206Y-79631647D01*
X125792950Y-79647293D01*
X125834119Y-79651143D01*
X125873141Y-79644115D01*
X125897059Y-79635011D01*
X125942718Y-79618844D01*
X126008593Y-79601789D01*
X126086332Y-79585529D01*
X126134517Y-79572356D01*
X126187504Y-79551705D01*
X126238522Y-79526813D01*
X126280794Y-79500919D01*
X126303878Y-79481536D01*
X126316749Y-79462653D01*
X126334884Y-79427723D01*
X126358566Y-79376076D01*
X126388078Y-79307042D01*
X126423705Y-79219951D01*
X126465728Y-79114134D01*
X126514433Y-78988920D01*
X126535423Y-78934364D01*
X126556362Y-78880776D01*
X126579080Y-78824176D01*
X126599487Y-78774719D01*
X126604261Y-78763461D01*
X126619599Y-78726290D01*
X126630849Y-78696523D01*
X126635852Y-78679912D01*
X126635932Y-78678986D01*
X126640081Y-78662797D01*
X126650191Y-78637324D01*
X126651403Y-78634635D01*
X126676741Y-78577150D01*
X126692329Y-78534395D01*
X126698285Y-78501972D01*
X126694729Y-78475483D01*
X126681782Y-78450529D01*
X126659563Y-78422712D01*
X126657240Y-78420062D01*
X126615968Y-78382361D01*
X126566186Y-78355580D01*
X126502970Y-78337447D01*
X126463728Y-78330762D01*
X126428301Y-78324503D01*
X126382145Y-78314731D01*
X126335687Y-78303669D01*
X126287543Y-78292509D01*
X126238914Y-78282947D01*
X126201643Y-78277231D01*
X126169042Y-78272825D01*
X126145917Y-78268450D01*
X126139829Y-78266447D01*
X126133993Y-78254261D01*
X126125444Y-78226230D01*
X126115501Y-78187651D01*
X126105482Y-78143824D01*
X126096707Y-78100047D01*
X126092864Y-78077759D01*
X126084556Y-78046245D01*
X126068966Y-78022570D01*
X126042837Y-78004802D01*
X126002911Y-77991006D01*
X125945932Y-77979248D01*
X125919847Y-77975022D01*
X125860373Y-77966850D01*
X125797859Y-77959912D01*
X125741792Y-77955196D01*
X125716972Y-77953901D01*
X125676049Y-77951489D01*
X125643807Y-77947697D01*
X125626007Y-77943255D01*
X125624561Y-77942218D01*
X125617982Y-77926898D01*
X125609181Y-77896768D01*
X125599631Y-77858221D01*
X125590805Y-77817653D01*
X125584178Y-77781458D01*
X125581224Y-77756032D01*
X125581186Y-77754012D01*
X125571172Y-77716078D01*
X125543743Y-77685845D01*
X125513886Y-77671060D01*
X125486304Y-77664929D01*
X125443887Y-77658526D01*
X125392044Y-77652345D01*
X125336184Y-77646879D01*
X125281718Y-77642622D01*
X125234055Y-77640067D01*
X125198604Y-77639709D01*
X125184205Y-77640977D01*
X125151307Y-77641627D01*
X125132817Y-77626637D01*
X125127309Y-77598737D01*
X125129378Y-77576788D01*
X125135351Y-77540121D01*
X125144251Y-77493198D01*
X125155100Y-77440482D01*
X125166921Y-77386437D01*
X125178736Y-77335525D01*
X125189569Y-77292209D01*
X125198443Y-77260953D01*
X125204379Y-77246218D01*
X125204538Y-77246040D01*
X125218282Y-77244717D01*
X125247784Y-77249141D01*
X125288305Y-77258480D01*
X125311716Y-77264874D01*
X125373139Y-77281127D01*
X125420875Y-77289887D01*
X125461204Y-77291709D01*
X125500404Y-77287144D01*
X125519358Y-77283152D01*
X125551519Y-77278975D01*
X125567469Y-77285629D01*
X125567790Y-77286099D01*
X125576243Y-77306306D01*
X125586993Y-77342273D01*
X125598619Y-77388560D01*
X125609699Y-77439724D01*
X125614559Y-77465254D01*
X125622865Y-77500657D01*
X125632750Y-77528201D01*
X125638879Y-77538199D01*
X125653967Y-77547002D01*
X125684926Y-77560763D01*
X125727221Y-77577588D01*
X125775595Y-77595327D01*
X125833540Y-77614950D01*
X125877286Y-77627452D01*
X125912481Y-77634039D01*
X125944775Y-77635918D01*
X125963176Y-77635391D01*
X126027665Y-77632076D01*
X126036063Y-77707345D01*
X126043431Y-77752153D01*
X126056117Y-77789942D01*
X126076362Y-77822494D01*
X126106407Y-77851588D01*
X126148495Y-77879002D01*
X126204866Y-77906517D01*
X126277762Y-77935912D01*
X126362640Y-77966597D01*
X126449900Y-77997120D01*
X126483463Y-77968879D01*
X126513827Y-77948384D01*
X126544858Y-77934693D01*
X126549221Y-77933566D01*
X126576630Y-77919474D01*
X126610389Y-77889670D01*
X126647109Y-77847633D01*
X126683399Y-77796845D01*
X126685391Y-77793748D01*
X126698471Y-77774749D01*
X126721944Y-77742079D01*
X126753243Y-77699254D01*
X126789801Y-77649791D01*
X126821589Y-77607164D01*
X126867309Y-77545329D01*
X126900796Y-77496573D01*
X126923042Y-77456992D01*
X126935039Y-77422682D01*
X126937780Y-77389739D01*
X126932258Y-77354259D01*
X126919464Y-77312338D01*
X126905996Y-77275136D01*
X126890472Y-77231896D01*
X126877407Y-77192971D01*
X126869152Y-77165430D01*
X126868171Y-77161405D01*
X126851635Y-77125317D01*
X126819006Y-77084924D01*
X126774027Y-77044275D01*
X126732796Y-77015005D01*
X126701547Y-76994624D01*
X126678161Y-76978381D01*
X126668220Y-76970287D01*
X126656800Y-76960751D01*
X126630101Y-76941082D01*
X126590726Y-76913134D01*
X126541273Y-76878762D01*
X126502728Y-76852331D01*
X126484801Y-76839746D01*
X126454139Y-76817870D01*
X126415428Y-76790056D01*
X126383008Y-76766647D01*
X126335113Y-76732392D01*
X126285533Y-76697599D01*
X126241635Y-76667408D01*
X126221567Y-76653958D01*
X126189056Y-76632018D01*
X126164146Y-76614286D01*
X126151884Y-76604363D01*
X126151610Y-76604027D01*
X126140040Y-76594227D01*
X126116842Y-76577742D01*
X126103177Y-76568651D01*
X126070801Y-76546751D01*
X126031102Y-76518792D01*
X126000932Y-76496886D01*
X125952210Y-76461586D01*
X125892486Y-76419359D01*
X125828742Y-76375102D01*
X125774915Y-76338397D01*
X125750071Y-76320623D01*
X125718535Y-76296800D01*
X125704957Y-76286198D01*
X125667441Y-76259515D01*
X125625971Y-76234174D01*
X125614032Y-76227781D01*
X125588117Y-76215838D01*
X125564443Y-76209337D01*
X125536121Y-76207459D01*
X125496257Y-76209385D01*
X125474116Y-76211156D01*
X125417144Y-76215821D01*
X125361957Y-76220009D01*
X125302387Y-76224152D01*
X125232266Y-76228684D01*
X125166822Y-76232735D01*
X125056238Y-76239633D01*
X124965263Y-76245640D01*
X124892005Y-76250918D01*
X124834571Y-76255627D01*
X124791072Y-76259930D01*
X124759614Y-76263986D01*
X124738307Y-76267957D01*
X124731366Y-76269808D01*
X124704844Y-76275299D01*
X124687751Y-76274141D01*
X124686386Y-76273180D01*
X124676139Y-76252968D01*
X124670989Y-76225326D01*
X124672829Y-76202197D01*
X124674567Y-76198573D01*
X124690975Y-76189249D01*
X124727901Y-76179130D01*
X124784362Y-76168418D01*
X124859373Y-76157317D01*
X124900667Y-76152033D01*
X124940374Y-76146490D01*
X124971857Y-76140853D01*
X124988824Y-76136266D01*
X124989450Y-76135927D01*
X125005795Y-76131276D01*
X125035101Y-76126966D01*
X125051113Y-76125455D01*
X125120493Y-76116521D01*
X125194244Y-76100914D01*
X125268179Y-76080121D01*
X125338108Y-76055634D01*
X125399842Y-76028942D01*
X125449192Y-76001534D01*
X125481967Y-75974900D01*
X125485150Y-75971121D01*
X125499316Y-75943974D01*
X125504629Y-75907519D01*
X125501193Y-75858199D01*
X125490126Y-75797171D01*
X125482312Y-75751538D01*
X125483632Y-75722602D01*
X125495771Y-75706863D01*
X125520415Y-75700823D01*
X125536762Y-75700340D01*
X125560694Y-75699302D01*
X125601375Y-75696323D01*
X125654158Y-75691794D01*
X125714393Y-75686103D01*
X125752127Y-75682299D01*
X125819289Y-75675061D01*
X125868578Y-75668811D01*
X125903579Y-75662798D01*
X125927874Y-75656268D01*
X125945045Y-75648470D01*
X125958235Y-75639025D01*
X125988410Y-75621252D01*
X126030876Y-75610456D01*
X126056362Y-75607280D01*
X126135381Y-75589947D01*
X126179827Y-75569663D01*
X126212290Y-75552845D01*
X126238753Y-75541610D01*
X126250364Y-75538729D01*
X126272208Y-75529541D01*
X126297462Y-75505705D01*
X126322205Y-75472811D01*
X126342516Y-75436452D01*
X126354477Y-75402216D01*
X126356101Y-75387921D01*
X126351479Y-75358970D01*
X126339039Y-75317127D01*
X126320918Y-75268584D01*
X126299256Y-75219531D01*
X126294817Y-75210466D01*
X126275907Y-75169847D01*
X126255290Y-75121531D01*
X126242343Y-75088797D01*
X126226572Y-75048827D01*
X126211271Y-75012942D01*
X126201275Y-74991932D01*
X126188203Y-74964460D01*
X126172651Y-74927874D01*
X126165567Y-74909922D01*
X126138310Y-74858352D01*
X126102808Y-74825854D01*
X126058253Y-74812202D01*
X126003834Y-74817173D01*
X125938742Y-74840542D01*
X125930184Y-74844567D01*
X125881658Y-74869480D01*
X125830674Y-74898120D01*
X125788920Y-74923873D01*
X125748434Y-74949592D01*
X125706958Y-74974183D01*
X125679486Y-74989169D01*
X125651201Y-75005924D01*
X125612089Y-75032211D01*
X125568018Y-75063975D01*
X125537034Y-75087554D01*
X125498337Y-75117310D01*
X125465923Y-75141413D01*
X125443471Y-75157181D01*
X125434879Y-75162034D01*
X125423864Y-75168281D01*
X125400680Y-75184845D01*
X125369851Y-75208455D01*
X125362076Y-75214601D01*
X125305347Y-75255951D01*
X125254584Y-75283638D01*
X125202764Y-75301165D01*
X125177584Y-75306605D01*
X125147603Y-75313680D01*
X125126642Y-75321271D01*
X125123771Y-75323034D01*
X125106891Y-75330113D01*
X125078359Y-75337244D01*
X125069957Y-75338803D01*
X125026626Y-75347135D01*
X124980331Y-75357484D01*
X124936645Y-75368429D01*
X124901141Y-75378548D01*
X124879391Y-75386418D01*
X124876228Y-75388243D01*
X124861302Y-75393986D01*
X124830803Y-75402111D01*
X124790344Y-75411178D01*
X124773983Y-75414481D01*
X124722796Y-75425116D01*
X124671284Y-75436811D01*
X124629383Y-75447296D01*
X124624120Y-75448742D01*
X124568836Y-75460088D01*
X124528205Y-75458051D01*
X124499441Y-75441869D01*
X124479758Y-75410782D01*
X124479060Y-75409068D01*
X124469766Y-75385953D01*
X124464228Y-75367764D01*
X124464518Y-75352643D01*
X124472711Y-75338735D01*
X124490880Y-75324185D01*
X124521096Y-75307137D01*
X124565433Y-75285734D01*
X124625965Y-75258120D01*
X124669797Y-75238308D01*
X124705849Y-75222310D01*
X124733739Y-75210532D01*
X124748186Y-75205193D01*
X124748886Y-75205085D01*
X124760462Y-75200709D01*
X124786749Y-75188978D01*
X124823122Y-75171989D01*
X124843940Y-75162034D01*
X124884507Y-75143073D01*
X124918255Y-75128373D01*
X124940168Y-75120070D01*
X124945042Y-75118983D01*
X124961482Y-75114020D01*
X124992429Y-75100569D01*
X125033678Y-75080782D01*
X125081025Y-75056814D01*
X125130268Y-75030820D01*
X125177201Y-75004952D01*
X125217622Y-74981366D01*
X125235757Y-74970015D01*
X125270303Y-74948505D01*
X125298563Y-74932591D01*
X125315203Y-74925242D01*
X125316477Y-74925058D01*
X125334323Y-74918422D01*
X125361925Y-74901830D01*
X125393032Y-74879719D01*
X125421393Y-74856523D01*
X125440397Y-74837142D01*
X125460707Y-74803924D01*
X125475281Y-74760846D01*
X125478842Y-74745839D01*
X125489602Y-74699437D01*
X125503712Y-74641489D01*
X125520078Y-74576191D01*
X125537608Y-74507739D01*
X125555208Y-74440331D01*
X125571786Y-74378162D01*
X125586249Y-74325429D01*
X125597504Y-74286329D01*
X125603093Y-74268729D01*
X125611857Y-74229659D01*
X125614473Y-74186484D01*
X125610429Y-74150294D01*
X125608807Y-74144958D01*
X125595530Y-74113952D01*
X125578380Y-74092533D01*
X125550515Y-74073110D01*
X125537245Y-74065534D01*
X125479109Y-74043446D01*
X125422366Y-74041702D01*
X125369603Y-74060348D01*
X125365932Y-74062536D01*
X125338160Y-74077320D01*
X125315949Y-74085300D01*
X125312118Y-74085750D01*
X125294908Y-74091072D01*
X125266209Y-74104862D01*
X125236779Y-74121470D01*
X125201729Y-74141879D01*
X125154768Y-74168274D01*
X125103061Y-74196661D01*
X125069957Y-74214471D01*
X124971682Y-74266789D01*
X124866416Y-74322746D01*
X124759862Y-74379315D01*
X124657721Y-74433469D01*
X124565697Y-74482183D01*
X124521059Y-74505773D01*
X124468994Y-74533436D01*
X124419830Y-74559860D01*
X124378758Y-74582236D01*
X124350966Y-74597756D01*
X124348855Y-74598974D01*
X124315540Y-74617308D01*
X124273106Y-74639322D01*
X124239249Y-74656102D01*
X124204752Y-74673804D01*
X124178409Y-74689271D01*
X124165965Y-74699115D01*
X124148635Y-74709708D01*
X124124224Y-74707934D01*
X124101950Y-74695487D01*
X124094611Y-74686006D01*
X124078320Y-74660802D01*
X124066730Y-74646973D01*
X124058576Y-74634258D01*
X124063979Y-74619979D01*
X124076502Y-74605412D01*
X124096856Y-74587209D01*
X124134376Y-74557607D01*
X124188322Y-74517156D01*
X124257956Y-74466405D01*
X124342538Y-74405905D01*
X124385178Y-74375718D01*
X124410423Y-74357802D01*
X124447479Y-74331391D01*
X124490664Y-74300537D01*
X124521059Y-74278780D01*
X124566468Y-74246455D01*
X124610996Y-74215111D01*
X124648393Y-74189131D01*
X124665954Y-74177172D01*
X124689174Y-74159097D01*
X124723981Y-74128813D01*
X124766904Y-74089489D01*
X124814472Y-74044297D01*
X124856992Y-74002617D01*
X124912336Y-73946710D01*
X124953050Y-73903131D01*
X124980421Y-73869713D01*
X124995734Y-73844292D01*
X125000276Y-73824700D01*
X124995332Y-73808772D01*
X124982189Y-73794343D01*
X124981165Y-73793476D01*
X124951045Y-73774766D01*
X124906535Y-73755150D01*
X124854448Y-73737438D01*
X124827796Y-73730200D01*
X124769174Y-73714145D01*
X124708034Y-73694749D01*
X124650194Y-73674095D01*
X124601475Y-73654263D01*
X124567696Y-73637336D01*
X124567014Y-73636920D01*
X124541440Y-73621868D01*
X124524379Y-73613109D01*
X124521458Y-73612203D01*
X124510120Y-73607825D01*
X124483667Y-73595980D01*
X124446347Y-73578607D01*
X124412663Y-73562578D01*
X124364981Y-73540214D01*
X124330426Y-73526069D01*
X124302964Y-73518552D01*
X124276560Y-73516073D01*
X124245179Y-73517041D01*
X124240883Y-73517308D01*
X124190746Y-73523859D01*
X124158081Y-73535655D01*
X124152339Y-73539899D01*
X124126905Y-73555375D01*
X124098746Y-73564823D01*
X124086331Y-73568221D01*
X124072452Y-73574502D01*
X124055216Y-73585179D01*
X124032731Y-73601768D01*
X124003104Y-73625783D01*
X123964443Y-73658739D01*
X123914856Y-73702151D01*
X123852449Y-73757534D01*
X123804248Y-73800551D01*
X123724625Y-73871565D01*
X123659721Y-73929134D01*
X123608332Y-73974297D01*
X123569254Y-74008095D01*
X123541284Y-74031568D01*
X123523220Y-74045757D01*
X123513857Y-74051701D01*
X123513594Y-74051801D01*
X123496655Y-74048440D01*
X123479524Y-74033911D01*
X123471694Y-74016268D01*
X123471694Y-74016256D01*
X123478594Y-74002759D01*
X123498034Y-73975595D01*
X123528131Y-73937070D01*
X123566999Y-73889494D01*
X123612754Y-73835173D01*
X123663509Y-73776415D01*
X123716836Y-73716139D01*
X123758644Y-73665474D01*
X123786681Y-73622739D01*
X123800108Y-73589625D01*
X123798088Y-73567826D01*
X123792781Y-73562662D01*
X123784961Y-73548387D01*
X123783813Y-73538682D01*
X123776492Y-73524280D01*
X123756563Y-73498731D01*
X123727076Y-73465656D01*
X123691410Y-73429000D01*
X123633758Y-73368171D01*
X123593760Y-73316796D01*
X123573612Y-73281250D01*
X123557646Y-73248746D01*
X123544129Y-73231721D01*
X123528231Y-73225395D01*
X123516476Y-73224746D01*
X123495368Y-73230122D01*
X123457323Y-73245761D01*
X123403905Y-73270928D01*
X123336681Y-73304888D01*
X123264228Y-73343136D01*
X123181615Y-73386672D01*
X123113750Y-73420697D01*
X123061601Y-73444757D01*
X123026136Y-73458401D01*
X123011060Y-73461525D01*
X122998836Y-73458695D01*
X122978902Y-73449651D01*
X122949957Y-73433566D01*
X122910698Y-73409610D01*
X122859821Y-73376956D01*
X122796025Y-73334774D01*
X122718006Y-73282235D01*
X122624461Y-73218512D01*
X122565830Y-73178333D01*
X122449080Y-73098193D01*
X122348766Y-73029365D01*
X122263573Y-72970989D01*
X122192182Y-72922204D01*
X122133276Y-72882150D01*
X122085538Y-72849968D01*
X122047651Y-72824798D01*
X122018298Y-72805779D01*
X121996162Y-72792052D01*
X121979925Y-72782756D01*
X121968270Y-72777033D01*
X121959881Y-72774021D01*
X121953439Y-72772861D01*
X121947629Y-72772693D01*
X121944556Y-72772712D01*
X121936096Y-72775172D01*
X121922917Y-72783223D01*
X121903955Y-72797867D01*
X121878147Y-72820111D01*
X121844427Y-72850958D01*
X121801733Y-72891412D01*
X121749001Y-72942478D01*
X121685166Y-73005160D01*
X121609164Y-73080462D01*
X121519933Y-73169389D01*
X121445449Y-73243865D01*
X121335441Y-73354297D01*
X121240661Y-73450131D01*
X121160811Y-73531680D01*
X121095594Y-73599258D01*
X121044712Y-73653175D01*
X121007867Y-73693745D01*
X120984762Y-73721279D01*
X120975098Y-73736091D01*
X120974745Y-73737742D01*
X120980617Y-73758786D01*
X120995762Y-73789225D01*
X121010470Y-73812796D01*
X121024054Y-73832662D01*
X121048357Y-73868166D01*
X121081926Y-73917189D01*
X121123310Y-73977613D01*
X121171060Y-74047321D01*
X121223725Y-74124193D01*
X121279852Y-74206112D01*
X121315383Y-74257966D01*
X121373605Y-74342945D01*
X121429828Y-74425029D01*
X121482501Y-74501954D01*
X121530076Y-74571458D01*
X121571004Y-74631278D01*
X121603737Y-74679149D01*
X121626724Y-74712810D01*
X121634828Y-74724705D01*
X121658338Y-74762269D01*
X121675965Y-74796134D01*
X121684662Y-74820269D01*
X121685084Y-74824205D01*
X121681227Y-74837887D01*
X121670283Y-74869144D01*
X121653190Y-74915577D01*
X121630888Y-74974790D01*
X121604316Y-75044383D01*
X121574414Y-75121959D01*
X121542122Y-75205120D01*
X121508377Y-75291468D01*
X121474121Y-75378605D01*
X121440292Y-75464133D01*
X121407829Y-75545654D01*
X121377672Y-75620770D01*
X121350761Y-75687083D01*
X121328034Y-75742196D01*
X121310431Y-75783709D01*
X121300688Y-75805478D01*
X121283683Y-75832603D01*
X121264617Y-75851162D01*
X121263028Y-75852084D01*
X121248801Y-75856083D01*
X121215366Y-75863575D01*
X121164684Y-75874171D01*
X121098721Y-75887483D01*
X121019440Y-75903123D01*
X120928804Y-75920703D01*
X120828776Y-75939833D01*
X120721321Y-75960126D01*
X120637503Y-75975789D01*
X120525886Y-75996592D01*
X120420295Y-76016347D01*
X120322683Y-76034685D01*
X120235002Y-76051235D01*
X120159208Y-76065626D01*
X120097252Y-76077487D01*
X120051088Y-76086449D01*
X120022670Y-76092140D01*
X120014173Y-76094040D01*
X120010383Y-76096214D01*
X120007137Y-76101261D01*
X120004392Y-76110734D01*
X120002108Y-76126185D01*
X120000241Y-76149165D01*
X119998751Y-76181229D01*
X119997595Y-76223927D01*
X119996732Y-76278813D01*
X119996119Y-76347438D01*
X119995715Y-76431355D01*
X119995478Y-76532117D01*
X119995367Y-76651276D01*
X119995339Y-76790384D01*
X119995339Y-76792675D01*
X119995468Y-76912792D01*
X119995844Y-77026469D01*
X119996441Y-77131892D01*
X119997240Y-77227245D01*
X119998216Y-77310714D01*
X119999348Y-77380485D01*
X120000614Y-77434745D01*
X120001990Y-77471678D01*
X120003456Y-77489470D01*
X120003931Y-77490820D01*
X120015803Y-77493681D01*
X120046961Y-77500050D01*
X120095516Y-77509567D01*
X120159578Y-77521875D01*
X120237257Y-77536613D01*
X120326666Y-77553424D01*
X120425913Y-77571948D01*
X120533111Y-77591827D01*
X120630859Y-77609851D01*
X120752653Y-77632457D01*
X120866263Y-77653949D01*
X120969957Y-77673975D01*
X121062008Y-77692187D01*
X121140685Y-77708235D01*
X121204260Y-77721769D01*
X121251003Y-77732439D01*
X121279185Y-77739894D01*
X121285962Y-77742401D01*
X121294929Y-77747677D01*
X121303675Y-77755081D01*
X121313047Y-77766354D01*
X121323898Y-77783239D01*
X121337077Y-77807480D01*
X121353434Y-77840819D01*
X121373821Y-77885000D01*
X121399086Y-77941766D01*
X121430080Y-78012858D01*
X121467654Y-78100022D01*
X121512657Y-78204998D01*
X121520051Y-78222271D01*
X121560260Y-78316847D01*
X121597717Y-78406165D01*
X121631578Y-78488120D01*
X121660995Y-78560607D01*
X121685123Y-78621523D01*
X121703116Y-78668761D01*
X121714128Y-78700218D01*
X121717372Y-78713193D01*
X121717401Y-78719243D01*
X121716935Y-78725187D01*
X121715149Y-78732287D01*
X121711218Y-78741804D01*
X121704315Y-78755000D01*
X121693616Y-78773138D01*
X121678294Y-78797478D01*
X121657523Y-78829283D01*
X121630479Y-78869814D01*
X121596335Y-78920333D01*
X121554265Y-78982103D01*
X121503444Y-79056384D01*
X121443047Y-79144439D01*
X121372247Y-79247529D01*
X121290218Y-79366916D01*
X121276832Y-79386398D01*
X121207560Y-79487360D01*
X121149627Y-79572186D01*
X121102073Y-79642405D01*
X121063940Y-79699548D01*
X121034267Y-79745144D01*
X121012094Y-79780723D01*
X120996462Y-79807814D01*
X120986411Y-79827947D01*
X120980981Y-79842652D01*
X120979213Y-79853458D01*
X120979718Y-79859958D01*
X120984690Y-79870695D01*
X120997327Y-79888263D01*
X121018522Y-79913604D01*
X121049170Y-79947662D01*
X121090164Y-79991380D01*
X121142396Y-80045701D01*
X121206760Y-80111569D01*
X121284150Y-80189927D01*
X121375459Y-80281719D01*
X121446015Y-80352352D01*
X121541513Y-80447766D01*
X121623052Y-80529043D01*
X121691849Y-80597308D01*
X121749124Y-80653688D01*
X121796095Y-80699307D01*
X121833980Y-80735292D01*
X121863998Y-80762769D01*
X121887367Y-80782863D01*
X121905307Y-80796701D01*
X121919035Y-80805407D01*
X121929770Y-80810108D01*
X121938730Y-80811930D01*
X121943649Y-80812111D01*
X121953893Y-80810398D01*
X121968587Y-80804856D01*
X121989036Y-80794644D01*
X122016549Y-80778921D01*
X122052431Y-80756846D01*
X122097990Y-80727579D01*
X122154533Y-80690278D01*
X122223365Y-80644102D01*
X122305795Y-80588211D01*
X122403128Y-80521763D01*
X122516672Y-80443918D01*
X122529054Y-80435416D01*
X122626446Y-80368754D01*
X122718964Y-80305864D01*
X122805027Y-80247790D01*
X122883052Y-80195581D01*
X122951458Y-80150282D01*
X123008663Y-80112942D01*
X123053085Y-80084606D01*
X123083142Y-80066322D01*
X123097252Y-80059136D01*
X123097746Y-80059068D01*
X123111726Y-80063039D01*
X123143505Y-80074406D01*
X123190982Y-80092349D01*
X123252061Y-80116048D01*
X123324643Y-80144682D01*
X123406629Y-80177432D01*
X123495921Y-80213477D01*
X123570441Y-80243823D01*
X123684929Y-80290829D01*
X123780700Y-80330640D01*
X123859102Y-80363859D01*
X123921482Y-80391092D01*
X123969186Y-80412942D01*
X124003562Y-80430013D01*
X124025956Y-80442910D01*
X124037715Y-80452236D01*
X124039158Y-80454091D01*
X124044359Y-80469553D01*
X124053035Y-80504658D01*
X124064871Y-80557860D01*
X124079552Y-80627613D01*
X124096763Y-80712372D01*
X124116187Y-80810591D01*
X124137511Y-80920724D01*
X124160418Y-81041225D01*
X124177415Y-81131925D01*
X124205640Y-81282464D01*
X124230396Y-81412438D01*
X124251819Y-81522507D01*
X124270047Y-81613328D01*
X124285214Y-81685558D01*
X124297458Y-81739856D01*
X124306916Y-81776880D01*
X124313722Y-81797287D01*
X124316217Y-81801508D01*
X124321450Y-81805067D01*
X124330543Y-81808107D01*
X124345087Y-81810667D01*
X124366671Y-81812788D01*
X124396885Y-81814511D01*
X124437318Y-81815874D01*
X124489561Y-81816920D01*
X124555202Y-81817686D01*
X124635832Y-81818215D01*
X124733040Y-81818545D01*
X124848416Y-81818717D01*
X124983549Y-81818771D01*
X125000000Y-81818771D01*
X125137320Y-81818730D01*
G37*
X125137320Y-81818730D02*
X125254710Y-81818578D01*
X125353764Y-81818275D01*
X125436076Y-81817781D01*
X125503241Y-81817054D01*
X125556853Y-81816054D01*
X125598506Y-81814739D01*
X125629796Y-81813070D01*
X125652317Y-81811005D01*
X125667662Y-81808504D01*
X125677428Y-81805526D01*
X125683207Y-81802030D01*
X125684011Y-81801279D01*
X125689438Y-81789591D01*
X125697265Y-81762577D01*
X125707650Y-81719469D01*
X125720753Y-81659502D01*
X125736733Y-81581908D01*
X125755749Y-81485921D01*
X125777961Y-81370774D01*
X125803526Y-81235700D01*
X125823045Y-81131343D01*
X125846261Y-81007732D01*
X125868311Y-80892310D01*
X125888857Y-80786738D01*
X125907559Y-80692679D01*
X125924080Y-80611792D01*
X125938081Y-80545740D01*
X125949224Y-80496184D01*
X125957171Y-80464785D01*
X125961072Y-80453739D01*
X125974537Y-80444171D01*
X126005614Y-80427859D01*
X126051837Y-80405821D01*
X126110741Y-80379076D01*
X126179861Y-80348642D01*
X126256731Y-80315537D01*
X126338885Y-80280778D01*
X126423859Y-80245386D01*
X126509186Y-80210377D01*
X126592402Y-80176770D01*
X126671041Y-80145583D01*
X126742638Y-80117835D01*
X126804727Y-80094543D01*
X126854843Y-80076726D01*
X126890520Y-80065402D01*
X126909293Y-80061590D01*
X126910324Y-80061691D01*
X126923277Y-80068466D01*
X126952337Y-80086411D01*
X126995900Y-80114459D01*
X127052364Y-80151545D01*
X127120127Y-80196603D01*
X127197584Y-80248566D01*
X127283134Y-80306368D01*
X127375173Y-80368943D01*
X127472099Y-80435226D01*
X127478135Y-80439366D01*
X127593512Y-80518398D01*
X127692528Y-80585927D01*
X127776466Y-80642781D01*
X127846610Y-80689784D01*
X127904244Y-80727764D01*
X127950651Y-80757546D01*
X127987116Y-80779957D01*
X128014922Y-80795822D01*
X128035353Y-80805968D01*
X128049693Y-80811221D01*
X128057867Y-80812458D01*
X128066266Y-80811520D01*
X128076183Y-80807961D01*
X128088827Y-80800659D01*
X128105407Y-80788493D01*
X128127131Y-80770343D01*
X128155208Y-80745086D01*
X128190847Y-80711602D01*
X128235257Y-80668771D01*
X128289646Y-80615471D01*
X128355223Y-80550580D01*
X128433197Y-80472979D01*
X128524777Y-80381546D01*
X128553984Y-80352352D01*
X128655456Y-80250696D01*
X128742388Y-80163123D01*
X128815664Y-80088699D01*
X128876168Y-80026492D01*
X128924784Y-79975568D01*
X128962395Y-79934995D01*
X128989886Y-79903840D01*
X129008139Y-79881169D01*
X129018039Y-79866050D01*
X129020390Y-79859958D01*
X129020978Y-79849283D01*
X129018125Y-79835939D01*
X129010650Y-79817950D01*
X128997368Y-79793339D01*
X128977100Y-79760128D01*
X128948662Y-79716342D01*
X128910871Y-79660003D01*
X128862547Y-79589134D01*
X128830507Y-79542458D01*
X128735795Y-79404639D01*
X128652575Y-79283428D01*
X128580113Y-79177715D01*
X128517675Y-79086392D01*
X128464526Y-79008349D01*
X128419931Y-78942479D01*
X128383156Y-78887673D01*
X128353466Y-78842821D01*
X128330127Y-78806816D01*
X128312405Y-78778549D01*
X128299564Y-78756910D01*
X128290871Y-78740792D01*
X128285591Y-78729086D01*
X128282989Y-78720682D01*
X128282330Y-78715040D01*
X128286399Y-78699607D01*
X128298170Y-78666512D01*
X128316801Y-78617852D01*
X128341452Y-78555722D01*
X128371282Y-78482220D01*
X128405449Y-78399441D01*
X128443113Y-78309481D01*
X128478750Y-78225415D01*
X128529918Y-78106002D01*
X128573529Y-78005582D01*
X128610038Y-77923171D01*
X128639901Y-77857784D01*
X128663575Y-77808438D01*
X128681516Y-77774148D01*
X128694179Y-77753930D01*
X128700149Y-77747622D01*
X128715346Y-77742529D01*
X128750014Y-77733978D01*
X128802436Y-77722319D01*
X128870899Y-77707903D01*
X128953686Y-77691080D01*
X129049082Y-77672200D01*
X129155372Y-77651614D01*
X129270841Y-77629673D01*
X129350776Y-77614706D01*
X129464202Y-77593544D01*
X129571478Y-77573442D01*
X129670707Y-77554761D01*
X129759992Y-77537861D01*
X129837434Y-77523105D01*
X129901137Y-77510854D01*
X129949203Y-77501470D01*
X129979735Y-77495313D01*
X129990690Y-77492816D01*
X129993587Y-77488042D01*
X129996077Y-77475197D01*
X129998186Y-77452916D01*
X129999943Y-77419833D01*
X130001375Y-77374584D01*
X130002509Y-77315803D01*
X130003371Y-77242126D01*
X130003990Y-77152187D01*
X130004393Y-77044621D01*
X130004607Y-76918064D01*
X130004661Y-76793648D01*
X130004633Y-76654117D01*
X130004523Y-76534559D01*
X130004289Y-76433425D01*
X130003889Y-76349161D01*
X130003281Y-76280217D01*
X130002423Y-76225041D01*
X130001274Y-76182082D01*
X129999792Y-76149788D01*
X129997935Y-76126607D01*
X129995662Y-76110989D01*
X129992930Y-76101382D01*
X129989698Y-76096234D01*
X129985924Y-76093995D01*
X129985826Y-76093964D01*
X129972019Y-76090956D01*
X129939001Y-76084395D01*
X129888721Y-76074653D01*
X129823133Y-76062099D01*
X129744188Y-76047105D01*
X129653839Y-76030043D01*
X129554037Y-76011283D01*
X129446735Y-75991196D01*
X129361829Y-75975356D01*
X129250078Y-75954417D01*
X129144309Y-75934365D01*
X129046482Y-75915585D01*
X128958554Y-75898467D01*
X128882487Y-75883396D01*
X128820240Y-75870761D01*
X128773771Y-75860948D01*
X128745041Y-75854344D01*
X128736304Y-75851727D01*
X128717976Y-75834807D01*
X128700637Y-75808204D01*
X128699311Y-75805478D01*
X128686316Y-75776201D01*
X128667470Y-75731448D01*
X128643711Y-75673618D01*
X128615980Y-75605110D01*
X128585215Y-75528322D01*
X128552355Y-75445652D01*
X128518339Y-75359499D01*
X128484106Y-75272262D01*
X128450595Y-75186340D01*
X128418745Y-75104130D01*
X128389495Y-75028032D01*
X128363785Y-74960443D01*
X128342552Y-74903763D01*
X128326736Y-74860391D01*
X128317277Y-74832723D01*
X128314915Y-74823593D01*
X128320808Y-74803767D01*
X128336660Y-74771749D01*
X128359731Y-74732727D01*
X128376009Y-74707948D01*
X128395921Y-74678841D01*
X128426256Y-74634548D01*
X128465258Y-74577632D01*
X128511169Y-74510658D01*
X128562232Y-74436187D01*
X128616691Y-74356782D01*
X128672790Y-74275007D01*
X128680789Y-74263347D01*
X128736422Y-74182251D01*
X128790189Y-74103854D01*
X128840420Y-74030591D01*
X128885446Y-73964898D01*
X128923597Y-73909211D01*
X128953205Y-73865965D01*
X128972601Y-73837596D01*
X128974864Y-73834278D01*
X128998362Y-73797183D01*
X129016013Y-73764301D01*
X129024795Y-73741426D01*
X129025254Y-73737699D01*
X129018600Y-73725729D01*
X128998449Y-73700985D01*
X128964521Y-73663170D01*
X128916532Y-73611989D01*
X128854200Y-73547145D01*
X128777244Y-73468343D01*
X128685381Y-73375287D01*
X128578329Y-73267681D01*
X128554550Y-73243865D01*
X128455018Y-73144385D01*
X128369494Y-73059260D01*
X128296910Y-72987483D01*
X128236198Y-72928046D01*
X128186291Y-72879941D01*
X128146119Y-72842160D01*
X128114616Y-72813695D01*
X128090712Y-72793537D01*
X128073341Y-72780680D01*
X128061433Y-72774114D01*
X128055335Y-72772712D01*
X128032232Y-72778864D01*
X127997940Y-72795426D01*
X127958232Y-72819554D01*
X127952925Y-72823132D01*
X127929002Y-72839493D01*
X127889462Y-72866582D01*
X127836431Y-72902940D01*
X127772035Y-72947110D01*
X127698398Y-72997633D01*
X127617649Y-73053050D01*
X127531912Y-73111903D01*
X127450878Y-73167539D01*
X127346012Y-73239326D01*
X127257436Y-73299451D01*
X127183891Y-73348715D01*
X127124118Y-73387923D01*
X127076861Y-73417878D01*
X127040859Y-73439383D01*
X127014855Y-73453240D01*
X126997590Y-73460255D01*
X126990295Y-73461525D01*
X126968353Y-73456058D01*
X126929141Y-73440018D01*
X126873824Y-73413949D01*
X126803567Y-73378394D01*
X126736731Y-73343136D01*
X126655042Y-73300073D01*
X126589915Y-73267428D01*
X126539477Y-73244508D01*
X126501856Y-73230620D01*
X126475176Y-73225070D01*
X126457566Y-73227165D01*
X126447277Y-73236005D01*
X126441242Y-73248906D01*
X126428293Y-73278625D01*
X126409742Y-73322085D01*
X126386897Y-73376212D01*
X126361068Y-73437929D01*
X126351349Y-73461275D01*
X126262379Y-73675287D01*
X126457228Y-73772149D01*
X126683678Y-73894910D01*
X126897712Y-74032398D01*
X127034137Y-74132286D01*
X127091890Y-74179521D01*
X127159813Y-74239742D01*
X127234330Y-74309371D01*
X127311863Y-74384831D01*
X127388835Y-74462544D01*
X127461668Y-74538934D01*
X127526784Y-74610422D01*
X127580608Y-74673431D01*
X127601104Y-74699252D01*
X127758369Y-74920081D01*
X127895289Y-75147021D01*
X128012253Y-75381027D01*
X128109649Y-75623051D01*
X128187867Y-75874047D01*
X128247297Y-76134969D01*
X128284274Y-76372839D01*
X128289566Y-76430971D01*
X128293516Y-76505820D01*
X128296126Y-76592620D01*
X128297396Y-76686607D01*
X128297327Y-76783012D01*
X128295921Y-76877072D01*
X128293178Y-76964019D01*
X128289099Y-77039087D01*
X128284123Y-77093941D01*
X128241418Y-77363528D01*
X128178715Y-77625150D01*
X128096023Y-77878788D01*
X127993350Y-78124421D01*
X127870704Y-78362029D01*
X127728093Y-78591593D01*
X127601104Y-78767528D01*
X127553868Y-78825280D01*
X127493647Y-78893204D01*
X127424018Y-78967721D01*
X127348558Y-79045254D01*
X127270845Y-79122225D01*
X127194456Y-79195058D01*
X127122968Y-79260175D01*
X127059958Y-79313998D01*
X127034137Y-79334494D01*
X126812679Y-79491548D01*
X126582763Y-79629201D01*
X126345280Y-79747222D01*
X126101118Y-79845384D01*
X125851168Y-79923457D01*
X125596317Y-79981213D01*
X125337457Y-80018423D01*
X125075474Y-80034857D01*
X124811260Y-80030288D01*
X124545703Y-80004486D01*
X124472627Y-79993649D01*
X124212337Y-79941517D01*
X123960071Y-79869454D01*
X123716178Y-79777639D01*
X123481008Y-79666251D01*
X123254908Y-79535471D01*
X123038229Y-79385478D01*
X122831319Y-79216450D01*
X122674579Y-79069162D01*
X122529144Y-78916942D01*
X122400872Y-78766818D01*
X122286452Y-78614246D01*
X122182571Y-78454680D01*
X122085918Y-78283575D01*
X122047035Y-78207881D01*
X121938009Y-77966380D01*
X121849312Y-77719122D01*
X121780942Y-77467305D01*
X121732896Y-77212126D01*
X121705173Y-76954782D01*
X121697771Y-76696470D01*
X121710687Y-76438388D01*
X121743921Y-76181732D01*
X121797470Y-75927701D01*
X121871331Y-75677491D01*
X121965504Y-75432300D01*
X122051792Y-75247806D01*
X122077878Y-75197709D01*
X122107996Y-75142232D01*
X122140004Y-75085062D01*
X122171760Y-75029887D01*
X122201124Y-74980395D01*
X122225955Y-74940274D01*
X122244111Y-74913212D01*
X122250995Y-74904692D01*
X122261318Y-74907330D01*
X122274277Y-74916762D01*
X122306835Y-74940891D01*
X122335961Y-74949450D01*
X122370271Y-74943909D01*
X122391048Y-74936696D01*
X122443588Y-74916752D01*
X122479075Y-74947910D01*
X122511628Y-74970336D01*
X122546985Y-74978613D01*
X122561610Y-74979068D01*
X122608658Y-74979068D01*
X122616053Y-75032842D01*
X122617211Y-75094296D01*
X122609823Y-75139784D01*
X122602559Y-75173172D01*
X122602956Y-75197326D01*
X122612316Y-75223014D01*
X122622272Y-75242679D01*
X122644642Y-75276569D01*
X122671261Y-75305137D01*
X122682804Y-75313878D01*
X122709592Y-75327420D01*
X122734317Y-75329348D01*
X122759681Y-75323925D01*
X122801876Y-75317637D01*
X122834967Y-75326741D01*
X122865778Y-75352270D01*
X122887000Y-75368672D01*
X122914932Y-75376043D01*
X122943172Y-75377288D01*
X122975388Y-75379231D01*
X122997844Y-75384185D01*
X123003358Y-75387794D01*
X123008378Y-75404045D01*
X123013732Y-75433330D01*
X123016001Y-75450228D01*
X123016728Y-75479534D01*
X123030423Y-75479534D01*
X123035805Y-75474152D01*
X123041186Y-75479534D01*
X123035805Y-75484915D01*
X123030423Y-75479534D01*
X123016728Y-75479534D01*
X123017069Y-75493230D01*
X123007213Y-75533256D01*
X122998454Y-75554174D01*
X122982370Y-75602842D01*
X122983004Y-75646653D01*
X123001141Y-75691554D01*
X123020499Y-75721145D01*
X123053127Y-75766186D01*
X123121321Y-75763714D01*
X123160454Y-75763337D01*
X123186674Y-75767381D01*
X123208507Y-75778344D01*
X123231049Y-75795856D01*
X123261780Y-75817771D01*
X123291564Y-75833248D01*
X123302182Y-75836622D01*
X123326266Y-75847513D01*
X123330819Y-75864775D01*
X123322831Y-75878292D01*
X123314581Y-75894316D01*
X123304414Y-75922524D01*
X123300603Y-75935162D01*
X123283776Y-75973825D01*
X123257555Y-75998036D01*
X123254559Y-75999739D01*
X123216340Y-76022422D01*
X123193866Y-76042123D01*
X123183049Y-76064231D01*
X123179803Y-76094135D01*
X123179729Y-76098390D01*
X123182866Y-76140443D01*
X123191348Y-76182573D01*
X123193592Y-76189873D01*
X123206567Y-76218504D01*
X123226575Y-76239282D01*
X123260302Y-76259062D01*
X123261834Y-76259830D01*
X123299599Y-76282834D01*
X123317404Y-76304452D01*
X123319023Y-76310561D01*
X123330250Y-76337773D01*
X123352628Y-76366037D01*
X123379653Y-76388816D01*
X123404823Y-76399571D01*
X123407723Y-76399746D01*
X123424455Y-76401579D01*
X123422449Y-76410760D01*
X123416249Y-76418580D01*
X123391167Y-76460358D01*
X123377852Y-76513508D01*
X123374830Y-76565923D01*
X123373295Y-76606951D01*
X123368129Y-76630514D01*
X123358686Y-76640417D01*
X123346322Y-76654773D01*
X123342542Y-76673398D01*
X123333070Y-76700652D01*
X123303754Y-76729518D01*
X123302804Y-76730240D01*
X123269979Y-76756958D01*
X123238539Y-76785422D01*
X123232484Y-76791420D01*
X123215137Y-76811032D01*
X123207011Y-76829194D01*
X123205999Y-76854083D01*
X123208779Y-76883322D01*
X123210811Y-76925128D01*
X123208411Y-76964811D01*
X123205153Y-76982139D01*
X123200830Y-77012236D01*
X123206705Y-77041358D01*
X123224691Y-77073186D01*
X123256702Y-77111405D01*
X123290019Y-77145448D01*
X123327508Y-77185531D01*
X123348121Y-77215749D01*
X123353305Y-77234657D01*
X123344763Y-77259988D01*
X123321612Y-77292360D01*
X123287559Y-77327509D01*
X123246316Y-77361175D01*
X123238221Y-77366882D01*
X123223702Y-77377807D01*
X123212966Y-77389963D01*
X123205112Y-77406886D01*
X123199237Y-77432114D01*
X123194439Y-77469182D01*
X123189815Y-77521626D01*
X123186053Y-77571358D01*
X123179418Y-77661318D01*
X123233173Y-77713131D01*
X123268483Y-77749341D01*
X123292840Y-77781714D01*
X123306551Y-77812097D01*
X123908223Y-77812097D01*
X123911608Y-77765663D01*
X123914298Y-77751278D01*
X123934194Y-77679972D01*
X123962356Y-77627395D01*
X124000883Y-77591654D01*
X124051877Y-77570854D01*
X124117439Y-77563103D01*
X124123134Y-77562993D01*
X124177491Y-77566554D01*
X124213379Y-77579107D01*
X124214617Y-77579913D01*
X124276077Y-77629225D01*
X124316934Y-77681796D01*
X124338041Y-77739107D01*
X124340574Y-77799277D01*
X124325355Y-77870497D01*
X124295795Y-77928245D01*
X124254896Y-77971797D01*
X124205661Y-78000428D01*
X124151093Y-78013415D01*
X124094195Y-78010035D01*
X124037968Y-77989562D01*
X123985416Y-77951273D01*
X123940372Y-77895763D01*
X123917209Y-77852129D01*
X123908223Y-77812097D01*
X123306551Y-77812097D01*
X123308149Y-77815638D01*
X123316315Y-77856497D01*
X123319243Y-77909680D01*
X123319204Y-77956428D01*
X123319992Y-78022519D01*
X123325614Y-78071844D01*
X123338193Y-78108993D01*
X123359856Y-78138555D01*
X123392725Y-78165119D01*
X123425194Y-78185358D01*
X123470265Y-78212622D01*
X123519037Y-78243434D01*
X123547033Y-78261823D01*
X123578479Y-78282567D01*
X123622147Y-78310816D01*
X123675380Y-78344901D01*
X123735522Y-78383152D01*
X123799913Y-78423900D01*
X123865898Y-78465475D01*
X123930819Y-78506209D01*
X123992018Y-78544432D01*
X124046838Y-78578474D01*
X124092621Y-78606665D01*
X124126711Y-78627338D01*
X124146449Y-78638822D01*
X124149858Y-78640518D01*
X124162202Y-78647426D01*
X124190694Y-78664667D01*
X124233335Y-78690992D01*
X124288127Y-78725154D01*
X124353072Y-78765905D01*
X124426173Y-78811997D01*
X124505431Y-78862184D01*
X124541803Y-78885281D01*
X124625246Y-78938199D01*
X124705207Y-78988684D01*
X124779374Y-79035295D01*
X124845437Y-79076587D01*
X124901085Y-79111119D01*
X124944006Y-79137447D01*
X124971890Y-79154129D01*
X124977580Y-79157372D01*
X125002580Y-79171961D01*
X125042921Y-79196382D01*
X125095804Y-79228881D01*
X125158429Y-79267703D01*
X125227996Y-79311095D01*
X125301707Y-79357304D01*
X125376760Y-79404573D01*
X125450356Y-79451150D01*
X125519696Y-79495281D01*
X125581979Y-79535211D01*
X125622283Y-79561286D01*
X125690460Y-79603285D01*
X125746206Y-79631647D01*
X125792950Y-79647293D01*
X125834119Y-79651143D01*
X125873141Y-79644115D01*
X125897059Y-79635011D01*
X125942718Y-79618844D01*
X126008593Y-79601789D01*
X126086332Y-79585529D01*
X126134517Y-79572356D01*
X126187504Y-79551705D01*
X126238522Y-79526813D01*
X126280794Y-79500919D01*
X126303878Y-79481536D01*
X126316749Y-79462653D01*
X126334884Y-79427723D01*
X126358566Y-79376076D01*
X126388078Y-79307042D01*
X126423705Y-79219951D01*
X126465728Y-79114134D01*
X126514433Y-78988920D01*
X126535423Y-78934364D01*
X126556362Y-78880776D01*
X126579080Y-78824176D01*
X126599487Y-78774719D01*
X126604261Y-78763461D01*
X126619599Y-78726290D01*
X126630849Y-78696523D01*
X126635852Y-78679912D01*
X126635932Y-78678986D01*
X126640081Y-78662797D01*
X126650191Y-78637324D01*
X126651403Y-78634635D01*
X126676741Y-78577150D01*
X126692329Y-78534395D01*
X126698285Y-78501972D01*
X126694729Y-78475483D01*
X126681782Y-78450529D01*
X126659563Y-78422712D01*
X126657240Y-78420062D01*
X126615968Y-78382361D01*
X126566186Y-78355580D01*
X126502970Y-78337447D01*
X126463728Y-78330762D01*
X126428301Y-78324503D01*
X126382145Y-78314731D01*
X126335687Y-78303669D01*
X126287543Y-78292509D01*
X126238914Y-78282947D01*
X126201643Y-78277231D01*
X126169042Y-78272825D01*
X126145917Y-78268450D01*
X126139829Y-78266447D01*
X126133993Y-78254261D01*
X126125444Y-78226230D01*
X126115501Y-78187651D01*
X126105482Y-78143824D01*
X126096707Y-78100047D01*
X126092864Y-78077759D01*
X126084556Y-78046245D01*
X126068966Y-78022570D01*
X126042837Y-78004802D01*
X126002911Y-77991006D01*
X125945932Y-77979248D01*
X125919847Y-77975022D01*
X125860373Y-77966850D01*
X125797859Y-77959912D01*
X125741792Y-77955196D01*
X125716972Y-77953901D01*
X125676049Y-77951489D01*
X125643807Y-77947697D01*
X125626007Y-77943255D01*
X125624561Y-77942218D01*
X125617982Y-77926898D01*
X125609181Y-77896768D01*
X125599631Y-77858221D01*
X125590805Y-77817653D01*
X125584178Y-77781458D01*
X125581224Y-77756032D01*
X125581186Y-77754012D01*
X125571172Y-77716078D01*
X125543743Y-77685845D01*
X125513886Y-77671060D01*
X125486304Y-77664929D01*
X125443887Y-77658526D01*
X125392044Y-77652345D01*
X125336184Y-77646879D01*
X125281718Y-77642622D01*
X125234055Y-77640067D01*
X125198604Y-77639709D01*
X125184205Y-77640977D01*
X125151307Y-77641627D01*
X125132817Y-77626637D01*
X125127309Y-77598737D01*
X125129378Y-77576788D01*
X125135351Y-77540121D01*
X125144251Y-77493198D01*
X125155100Y-77440482D01*
X125166921Y-77386437D01*
X125178736Y-77335525D01*
X125189569Y-77292209D01*
X125198443Y-77260953D01*
X125204379Y-77246218D01*
X125204538Y-77246040D01*
X125218282Y-77244717D01*
X125247784Y-77249141D01*
X125288305Y-77258480D01*
X125311716Y-77264874D01*
X125373139Y-77281127D01*
X125420875Y-77289887D01*
X125461204Y-77291709D01*
X125500404Y-77287144D01*
X125519358Y-77283152D01*
X125551519Y-77278975D01*
X125567469Y-77285629D01*
X125567790Y-77286099D01*
X125576243Y-77306306D01*
X125586993Y-77342273D01*
X125598619Y-77388560D01*
X125609699Y-77439724D01*
X125614559Y-77465254D01*
X125622865Y-77500657D01*
X125632750Y-77528201D01*
X125638879Y-77538199D01*
X125653967Y-77547002D01*
X125684926Y-77560763D01*
X125727221Y-77577588D01*
X125775595Y-77595327D01*
X125833540Y-77614950D01*
X125877286Y-77627452D01*
X125912481Y-77634039D01*
X125944775Y-77635918D01*
X125963176Y-77635391D01*
X126027665Y-77632076D01*
X126036063Y-77707345D01*
X126043431Y-77752153D01*
X126056117Y-77789942D01*
X126076362Y-77822494D01*
X126106407Y-77851588D01*
X126148495Y-77879002D01*
X126204866Y-77906517D01*
X126277762Y-77935912D01*
X126362640Y-77966597D01*
X126449900Y-77997120D01*
X126483463Y-77968879D01*
X126513827Y-77948384D01*
X126544858Y-77934693D01*
X126549221Y-77933566D01*
X126576630Y-77919474D01*
X126610389Y-77889670D01*
X126647109Y-77847633D01*
X126683399Y-77796845D01*
X126685391Y-77793748D01*
X126698471Y-77774749D01*
X126721944Y-77742079D01*
X126753243Y-77699254D01*
X126789801Y-77649791D01*
X126821589Y-77607164D01*
X126867309Y-77545329D01*
X126900796Y-77496573D01*
X126923042Y-77456992D01*
X126935039Y-77422682D01*
X126937780Y-77389739D01*
X126932258Y-77354259D01*
X126919464Y-77312338D01*
X126905996Y-77275136D01*
X126890472Y-77231896D01*
X126877407Y-77192971D01*
X126869152Y-77165430D01*
X126868171Y-77161405D01*
X126851635Y-77125317D01*
X126819006Y-77084924D01*
X126774027Y-77044275D01*
X126732796Y-77015005D01*
X126701547Y-76994624D01*
X126678161Y-76978381D01*
X126668220Y-76970287D01*
X126656800Y-76960751D01*
X126630101Y-76941082D01*
X126590726Y-76913134D01*
X126541273Y-76878762D01*
X126502728Y-76852331D01*
X126484801Y-76839746D01*
X126454139Y-76817870D01*
X126415428Y-76790056D01*
X126383008Y-76766647D01*
X126335113Y-76732392D01*
X126285533Y-76697599D01*
X126241635Y-76667408D01*
X126221567Y-76653958D01*
X126189056Y-76632018D01*
X126164146Y-76614286D01*
X126151884Y-76604363D01*
X126151610Y-76604027D01*
X126140040Y-76594227D01*
X126116842Y-76577742D01*
X126103177Y-76568651D01*
X126070801Y-76546751D01*
X126031102Y-76518792D01*
X126000932Y-76496886D01*
X125952210Y-76461586D01*
X125892486Y-76419359D01*
X125828742Y-76375102D01*
X125774915Y-76338397D01*
X125750071Y-76320623D01*
X125718535Y-76296800D01*
X125704957Y-76286198D01*
X125667441Y-76259515D01*
X125625971Y-76234174D01*
X125614032Y-76227781D01*
X125588117Y-76215838D01*
X125564443Y-76209337D01*
X125536121Y-76207459D01*
X125496257Y-76209385D01*
X125474116Y-76211156D01*
X125417144Y-76215821D01*
X125361957Y-76220009D01*
X125302387Y-76224152D01*
X125232266Y-76228684D01*
X125166822Y-76232735D01*
X125056238Y-76239633D01*
X124965263Y-76245640D01*
X124892005Y-76250918D01*
X124834571Y-76255627D01*
X124791072Y-76259930D01*
X124759614Y-76263986D01*
X124738307Y-76267957D01*
X124731366Y-76269808D01*
X124704844Y-76275299D01*
X124687751Y-76274141D01*
X124686386Y-76273180D01*
X124676139Y-76252968D01*
X124670989Y-76225326D01*
X124672829Y-76202197D01*
X124674567Y-76198573D01*
X124690975Y-76189249D01*
X124727901Y-76179130D01*
X124784362Y-76168418D01*
X124859373Y-76157317D01*
X124900667Y-76152033D01*
X124940374Y-76146490D01*
X124971857Y-76140853D01*
X124988824Y-76136266D01*
X124989450Y-76135927D01*
X125005795Y-76131276D01*
X125035101Y-76126966D01*
X125051113Y-76125455D01*
X125120493Y-76116521D01*
X125194244Y-76100914D01*
X125268179Y-76080121D01*
X125338108Y-76055634D01*
X125399842Y-76028942D01*
X125449192Y-76001534D01*
X125481967Y-75974900D01*
X125485150Y-75971121D01*
X125499316Y-75943974D01*
X125504629Y-75907519D01*
X125501193Y-75858199D01*
X125490126Y-75797171D01*
X125482312Y-75751538D01*
X125483632Y-75722602D01*
X125495771Y-75706863D01*
X125520415Y-75700823D01*
X125536762Y-75700340D01*
X125560694Y-75699302D01*
X125601375Y-75696323D01*
X125654158Y-75691794D01*
X125714393Y-75686103D01*
X125752127Y-75682299D01*
X125819289Y-75675061D01*
X125868578Y-75668811D01*
X125903579Y-75662798D01*
X125927874Y-75656268D01*
X125945045Y-75648470D01*
X125958235Y-75639025D01*
X125988410Y-75621252D01*
X126030876Y-75610456D01*
X126056362Y-75607280D01*
X126135381Y-75589947D01*
X126179827Y-75569663D01*
X126212290Y-75552845D01*
X126238753Y-75541610D01*
X126250364Y-75538729D01*
X126272208Y-75529541D01*
X126297462Y-75505705D01*
X126322205Y-75472811D01*
X126342516Y-75436452D01*
X126354477Y-75402216D01*
X126356101Y-75387921D01*
X126351479Y-75358970D01*
X126339039Y-75317127D01*
X126320918Y-75268584D01*
X126299256Y-75219531D01*
X126294817Y-75210466D01*
X126275907Y-75169847D01*
X126255290Y-75121531D01*
X126242343Y-75088797D01*
X126226572Y-75048827D01*
X126211271Y-75012942D01*
X126201275Y-74991932D01*
X126188203Y-74964460D01*
X126172651Y-74927874D01*
X126165567Y-74909922D01*
X126138310Y-74858352D01*
X126102808Y-74825854D01*
X126058253Y-74812202D01*
X126003834Y-74817173D01*
X125938742Y-74840542D01*
X125930184Y-74844567D01*
X125881658Y-74869480D01*
X125830674Y-74898120D01*
X125788920Y-74923873D01*
X125748434Y-74949592D01*
X125706958Y-74974183D01*
X125679486Y-74989169D01*
X125651201Y-75005924D01*
X125612089Y-75032211D01*
X125568018Y-75063975D01*
X125537034Y-75087554D01*
X125498337Y-75117310D01*
X125465923Y-75141413D01*
X125443471Y-75157181D01*
X125434879Y-75162034D01*
X125423864Y-75168281D01*
X125400680Y-75184845D01*
X125369851Y-75208455D01*
X125362076Y-75214601D01*
X125305347Y-75255951D01*
X125254584Y-75283638D01*
X125202764Y-75301165D01*
X125177584Y-75306605D01*
X125147603Y-75313680D01*
X125126642Y-75321271D01*
X125123771Y-75323034D01*
X125106891Y-75330113D01*
X125078359Y-75337244D01*
X125069957Y-75338803D01*
X125026626Y-75347135D01*
X124980331Y-75357484D01*
X124936645Y-75368429D01*
X124901141Y-75378548D01*
X124879391Y-75386418D01*
X124876228Y-75388243D01*
X124861302Y-75393986D01*
X124830803Y-75402111D01*
X124790344Y-75411178D01*
X124773983Y-75414481D01*
X124722796Y-75425116D01*
X124671284Y-75436811D01*
X124629383Y-75447296D01*
X124624120Y-75448742D01*
X124568836Y-75460088D01*
X124528205Y-75458051D01*
X124499441Y-75441869D01*
X124479758Y-75410782D01*
X124479060Y-75409068D01*
X124469766Y-75385953D01*
X124464228Y-75367764D01*
X124464518Y-75352643D01*
X124472711Y-75338735D01*
X124490880Y-75324185D01*
X124521096Y-75307137D01*
X124565433Y-75285734D01*
X124625965Y-75258120D01*
X124669797Y-75238308D01*
X124705849Y-75222310D01*
X124733739Y-75210532D01*
X124748186Y-75205193D01*
X124748886Y-75205085D01*
X124760462Y-75200709D01*
X124786749Y-75188978D01*
X124823122Y-75171989D01*
X124843940Y-75162034D01*
X124884507Y-75143073D01*
X124918255Y-75128373D01*
X124940168Y-75120070D01*
X124945042Y-75118983D01*
X124961482Y-75114020D01*
X124992429Y-75100569D01*
X125033678Y-75080782D01*
X125081025Y-75056814D01*
X125130268Y-75030820D01*
X125177201Y-75004952D01*
X125217622Y-74981366D01*
X125235757Y-74970015D01*
X125270303Y-74948505D01*
X125298563Y-74932591D01*
X125315203Y-74925242D01*
X125316477Y-74925058D01*
X125334323Y-74918422D01*
X125361925Y-74901830D01*
X125393032Y-74879719D01*
X125421393Y-74856523D01*
X125440397Y-74837142D01*
X125460707Y-74803924D01*
X125475281Y-74760846D01*
X125478842Y-74745839D01*
X125489602Y-74699437D01*
X125503712Y-74641489D01*
X125520078Y-74576191D01*
X125537608Y-74507739D01*
X125555208Y-74440331D01*
X125571786Y-74378162D01*
X125586249Y-74325429D01*
X125597504Y-74286329D01*
X125603093Y-74268729D01*
X125611857Y-74229659D01*
X125614473Y-74186484D01*
X125610429Y-74150294D01*
X125608807Y-74144958D01*
X125595530Y-74113952D01*
X125578380Y-74092533D01*
X125550515Y-74073110D01*
X125537245Y-74065534D01*
X125479109Y-74043446D01*
X125422366Y-74041702D01*
X125369603Y-74060348D01*
X125365932Y-74062536D01*
X125338160Y-74077320D01*
X125315949Y-74085300D01*
X125312118Y-74085750D01*
X125294908Y-74091072D01*
X125266209Y-74104862D01*
X125236779Y-74121470D01*
X125201729Y-74141879D01*
X125154768Y-74168274D01*
X125103061Y-74196661D01*
X125069957Y-74214471D01*
X124971682Y-74266789D01*
X124866416Y-74322746D01*
X124759862Y-74379315D01*
X124657721Y-74433469D01*
X124565697Y-74482183D01*
X124521059Y-74505773D01*
X124468994Y-74533436D01*
X124419830Y-74559860D01*
X124378758Y-74582236D01*
X124350966Y-74597756D01*
X124348855Y-74598974D01*
X124315540Y-74617308D01*
X124273106Y-74639322D01*
X124239249Y-74656102D01*
X124204752Y-74673804D01*
X124178409Y-74689271D01*
X124165965Y-74699115D01*
X124148635Y-74709708D01*
X124124224Y-74707934D01*
X124101950Y-74695487D01*
X124094611Y-74686006D01*
X124078320Y-74660802D01*
X124066730Y-74646973D01*
X124058576Y-74634258D01*
X124063979Y-74619979D01*
X124076502Y-74605412D01*
X124096856Y-74587209D01*
X124134376Y-74557607D01*
X124188322Y-74517156D01*
X124257956Y-74466405D01*
X124342538Y-74405905D01*
X124385178Y-74375718D01*
X124410423Y-74357802D01*
X124447479Y-74331391D01*
X124490664Y-74300537D01*
X124521059Y-74278780D01*
X124566468Y-74246455D01*
X124610996Y-74215111D01*
X124648393Y-74189131D01*
X124665954Y-74177172D01*
X124689174Y-74159097D01*
X124723981Y-74128813D01*
X124766904Y-74089489D01*
X124814472Y-74044297D01*
X124856992Y-74002617D01*
X124912336Y-73946710D01*
X124953050Y-73903131D01*
X124980421Y-73869713D01*
X124995734Y-73844292D01*
X125000276Y-73824700D01*
X124995332Y-73808772D01*
X124982189Y-73794343D01*
X124981165Y-73793476D01*
X124951045Y-73774766D01*
X124906535Y-73755150D01*
X124854448Y-73737438D01*
X124827796Y-73730200D01*
X124769174Y-73714145D01*
X124708034Y-73694749D01*
X124650194Y-73674095D01*
X124601475Y-73654263D01*
X124567696Y-73637336D01*
X124567014Y-73636920D01*
X124541440Y-73621868D01*
X124524379Y-73613109D01*
X124521458Y-73612203D01*
X124510120Y-73607825D01*
X124483667Y-73595980D01*
X124446347Y-73578607D01*
X124412663Y-73562578D01*
X124364981Y-73540214D01*
X124330426Y-73526069D01*
X124302964Y-73518552D01*
X124276560Y-73516073D01*
X124245179Y-73517041D01*
X124240883Y-73517308D01*
X124190746Y-73523859D01*
X124158081Y-73535655D01*
X124152339Y-73539899D01*
X124126905Y-73555375D01*
X124098746Y-73564823D01*
X124086331Y-73568221D01*
X124072452Y-73574502D01*
X124055216Y-73585179D01*
X124032731Y-73601768D01*
X124003104Y-73625783D01*
X123964443Y-73658739D01*
X123914856Y-73702151D01*
X123852449Y-73757534D01*
X123804248Y-73800551D01*
X123724625Y-73871565D01*
X123659721Y-73929134D01*
X123608332Y-73974297D01*
X123569254Y-74008095D01*
X123541284Y-74031568D01*
X123523220Y-74045757D01*
X123513857Y-74051701D01*
X123513594Y-74051801D01*
X123496655Y-74048440D01*
X123479524Y-74033911D01*
X123471694Y-74016268D01*
X123471694Y-74016256D01*
X123478594Y-74002759D01*
X123498034Y-73975595D01*
X123528131Y-73937070D01*
X123566999Y-73889494D01*
X123612754Y-73835173D01*
X123663509Y-73776415D01*
X123716836Y-73716139D01*
X123758644Y-73665474D01*
X123786681Y-73622739D01*
X123800108Y-73589625D01*
X123798088Y-73567826D01*
X123792781Y-73562662D01*
X123784961Y-73548387D01*
X123783813Y-73538682D01*
X123776492Y-73524280D01*
X123756563Y-73498731D01*
X123727076Y-73465656D01*
X123691410Y-73429000D01*
X123633758Y-73368171D01*
X123593760Y-73316796D01*
X123573612Y-73281250D01*
X123557646Y-73248746D01*
X123544129Y-73231721D01*
X123528231Y-73225395D01*
X123516476Y-73224746D01*
X123495368Y-73230122D01*
X123457323Y-73245761D01*
X123403905Y-73270928D01*
X123336681Y-73304888D01*
X123264228Y-73343136D01*
X123181615Y-73386672D01*
X123113750Y-73420697D01*
X123061601Y-73444757D01*
X123026136Y-73458401D01*
X123011060Y-73461525D01*
X122998836Y-73458695D01*
X122978902Y-73449651D01*
X122949957Y-73433566D01*
X122910698Y-73409610D01*
X122859821Y-73376956D01*
X122796025Y-73334774D01*
X122718006Y-73282235D01*
X122624461Y-73218512D01*
X122565830Y-73178333D01*
X122449080Y-73098193D01*
X122348766Y-73029365D01*
X122263573Y-72970989D01*
X122192182Y-72922204D01*
X122133276Y-72882150D01*
X122085538Y-72849968D01*
X122047651Y-72824798D01*
X122018298Y-72805779D01*
X121996162Y-72792052D01*
X121979925Y-72782756D01*
X121968270Y-72777033D01*
X121959881Y-72774021D01*
X121953439Y-72772861D01*
X121947629Y-72772693D01*
X121944556Y-72772712D01*
X121936096Y-72775172D01*
X121922917Y-72783223D01*
X121903955Y-72797867D01*
X121878147Y-72820111D01*
X121844427Y-72850958D01*
X121801733Y-72891412D01*
X121749001Y-72942478D01*
X121685166Y-73005160D01*
X121609164Y-73080462D01*
X121519933Y-73169389D01*
X121445449Y-73243865D01*
X121335441Y-73354297D01*
X121240661Y-73450131D01*
X121160811Y-73531680D01*
X121095594Y-73599258D01*
X121044712Y-73653175D01*
X121007867Y-73693745D01*
X120984762Y-73721279D01*
X120975098Y-73736091D01*
X120974745Y-73737742D01*
X120980617Y-73758786D01*
X120995762Y-73789225D01*
X121010470Y-73812796D01*
X121024054Y-73832662D01*
X121048357Y-73868166D01*
X121081926Y-73917189D01*
X121123310Y-73977613D01*
X121171060Y-74047321D01*
X121223725Y-74124193D01*
X121279852Y-74206112D01*
X121315383Y-74257966D01*
X121373605Y-74342945D01*
X121429828Y-74425029D01*
X121482501Y-74501954D01*
X121530076Y-74571458D01*
X121571004Y-74631278D01*
X121603737Y-74679149D01*
X121626724Y-74712810D01*
X121634828Y-74724705D01*
X121658338Y-74762269D01*
X121675965Y-74796134D01*
X121684662Y-74820269D01*
X121685084Y-74824205D01*
X121681227Y-74837887D01*
X121670283Y-74869144D01*
X121653190Y-74915577D01*
X121630888Y-74974790D01*
X121604316Y-75044383D01*
X121574414Y-75121959D01*
X121542122Y-75205120D01*
X121508377Y-75291468D01*
X121474121Y-75378605D01*
X121440292Y-75464133D01*
X121407829Y-75545654D01*
X121377672Y-75620770D01*
X121350761Y-75687083D01*
X121328034Y-75742196D01*
X121310431Y-75783709D01*
X121300688Y-75805478D01*
X121283683Y-75832603D01*
X121264617Y-75851162D01*
X121263028Y-75852084D01*
X121248801Y-75856083D01*
X121215366Y-75863575D01*
X121164684Y-75874171D01*
X121098721Y-75887483D01*
X121019440Y-75903123D01*
X120928804Y-75920703D01*
X120828776Y-75939833D01*
X120721321Y-75960126D01*
X120637503Y-75975789D01*
X120525886Y-75996592D01*
X120420295Y-76016347D01*
X120322683Y-76034685D01*
X120235002Y-76051235D01*
X120159208Y-76065626D01*
X120097252Y-76077487D01*
X120051088Y-76086449D01*
X120022670Y-76092140D01*
X120014173Y-76094040D01*
X120010383Y-76096214D01*
X120007137Y-76101261D01*
X120004392Y-76110734D01*
X120002108Y-76126185D01*
X120000241Y-76149165D01*
X119998751Y-76181229D01*
X119997595Y-76223927D01*
X119996732Y-76278813D01*
X119996119Y-76347438D01*
X119995715Y-76431355D01*
X119995478Y-76532117D01*
X119995367Y-76651276D01*
X119995339Y-76790384D01*
X119995339Y-76792675D01*
X119995468Y-76912792D01*
X119995844Y-77026469D01*
X119996441Y-77131892D01*
X119997240Y-77227245D01*
X119998216Y-77310714D01*
X119999348Y-77380485D01*
X120000614Y-77434745D01*
X120001990Y-77471678D01*
X120003456Y-77489470D01*
X120003931Y-77490820D01*
X120015803Y-77493681D01*
X120046961Y-77500050D01*
X120095516Y-77509567D01*
X120159578Y-77521875D01*
X120237257Y-77536613D01*
X120326666Y-77553424D01*
X120425913Y-77571948D01*
X120533111Y-77591827D01*
X120630859Y-77609851D01*
X120752653Y-77632457D01*
X120866263Y-77653949D01*
X120969957Y-77673975D01*
X121062008Y-77692187D01*
X121140685Y-77708235D01*
X121204260Y-77721769D01*
X121251003Y-77732439D01*
X121279185Y-77739894D01*
X121285962Y-77742401D01*
X121294929Y-77747677D01*
X121303675Y-77755081D01*
X121313047Y-77766354D01*
X121323898Y-77783239D01*
X121337077Y-77807480D01*
X121353434Y-77840819D01*
X121373821Y-77885000D01*
X121399086Y-77941766D01*
X121430080Y-78012858D01*
X121467654Y-78100022D01*
X121512657Y-78204998D01*
X121520051Y-78222271D01*
X121560260Y-78316847D01*
X121597717Y-78406165D01*
X121631578Y-78488120D01*
X121660995Y-78560607D01*
X121685123Y-78621523D01*
X121703116Y-78668761D01*
X121714128Y-78700218D01*
X121717372Y-78713193D01*
X121717401Y-78719243D01*
X121716935Y-78725187D01*
X121715149Y-78732287D01*
X121711218Y-78741804D01*
X121704315Y-78755000D01*
X121693616Y-78773138D01*
X121678294Y-78797478D01*
X121657523Y-78829283D01*
X121630479Y-78869814D01*
X121596335Y-78920333D01*
X121554265Y-78982103D01*
X121503444Y-79056384D01*
X121443047Y-79144439D01*
X121372247Y-79247529D01*
X121290218Y-79366916D01*
X121276832Y-79386398D01*
X121207560Y-79487360D01*
X121149627Y-79572186D01*
X121102073Y-79642405D01*
X121063940Y-79699548D01*
X121034267Y-79745144D01*
X121012094Y-79780723D01*
X120996462Y-79807814D01*
X120986411Y-79827947D01*
X120980981Y-79842652D01*
X120979213Y-79853458D01*
X120979718Y-79859958D01*
X120984690Y-79870695D01*
X120997327Y-79888263D01*
X121018522Y-79913604D01*
X121049170Y-79947662D01*
X121090164Y-79991380D01*
X121142396Y-80045701D01*
X121206760Y-80111569D01*
X121284150Y-80189927D01*
X121375459Y-80281719D01*
X121446015Y-80352352D01*
X121541513Y-80447766D01*
X121623052Y-80529043D01*
X121691849Y-80597308D01*
X121749124Y-80653688D01*
X121796095Y-80699307D01*
X121833980Y-80735292D01*
X121863998Y-80762769D01*
X121887367Y-80782863D01*
X121905307Y-80796701D01*
X121919035Y-80805407D01*
X121929770Y-80810108D01*
X121938730Y-80811930D01*
X121943649Y-80812111D01*
X121953893Y-80810398D01*
X121968587Y-80804856D01*
X121989036Y-80794644D01*
X122016549Y-80778921D01*
X122052431Y-80756846D01*
X122097990Y-80727579D01*
X122154533Y-80690278D01*
X122223365Y-80644102D01*
X122305795Y-80588211D01*
X122403128Y-80521763D01*
X122516672Y-80443918D01*
X122529054Y-80435416D01*
X122626446Y-80368754D01*
X122718964Y-80305864D01*
X122805027Y-80247790D01*
X122883052Y-80195581D01*
X122951458Y-80150282D01*
X123008663Y-80112942D01*
X123053085Y-80084606D01*
X123083142Y-80066322D01*
X123097252Y-80059136D01*
X123097746Y-80059068D01*
X123111726Y-80063039D01*
X123143505Y-80074406D01*
X123190982Y-80092349D01*
X123252061Y-80116048D01*
X123324643Y-80144682D01*
X123406629Y-80177432D01*
X123495921Y-80213477D01*
X123570441Y-80243823D01*
X123684929Y-80290829D01*
X123780700Y-80330640D01*
X123859102Y-80363859D01*
X123921482Y-80391092D01*
X123969186Y-80412942D01*
X124003562Y-80430013D01*
X124025956Y-80442910D01*
X124037715Y-80452236D01*
X124039158Y-80454091D01*
X124044359Y-80469553D01*
X124053035Y-80504658D01*
X124064871Y-80557860D01*
X124079552Y-80627613D01*
X124096763Y-80712372D01*
X124116187Y-80810591D01*
X124137511Y-80920724D01*
X124160418Y-81041225D01*
X124177415Y-81131925D01*
X124205640Y-81282464D01*
X124230396Y-81412438D01*
X124251819Y-81522507D01*
X124270047Y-81613328D01*
X124285214Y-81685558D01*
X124297458Y-81739856D01*
X124306916Y-81776880D01*
X124313722Y-81797287D01*
X124316217Y-81801508D01*
X124321450Y-81805067D01*
X124330543Y-81808107D01*
X124345087Y-81810667D01*
X124366671Y-81812788D01*
X124396885Y-81814511D01*
X124437318Y-81815874D01*
X124489561Y-81816920D01*
X124555202Y-81817686D01*
X124635832Y-81818215D01*
X124733040Y-81818545D01*
X124848416Y-81818717D01*
X124983549Y-81818771D01*
X125000000Y-81818771D01*
X125137320Y-81818730D01*
M02*
