M48
; DRILL file {KiCad 5.1.5-1.fc31} date Sun 12 Apr 2020 11:45:11 PM CEST
; FORMAT={-:-/ absolute / metric / decimal}
; #@! TF.CreationDate,2020-04-12T23:45:11+02:00
; #@! TF.GenerationSoftware,Kicad,Pcbnew,5.1.5-1.fc31
; #@! TF.FileFunction,Plated,1,2,PTH
FMAT,2
METRIC
T1C0.400
T2C1.000
%
G90
G05
T1
X113.8Y-82.9
X116.2Y-78.8
X118.1Y-73.5
X118.1Y-75.0
X120.0Y-83.2
X120.9Y-73.5
X120.9Y-80.0
X121.1Y-71.9
X123.7Y-71.9
X124.0Y-86.4
X124.3Y-75.7
X125.7Y-78.3
X125.7Y-79.5
X128.5Y-90.3
X129.45Y-65.5
X131.8Y-79.0
X132.0Y-69.3
X135.6Y-61.55
T2
X125.0Y-70.0
X141.0Y-84.5
X141.0Y-87.0
X109.0Y-66.5
X109.0Y-69.0
X109.0Y-84.5
X109.0Y-87.0
X122.46Y-70.0
X114.25Y-64.75
X109.0Y-75.5
X109.0Y-78.0
X127.54Y-70.0
X115.46Y-87.75
X118.0Y-87.75
X141.0Y-66.5
X141.0Y-69.0
T0
M30
