G04 #@! TF.GenerationSoftware,KiCad,Pcbnew,5.1.5-1.fc31*
G04 #@! TF.CreationDate,2020-04-12T23:44:56+02:00*
G04 #@! TF.ProjectId,piezo_amplifier,7069657a-6f5f-4616-9d70-6c6966696572,rev?*
G04 #@! TF.SameCoordinates,Original*
G04 #@! TF.FileFunction,Paste,Top*
G04 #@! TF.FilePolarity,Positive*
%FSLAX46Y46*%
G04 Gerber Fmt 4.6, Leading zero omitted, Abs format (unit mm)*
G04 Created by KiCad (PCBNEW 5.1.5-1.fc31) date 2020-04-12 23:44:56*
%MOMM*%
%LPD*%
G04 APERTURE LIST*
%ADD10C,0.100000*%
%ADD11R,1.200000X0.900000*%
%ADD12R,1.600000X1.500000*%
%ADD13R,1.200000X1.200000*%
%ADD14R,0.800000X0.900000*%
G04 APERTURE END LIST*
D10*
G36*
X135925977Y-85455662D02*
G01*
X135939325Y-85457642D01*
X135952414Y-85460921D01*
X135965119Y-85465467D01*
X135977317Y-85471236D01*
X135988891Y-85478173D01*
X135999729Y-85486211D01*
X136009727Y-85495273D01*
X136018789Y-85505271D01*
X136026827Y-85516109D01*
X136033764Y-85527683D01*
X136039533Y-85539881D01*
X136044079Y-85552586D01*
X136047358Y-85565675D01*
X136049338Y-85579023D01*
X136050000Y-85592500D01*
X136050000Y-85867500D01*
X136049338Y-85880977D01*
X136047358Y-85894325D01*
X136044079Y-85907414D01*
X136039533Y-85920119D01*
X136033764Y-85932317D01*
X136026827Y-85943891D01*
X136018789Y-85954729D01*
X136009727Y-85964727D01*
X135999729Y-85973789D01*
X135988891Y-85981827D01*
X135977317Y-85988764D01*
X135965119Y-85994533D01*
X135952414Y-85999079D01*
X135939325Y-86002358D01*
X135925977Y-86004338D01*
X135912500Y-86005000D01*
X134587500Y-86005000D01*
X134574023Y-86004338D01*
X134560675Y-86002358D01*
X134547586Y-85999079D01*
X134534881Y-85994533D01*
X134522683Y-85988764D01*
X134511109Y-85981827D01*
X134500271Y-85973789D01*
X134490273Y-85964727D01*
X134481211Y-85954729D01*
X134473173Y-85943891D01*
X134466236Y-85932317D01*
X134460467Y-85920119D01*
X134455921Y-85907414D01*
X134452642Y-85894325D01*
X134450662Y-85880977D01*
X134450000Y-85867500D01*
X134450000Y-85592500D01*
X134450662Y-85579023D01*
X134452642Y-85565675D01*
X134455921Y-85552586D01*
X134460467Y-85539881D01*
X134466236Y-85527683D01*
X134473173Y-85516109D01*
X134481211Y-85505271D01*
X134490273Y-85495273D01*
X134500271Y-85486211D01*
X134511109Y-85478173D01*
X134522683Y-85471236D01*
X134534881Y-85465467D01*
X134547586Y-85460921D01*
X134560675Y-85457642D01*
X134574023Y-85455662D01*
X134587500Y-85455000D01*
X135912500Y-85455000D01*
X135925977Y-85455662D01*
G37*
G36*
X135925977Y-87995662D02*
G01*
X135939325Y-87997642D01*
X135952414Y-88000921D01*
X135965119Y-88005467D01*
X135977317Y-88011236D01*
X135988891Y-88018173D01*
X135999729Y-88026211D01*
X136009727Y-88035273D01*
X136018789Y-88045271D01*
X136026827Y-88056109D01*
X136033764Y-88067683D01*
X136039533Y-88079881D01*
X136044079Y-88092586D01*
X136047358Y-88105675D01*
X136049338Y-88119023D01*
X136050000Y-88132500D01*
X136050000Y-88407500D01*
X136049338Y-88420977D01*
X136047358Y-88434325D01*
X136044079Y-88447414D01*
X136039533Y-88460119D01*
X136033764Y-88472317D01*
X136026827Y-88483891D01*
X136018789Y-88494729D01*
X136009727Y-88504727D01*
X135999729Y-88513789D01*
X135988891Y-88521827D01*
X135977317Y-88528764D01*
X135965119Y-88534533D01*
X135952414Y-88539079D01*
X135939325Y-88542358D01*
X135925977Y-88544338D01*
X135912500Y-88545000D01*
X134587500Y-88545000D01*
X134574023Y-88544338D01*
X134560675Y-88542358D01*
X134547586Y-88539079D01*
X134534881Y-88534533D01*
X134522683Y-88528764D01*
X134511109Y-88521827D01*
X134500271Y-88513789D01*
X134490273Y-88504727D01*
X134481211Y-88494729D01*
X134473173Y-88483891D01*
X134466236Y-88472317D01*
X134460467Y-88460119D01*
X134455921Y-88447414D01*
X134452642Y-88434325D01*
X134450662Y-88420977D01*
X134450000Y-88407500D01*
X134450000Y-88132500D01*
X134450662Y-88119023D01*
X134452642Y-88105675D01*
X134455921Y-88092586D01*
X134460467Y-88079881D01*
X134466236Y-88067683D01*
X134473173Y-88056109D01*
X134481211Y-88045271D01*
X134490273Y-88035273D01*
X134500271Y-88026211D01*
X134511109Y-88018173D01*
X134522683Y-88011236D01*
X134534881Y-88005467D01*
X134547586Y-88000921D01*
X134560675Y-87997642D01*
X134574023Y-87995662D01*
X134587500Y-87995000D01*
X135912500Y-87995000D01*
X135925977Y-87995662D01*
G37*
G36*
X129425977Y-87995662D02*
G01*
X129439325Y-87997642D01*
X129452414Y-88000921D01*
X129465119Y-88005467D01*
X129477317Y-88011236D01*
X129488891Y-88018173D01*
X129499729Y-88026211D01*
X129509727Y-88035273D01*
X129518789Y-88045271D01*
X129526827Y-88056109D01*
X129533764Y-88067683D01*
X129539533Y-88079881D01*
X129544079Y-88092586D01*
X129547358Y-88105675D01*
X129549338Y-88119023D01*
X129550000Y-88132500D01*
X129550000Y-88407500D01*
X129549338Y-88420977D01*
X129547358Y-88434325D01*
X129544079Y-88447414D01*
X129539533Y-88460119D01*
X129533764Y-88472317D01*
X129526827Y-88483891D01*
X129518789Y-88494729D01*
X129509727Y-88504727D01*
X129499729Y-88513789D01*
X129488891Y-88521827D01*
X129477317Y-88528764D01*
X129465119Y-88534533D01*
X129452414Y-88539079D01*
X129439325Y-88542358D01*
X129425977Y-88544338D01*
X129412500Y-88545000D01*
X128087500Y-88545000D01*
X128074023Y-88544338D01*
X128060675Y-88542358D01*
X128047586Y-88539079D01*
X128034881Y-88534533D01*
X128022683Y-88528764D01*
X128011109Y-88521827D01*
X128000271Y-88513789D01*
X127990273Y-88504727D01*
X127981211Y-88494729D01*
X127973173Y-88483891D01*
X127966236Y-88472317D01*
X127960467Y-88460119D01*
X127955921Y-88447414D01*
X127952642Y-88434325D01*
X127950662Y-88420977D01*
X127950000Y-88407500D01*
X127950000Y-88132500D01*
X127950662Y-88119023D01*
X127952642Y-88105675D01*
X127955921Y-88092586D01*
X127960467Y-88079881D01*
X127966236Y-88067683D01*
X127973173Y-88056109D01*
X127981211Y-88045271D01*
X127990273Y-88035273D01*
X128000271Y-88026211D01*
X128011109Y-88018173D01*
X128022683Y-88011236D01*
X128034881Y-88005467D01*
X128047586Y-88000921D01*
X128060675Y-87997642D01*
X128074023Y-87995662D01*
X128087500Y-87995000D01*
X129412500Y-87995000D01*
X129425977Y-87995662D01*
G37*
G36*
X129425977Y-85455662D02*
G01*
X129439325Y-85457642D01*
X129452414Y-85460921D01*
X129465119Y-85465467D01*
X129477317Y-85471236D01*
X129488891Y-85478173D01*
X129499729Y-85486211D01*
X129509727Y-85495273D01*
X129518789Y-85505271D01*
X129526827Y-85516109D01*
X129533764Y-85527683D01*
X129539533Y-85539881D01*
X129544079Y-85552586D01*
X129547358Y-85565675D01*
X129549338Y-85579023D01*
X129550000Y-85592500D01*
X129550000Y-85867500D01*
X129549338Y-85880977D01*
X129547358Y-85894325D01*
X129544079Y-85907414D01*
X129539533Y-85920119D01*
X129533764Y-85932317D01*
X129526827Y-85943891D01*
X129518789Y-85954729D01*
X129509727Y-85964727D01*
X129499729Y-85973789D01*
X129488891Y-85981827D01*
X129477317Y-85988764D01*
X129465119Y-85994533D01*
X129452414Y-85999079D01*
X129439325Y-86002358D01*
X129425977Y-86004338D01*
X129412500Y-86005000D01*
X128087500Y-86005000D01*
X128074023Y-86004338D01*
X128060675Y-86002358D01*
X128047586Y-85999079D01*
X128034881Y-85994533D01*
X128022683Y-85988764D01*
X128011109Y-85981827D01*
X128000271Y-85973789D01*
X127990273Y-85964727D01*
X127981211Y-85954729D01*
X127973173Y-85943891D01*
X127966236Y-85932317D01*
X127960467Y-85920119D01*
X127955921Y-85907414D01*
X127952642Y-85894325D01*
X127950662Y-85880977D01*
X127950000Y-85867500D01*
X127950000Y-85592500D01*
X127950662Y-85579023D01*
X127952642Y-85565675D01*
X127955921Y-85552586D01*
X127960467Y-85539881D01*
X127966236Y-85527683D01*
X127973173Y-85516109D01*
X127981211Y-85505271D01*
X127990273Y-85495273D01*
X128000271Y-85486211D01*
X128011109Y-85478173D01*
X128022683Y-85471236D01*
X128034881Y-85465467D01*
X128047586Y-85460921D01*
X128060675Y-85457642D01*
X128074023Y-85455662D01*
X128087500Y-85455000D01*
X129412500Y-85455000D01*
X129425977Y-85455662D01*
G37*
G36*
X119727691Y-61976053D02*
G01*
X119748926Y-61979203D01*
X119769750Y-61984419D01*
X119789962Y-61991651D01*
X119809368Y-62000830D01*
X119827781Y-62011866D01*
X119845024Y-62024654D01*
X119860930Y-62039070D01*
X119875346Y-62054976D01*
X119888134Y-62072219D01*
X119899170Y-62090632D01*
X119908349Y-62110038D01*
X119915581Y-62130250D01*
X119920797Y-62151074D01*
X119923947Y-62172309D01*
X119925000Y-62193750D01*
X119925000Y-62631250D01*
X119923947Y-62652691D01*
X119920797Y-62673926D01*
X119915581Y-62694750D01*
X119908349Y-62714962D01*
X119899170Y-62734368D01*
X119888134Y-62752781D01*
X119875346Y-62770024D01*
X119860930Y-62785930D01*
X119845024Y-62800346D01*
X119827781Y-62813134D01*
X119809368Y-62824170D01*
X119789962Y-62833349D01*
X119769750Y-62840581D01*
X119748926Y-62845797D01*
X119727691Y-62848947D01*
X119706250Y-62850000D01*
X119193750Y-62850000D01*
X119172309Y-62848947D01*
X119151074Y-62845797D01*
X119130250Y-62840581D01*
X119110038Y-62833349D01*
X119090632Y-62824170D01*
X119072219Y-62813134D01*
X119054976Y-62800346D01*
X119039070Y-62785930D01*
X119024654Y-62770024D01*
X119011866Y-62752781D01*
X119000830Y-62734368D01*
X118991651Y-62714962D01*
X118984419Y-62694750D01*
X118979203Y-62673926D01*
X118976053Y-62652691D01*
X118975000Y-62631250D01*
X118975000Y-62193750D01*
X118976053Y-62172309D01*
X118979203Y-62151074D01*
X118984419Y-62130250D01*
X118991651Y-62110038D01*
X119000830Y-62090632D01*
X119011866Y-62072219D01*
X119024654Y-62054976D01*
X119039070Y-62039070D01*
X119054976Y-62024654D01*
X119072219Y-62011866D01*
X119090632Y-62000830D01*
X119110038Y-61991651D01*
X119130250Y-61984419D01*
X119151074Y-61979203D01*
X119172309Y-61976053D01*
X119193750Y-61975000D01*
X119706250Y-61975000D01*
X119727691Y-61976053D01*
G37*
G36*
X119727691Y-63551053D02*
G01*
X119748926Y-63554203D01*
X119769750Y-63559419D01*
X119789962Y-63566651D01*
X119809368Y-63575830D01*
X119827781Y-63586866D01*
X119845024Y-63599654D01*
X119860930Y-63614070D01*
X119875346Y-63629976D01*
X119888134Y-63647219D01*
X119899170Y-63665632D01*
X119908349Y-63685038D01*
X119915581Y-63705250D01*
X119920797Y-63726074D01*
X119923947Y-63747309D01*
X119925000Y-63768750D01*
X119925000Y-64206250D01*
X119923947Y-64227691D01*
X119920797Y-64248926D01*
X119915581Y-64269750D01*
X119908349Y-64289962D01*
X119899170Y-64309368D01*
X119888134Y-64327781D01*
X119875346Y-64345024D01*
X119860930Y-64360930D01*
X119845024Y-64375346D01*
X119827781Y-64388134D01*
X119809368Y-64399170D01*
X119789962Y-64408349D01*
X119769750Y-64415581D01*
X119748926Y-64420797D01*
X119727691Y-64423947D01*
X119706250Y-64425000D01*
X119193750Y-64425000D01*
X119172309Y-64423947D01*
X119151074Y-64420797D01*
X119130250Y-64415581D01*
X119110038Y-64408349D01*
X119090632Y-64399170D01*
X119072219Y-64388134D01*
X119054976Y-64375346D01*
X119039070Y-64360930D01*
X119024654Y-64345024D01*
X119011866Y-64327781D01*
X119000830Y-64309368D01*
X118991651Y-64289962D01*
X118984419Y-64269750D01*
X118979203Y-64248926D01*
X118976053Y-64227691D01*
X118975000Y-64206250D01*
X118975000Y-63768750D01*
X118976053Y-63747309D01*
X118979203Y-63726074D01*
X118984419Y-63705250D01*
X118991651Y-63685038D01*
X119000830Y-63665632D01*
X119011866Y-63647219D01*
X119024654Y-63629976D01*
X119039070Y-63614070D01*
X119054976Y-63599654D01*
X119072219Y-63586866D01*
X119090632Y-63575830D01*
X119110038Y-63566651D01*
X119130250Y-63559419D01*
X119151074Y-63554203D01*
X119172309Y-63551053D01*
X119193750Y-63550000D01*
X119706250Y-63550000D01*
X119727691Y-63551053D01*
G37*
D11*
X116250000Y-77650000D03*
X116250000Y-74350000D03*
D10*
G36*
X130527691Y-79526053D02*
G01*
X130548926Y-79529203D01*
X130569750Y-79534419D01*
X130589962Y-79541651D01*
X130609368Y-79550830D01*
X130627781Y-79561866D01*
X130645024Y-79574654D01*
X130660930Y-79589070D01*
X130675346Y-79604976D01*
X130688134Y-79622219D01*
X130699170Y-79640632D01*
X130708349Y-79660038D01*
X130715581Y-79680250D01*
X130720797Y-79701074D01*
X130723947Y-79722309D01*
X130725000Y-79743750D01*
X130725000Y-80181250D01*
X130723947Y-80202691D01*
X130720797Y-80223926D01*
X130715581Y-80244750D01*
X130708349Y-80264962D01*
X130699170Y-80284368D01*
X130688134Y-80302781D01*
X130675346Y-80320024D01*
X130660930Y-80335930D01*
X130645024Y-80350346D01*
X130627781Y-80363134D01*
X130609368Y-80374170D01*
X130589962Y-80383349D01*
X130569750Y-80390581D01*
X130548926Y-80395797D01*
X130527691Y-80398947D01*
X130506250Y-80400000D01*
X129993750Y-80400000D01*
X129972309Y-80398947D01*
X129951074Y-80395797D01*
X129930250Y-80390581D01*
X129910038Y-80383349D01*
X129890632Y-80374170D01*
X129872219Y-80363134D01*
X129854976Y-80350346D01*
X129839070Y-80335930D01*
X129824654Y-80320024D01*
X129811866Y-80302781D01*
X129800830Y-80284368D01*
X129791651Y-80264962D01*
X129784419Y-80244750D01*
X129779203Y-80223926D01*
X129776053Y-80202691D01*
X129775000Y-80181250D01*
X129775000Y-79743750D01*
X129776053Y-79722309D01*
X129779203Y-79701074D01*
X129784419Y-79680250D01*
X129791651Y-79660038D01*
X129800830Y-79640632D01*
X129811866Y-79622219D01*
X129824654Y-79604976D01*
X129839070Y-79589070D01*
X129854976Y-79574654D01*
X129872219Y-79561866D01*
X129890632Y-79550830D01*
X129910038Y-79541651D01*
X129930250Y-79534419D01*
X129951074Y-79529203D01*
X129972309Y-79526053D01*
X129993750Y-79525000D01*
X130506250Y-79525000D01*
X130527691Y-79526053D01*
G37*
G36*
X130527691Y-81101053D02*
G01*
X130548926Y-81104203D01*
X130569750Y-81109419D01*
X130589962Y-81116651D01*
X130609368Y-81125830D01*
X130627781Y-81136866D01*
X130645024Y-81149654D01*
X130660930Y-81164070D01*
X130675346Y-81179976D01*
X130688134Y-81197219D01*
X130699170Y-81215632D01*
X130708349Y-81235038D01*
X130715581Y-81255250D01*
X130720797Y-81276074D01*
X130723947Y-81297309D01*
X130725000Y-81318750D01*
X130725000Y-81756250D01*
X130723947Y-81777691D01*
X130720797Y-81798926D01*
X130715581Y-81819750D01*
X130708349Y-81839962D01*
X130699170Y-81859368D01*
X130688134Y-81877781D01*
X130675346Y-81895024D01*
X130660930Y-81910930D01*
X130645024Y-81925346D01*
X130627781Y-81938134D01*
X130609368Y-81949170D01*
X130589962Y-81958349D01*
X130569750Y-81965581D01*
X130548926Y-81970797D01*
X130527691Y-81973947D01*
X130506250Y-81975000D01*
X129993750Y-81975000D01*
X129972309Y-81973947D01*
X129951074Y-81970797D01*
X129930250Y-81965581D01*
X129910038Y-81958349D01*
X129890632Y-81949170D01*
X129872219Y-81938134D01*
X129854976Y-81925346D01*
X129839070Y-81910930D01*
X129824654Y-81895024D01*
X129811866Y-81877781D01*
X129800830Y-81859368D01*
X129791651Y-81839962D01*
X129784419Y-81819750D01*
X129779203Y-81798926D01*
X129776053Y-81777691D01*
X129775000Y-81756250D01*
X129775000Y-81318750D01*
X129776053Y-81297309D01*
X129779203Y-81276074D01*
X129784419Y-81255250D01*
X129791651Y-81235038D01*
X129800830Y-81215632D01*
X129811866Y-81197219D01*
X129824654Y-81179976D01*
X129839070Y-81164070D01*
X129854976Y-81149654D01*
X129872219Y-81136866D01*
X129890632Y-81125830D01*
X129910038Y-81116651D01*
X129930250Y-81109419D01*
X129951074Y-81104203D01*
X129972309Y-81101053D01*
X129993750Y-81100000D01*
X130506250Y-81100000D01*
X130527691Y-81101053D01*
G37*
D12*
X117000000Y-67550000D03*
D13*
X116000000Y-70800000D03*
X118000000Y-70800000D03*
X134000000Y-70800000D03*
X132000000Y-70800000D03*
D12*
X133000000Y-67550000D03*
D10*
G36*
X123364703Y-72890722D02*
G01*
X123379264Y-72892882D01*
X123393543Y-72896459D01*
X123407403Y-72901418D01*
X123420710Y-72907712D01*
X123433336Y-72915280D01*
X123445159Y-72924048D01*
X123456066Y-72933934D01*
X123465952Y-72944841D01*
X123474720Y-72956664D01*
X123482288Y-72969290D01*
X123488582Y-72982597D01*
X123493541Y-72996457D01*
X123497118Y-73010736D01*
X123499278Y-73025297D01*
X123500000Y-73040000D01*
X123500000Y-73340000D01*
X123499278Y-73354703D01*
X123497118Y-73369264D01*
X123493541Y-73383543D01*
X123488582Y-73397403D01*
X123482288Y-73410710D01*
X123474720Y-73423336D01*
X123465952Y-73435159D01*
X123456066Y-73446066D01*
X123445159Y-73455952D01*
X123433336Y-73464720D01*
X123420710Y-73472288D01*
X123407403Y-73478582D01*
X123393543Y-73483541D01*
X123379264Y-73487118D01*
X123364703Y-73489278D01*
X123350000Y-73490000D01*
X121700000Y-73490000D01*
X121685297Y-73489278D01*
X121670736Y-73487118D01*
X121656457Y-73483541D01*
X121642597Y-73478582D01*
X121629290Y-73472288D01*
X121616664Y-73464720D01*
X121604841Y-73455952D01*
X121593934Y-73446066D01*
X121584048Y-73435159D01*
X121575280Y-73423336D01*
X121567712Y-73410710D01*
X121561418Y-73397403D01*
X121556459Y-73383543D01*
X121552882Y-73369264D01*
X121550722Y-73354703D01*
X121550000Y-73340000D01*
X121550000Y-73040000D01*
X121550722Y-73025297D01*
X121552882Y-73010736D01*
X121556459Y-72996457D01*
X121561418Y-72982597D01*
X121567712Y-72969290D01*
X121575280Y-72956664D01*
X121584048Y-72944841D01*
X121593934Y-72933934D01*
X121604841Y-72924048D01*
X121616664Y-72915280D01*
X121629290Y-72907712D01*
X121642597Y-72901418D01*
X121656457Y-72896459D01*
X121670736Y-72892882D01*
X121685297Y-72890722D01*
X121700000Y-72890000D01*
X123350000Y-72890000D01*
X123364703Y-72890722D01*
G37*
G36*
X123364703Y-74160722D02*
G01*
X123379264Y-74162882D01*
X123393543Y-74166459D01*
X123407403Y-74171418D01*
X123420710Y-74177712D01*
X123433336Y-74185280D01*
X123445159Y-74194048D01*
X123456066Y-74203934D01*
X123465952Y-74214841D01*
X123474720Y-74226664D01*
X123482288Y-74239290D01*
X123488582Y-74252597D01*
X123493541Y-74266457D01*
X123497118Y-74280736D01*
X123499278Y-74295297D01*
X123500000Y-74310000D01*
X123500000Y-74610000D01*
X123499278Y-74624703D01*
X123497118Y-74639264D01*
X123493541Y-74653543D01*
X123488582Y-74667403D01*
X123482288Y-74680710D01*
X123474720Y-74693336D01*
X123465952Y-74705159D01*
X123456066Y-74716066D01*
X123445159Y-74725952D01*
X123433336Y-74734720D01*
X123420710Y-74742288D01*
X123407403Y-74748582D01*
X123393543Y-74753541D01*
X123379264Y-74757118D01*
X123364703Y-74759278D01*
X123350000Y-74760000D01*
X121700000Y-74760000D01*
X121685297Y-74759278D01*
X121670736Y-74757118D01*
X121656457Y-74753541D01*
X121642597Y-74748582D01*
X121629290Y-74742288D01*
X121616664Y-74734720D01*
X121604841Y-74725952D01*
X121593934Y-74716066D01*
X121584048Y-74705159D01*
X121575280Y-74693336D01*
X121567712Y-74680710D01*
X121561418Y-74667403D01*
X121556459Y-74653543D01*
X121552882Y-74639264D01*
X121550722Y-74624703D01*
X121550000Y-74610000D01*
X121550000Y-74310000D01*
X121550722Y-74295297D01*
X121552882Y-74280736D01*
X121556459Y-74266457D01*
X121561418Y-74252597D01*
X121567712Y-74239290D01*
X121575280Y-74226664D01*
X121584048Y-74214841D01*
X121593934Y-74203934D01*
X121604841Y-74194048D01*
X121616664Y-74185280D01*
X121629290Y-74177712D01*
X121642597Y-74171418D01*
X121656457Y-74166459D01*
X121670736Y-74162882D01*
X121685297Y-74160722D01*
X121700000Y-74160000D01*
X123350000Y-74160000D01*
X123364703Y-74160722D01*
G37*
G36*
X123364703Y-75430722D02*
G01*
X123379264Y-75432882D01*
X123393543Y-75436459D01*
X123407403Y-75441418D01*
X123420710Y-75447712D01*
X123433336Y-75455280D01*
X123445159Y-75464048D01*
X123456066Y-75473934D01*
X123465952Y-75484841D01*
X123474720Y-75496664D01*
X123482288Y-75509290D01*
X123488582Y-75522597D01*
X123493541Y-75536457D01*
X123497118Y-75550736D01*
X123499278Y-75565297D01*
X123500000Y-75580000D01*
X123500000Y-75880000D01*
X123499278Y-75894703D01*
X123497118Y-75909264D01*
X123493541Y-75923543D01*
X123488582Y-75937403D01*
X123482288Y-75950710D01*
X123474720Y-75963336D01*
X123465952Y-75975159D01*
X123456066Y-75986066D01*
X123445159Y-75995952D01*
X123433336Y-76004720D01*
X123420710Y-76012288D01*
X123407403Y-76018582D01*
X123393543Y-76023541D01*
X123379264Y-76027118D01*
X123364703Y-76029278D01*
X123350000Y-76030000D01*
X121700000Y-76030000D01*
X121685297Y-76029278D01*
X121670736Y-76027118D01*
X121656457Y-76023541D01*
X121642597Y-76018582D01*
X121629290Y-76012288D01*
X121616664Y-76004720D01*
X121604841Y-75995952D01*
X121593934Y-75986066D01*
X121584048Y-75975159D01*
X121575280Y-75963336D01*
X121567712Y-75950710D01*
X121561418Y-75937403D01*
X121556459Y-75923543D01*
X121552882Y-75909264D01*
X121550722Y-75894703D01*
X121550000Y-75880000D01*
X121550000Y-75580000D01*
X121550722Y-75565297D01*
X121552882Y-75550736D01*
X121556459Y-75536457D01*
X121561418Y-75522597D01*
X121567712Y-75509290D01*
X121575280Y-75496664D01*
X121584048Y-75484841D01*
X121593934Y-75473934D01*
X121604841Y-75464048D01*
X121616664Y-75455280D01*
X121629290Y-75447712D01*
X121642597Y-75441418D01*
X121656457Y-75436459D01*
X121670736Y-75432882D01*
X121685297Y-75430722D01*
X121700000Y-75430000D01*
X123350000Y-75430000D01*
X123364703Y-75430722D01*
G37*
G36*
X123364703Y-76700722D02*
G01*
X123379264Y-76702882D01*
X123393543Y-76706459D01*
X123407403Y-76711418D01*
X123420710Y-76717712D01*
X123433336Y-76725280D01*
X123445159Y-76734048D01*
X123456066Y-76743934D01*
X123465952Y-76754841D01*
X123474720Y-76766664D01*
X123482288Y-76779290D01*
X123488582Y-76792597D01*
X123493541Y-76806457D01*
X123497118Y-76820736D01*
X123499278Y-76835297D01*
X123500000Y-76850000D01*
X123500000Y-77150000D01*
X123499278Y-77164703D01*
X123497118Y-77179264D01*
X123493541Y-77193543D01*
X123488582Y-77207403D01*
X123482288Y-77220710D01*
X123474720Y-77233336D01*
X123465952Y-77245159D01*
X123456066Y-77256066D01*
X123445159Y-77265952D01*
X123433336Y-77274720D01*
X123420710Y-77282288D01*
X123407403Y-77288582D01*
X123393543Y-77293541D01*
X123379264Y-77297118D01*
X123364703Y-77299278D01*
X123350000Y-77300000D01*
X121700000Y-77300000D01*
X121685297Y-77299278D01*
X121670736Y-77297118D01*
X121656457Y-77293541D01*
X121642597Y-77288582D01*
X121629290Y-77282288D01*
X121616664Y-77274720D01*
X121604841Y-77265952D01*
X121593934Y-77256066D01*
X121584048Y-77245159D01*
X121575280Y-77233336D01*
X121567712Y-77220710D01*
X121561418Y-77207403D01*
X121556459Y-77193543D01*
X121552882Y-77179264D01*
X121550722Y-77164703D01*
X121550000Y-77150000D01*
X121550000Y-76850000D01*
X121550722Y-76835297D01*
X121552882Y-76820736D01*
X121556459Y-76806457D01*
X121561418Y-76792597D01*
X121567712Y-76779290D01*
X121575280Y-76766664D01*
X121584048Y-76754841D01*
X121593934Y-76743934D01*
X121604841Y-76734048D01*
X121616664Y-76725280D01*
X121629290Y-76717712D01*
X121642597Y-76711418D01*
X121656457Y-76706459D01*
X121670736Y-76702882D01*
X121685297Y-76700722D01*
X121700000Y-76700000D01*
X123350000Y-76700000D01*
X123364703Y-76700722D01*
G37*
G36*
X123364703Y-77970722D02*
G01*
X123379264Y-77972882D01*
X123393543Y-77976459D01*
X123407403Y-77981418D01*
X123420710Y-77987712D01*
X123433336Y-77995280D01*
X123445159Y-78004048D01*
X123456066Y-78013934D01*
X123465952Y-78024841D01*
X123474720Y-78036664D01*
X123482288Y-78049290D01*
X123488582Y-78062597D01*
X123493541Y-78076457D01*
X123497118Y-78090736D01*
X123499278Y-78105297D01*
X123500000Y-78120000D01*
X123500000Y-78420000D01*
X123499278Y-78434703D01*
X123497118Y-78449264D01*
X123493541Y-78463543D01*
X123488582Y-78477403D01*
X123482288Y-78490710D01*
X123474720Y-78503336D01*
X123465952Y-78515159D01*
X123456066Y-78526066D01*
X123445159Y-78535952D01*
X123433336Y-78544720D01*
X123420710Y-78552288D01*
X123407403Y-78558582D01*
X123393543Y-78563541D01*
X123379264Y-78567118D01*
X123364703Y-78569278D01*
X123350000Y-78570000D01*
X121700000Y-78570000D01*
X121685297Y-78569278D01*
X121670736Y-78567118D01*
X121656457Y-78563541D01*
X121642597Y-78558582D01*
X121629290Y-78552288D01*
X121616664Y-78544720D01*
X121604841Y-78535952D01*
X121593934Y-78526066D01*
X121584048Y-78515159D01*
X121575280Y-78503336D01*
X121567712Y-78490710D01*
X121561418Y-78477403D01*
X121556459Y-78463543D01*
X121552882Y-78449264D01*
X121550722Y-78434703D01*
X121550000Y-78420000D01*
X121550000Y-78120000D01*
X121550722Y-78105297D01*
X121552882Y-78090736D01*
X121556459Y-78076457D01*
X121561418Y-78062597D01*
X121567712Y-78049290D01*
X121575280Y-78036664D01*
X121584048Y-78024841D01*
X121593934Y-78013934D01*
X121604841Y-78004048D01*
X121616664Y-77995280D01*
X121629290Y-77987712D01*
X121642597Y-77981418D01*
X121656457Y-77976459D01*
X121670736Y-77972882D01*
X121685297Y-77970722D01*
X121700000Y-77970000D01*
X123350000Y-77970000D01*
X123364703Y-77970722D01*
G37*
G36*
X123364703Y-79240722D02*
G01*
X123379264Y-79242882D01*
X123393543Y-79246459D01*
X123407403Y-79251418D01*
X123420710Y-79257712D01*
X123433336Y-79265280D01*
X123445159Y-79274048D01*
X123456066Y-79283934D01*
X123465952Y-79294841D01*
X123474720Y-79306664D01*
X123482288Y-79319290D01*
X123488582Y-79332597D01*
X123493541Y-79346457D01*
X123497118Y-79360736D01*
X123499278Y-79375297D01*
X123500000Y-79390000D01*
X123500000Y-79690000D01*
X123499278Y-79704703D01*
X123497118Y-79719264D01*
X123493541Y-79733543D01*
X123488582Y-79747403D01*
X123482288Y-79760710D01*
X123474720Y-79773336D01*
X123465952Y-79785159D01*
X123456066Y-79796066D01*
X123445159Y-79805952D01*
X123433336Y-79814720D01*
X123420710Y-79822288D01*
X123407403Y-79828582D01*
X123393543Y-79833541D01*
X123379264Y-79837118D01*
X123364703Y-79839278D01*
X123350000Y-79840000D01*
X121700000Y-79840000D01*
X121685297Y-79839278D01*
X121670736Y-79837118D01*
X121656457Y-79833541D01*
X121642597Y-79828582D01*
X121629290Y-79822288D01*
X121616664Y-79814720D01*
X121604841Y-79805952D01*
X121593934Y-79796066D01*
X121584048Y-79785159D01*
X121575280Y-79773336D01*
X121567712Y-79760710D01*
X121561418Y-79747403D01*
X121556459Y-79733543D01*
X121552882Y-79719264D01*
X121550722Y-79704703D01*
X121550000Y-79690000D01*
X121550000Y-79390000D01*
X121550722Y-79375297D01*
X121552882Y-79360736D01*
X121556459Y-79346457D01*
X121561418Y-79332597D01*
X121567712Y-79319290D01*
X121575280Y-79306664D01*
X121584048Y-79294841D01*
X121593934Y-79283934D01*
X121604841Y-79274048D01*
X121616664Y-79265280D01*
X121629290Y-79257712D01*
X121642597Y-79251418D01*
X121656457Y-79246459D01*
X121670736Y-79242882D01*
X121685297Y-79240722D01*
X121700000Y-79240000D01*
X123350000Y-79240000D01*
X123364703Y-79240722D01*
G37*
G36*
X123364703Y-80510722D02*
G01*
X123379264Y-80512882D01*
X123393543Y-80516459D01*
X123407403Y-80521418D01*
X123420710Y-80527712D01*
X123433336Y-80535280D01*
X123445159Y-80544048D01*
X123456066Y-80553934D01*
X123465952Y-80564841D01*
X123474720Y-80576664D01*
X123482288Y-80589290D01*
X123488582Y-80602597D01*
X123493541Y-80616457D01*
X123497118Y-80630736D01*
X123499278Y-80645297D01*
X123500000Y-80660000D01*
X123500000Y-80960000D01*
X123499278Y-80974703D01*
X123497118Y-80989264D01*
X123493541Y-81003543D01*
X123488582Y-81017403D01*
X123482288Y-81030710D01*
X123474720Y-81043336D01*
X123465952Y-81055159D01*
X123456066Y-81066066D01*
X123445159Y-81075952D01*
X123433336Y-81084720D01*
X123420710Y-81092288D01*
X123407403Y-81098582D01*
X123393543Y-81103541D01*
X123379264Y-81107118D01*
X123364703Y-81109278D01*
X123350000Y-81110000D01*
X121700000Y-81110000D01*
X121685297Y-81109278D01*
X121670736Y-81107118D01*
X121656457Y-81103541D01*
X121642597Y-81098582D01*
X121629290Y-81092288D01*
X121616664Y-81084720D01*
X121604841Y-81075952D01*
X121593934Y-81066066D01*
X121584048Y-81055159D01*
X121575280Y-81043336D01*
X121567712Y-81030710D01*
X121561418Y-81017403D01*
X121556459Y-81003543D01*
X121552882Y-80989264D01*
X121550722Y-80974703D01*
X121550000Y-80960000D01*
X121550000Y-80660000D01*
X121550722Y-80645297D01*
X121552882Y-80630736D01*
X121556459Y-80616457D01*
X121561418Y-80602597D01*
X121567712Y-80589290D01*
X121575280Y-80576664D01*
X121584048Y-80564841D01*
X121593934Y-80553934D01*
X121604841Y-80544048D01*
X121616664Y-80535280D01*
X121629290Y-80527712D01*
X121642597Y-80521418D01*
X121656457Y-80516459D01*
X121670736Y-80512882D01*
X121685297Y-80510722D01*
X121700000Y-80510000D01*
X123350000Y-80510000D01*
X123364703Y-80510722D01*
G37*
G36*
X128314703Y-80510722D02*
G01*
X128329264Y-80512882D01*
X128343543Y-80516459D01*
X128357403Y-80521418D01*
X128370710Y-80527712D01*
X128383336Y-80535280D01*
X128395159Y-80544048D01*
X128406066Y-80553934D01*
X128415952Y-80564841D01*
X128424720Y-80576664D01*
X128432288Y-80589290D01*
X128438582Y-80602597D01*
X128443541Y-80616457D01*
X128447118Y-80630736D01*
X128449278Y-80645297D01*
X128450000Y-80660000D01*
X128450000Y-80960000D01*
X128449278Y-80974703D01*
X128447118Y-80989264D01*
X128443541Y-81003543D01*
X128438582Y-81017403D01*
X128432288Y-81030710D01*
X128424720Y-81043336D01*
X128415952Y-81055159D01*
X128406066Y-81066066D01*
X128395159Y-81075952D01*
X128383336Y-81084720D01*
X128370710Y-81092288D01*
X128357403Y-81098582D01*
X128343543Y-81103541D01*
X128329264Y-81107118D01*
X128314703Y-81109278D01*
X128300000Y-81110000D01*
X126650000Y-81110000D01*
X126635297Y-81109278D01*
X126620736Y-81107118D01*
X126606457Y-81103541D01*
X126592597Y-81098582D01*
X126579290Y-81092288D01*
X126566664Y-81084720D01*
X126554841Y-81075952D01*
X126543934Y-81066066D01*
X126534048Y-81055159D01*
X126525280Y-81043336D01*
X126517712Y-81030710D01*
X126511418Y-81017403D01*
X126506459Y-81003543D01*
X126502882Y-80989264D01*
X126500722Y-80974703D01*
X126500000Y-80960000D01*
X126500000Y-80660000D01*
X126500722Y-80645297D01*
X126502882Y-80630736D01*
X126506459Y-80616457D01*
X126511418Y-80602597D01*
X126517712Y-80589290D01*
X126525280Y-80576664D01*
X126534048Y-80564841D01*
X126543934Y-80553934D01*
X126554841Y-80544048D01*
X126566664Y-80535280D01*
X126579290Y-80527712D01*
X126592597Y-80521418D01*
X126606457Y-80516459D01*
X126620736Y-80512882D01*
X126635297Y-80510722D01*
X126650000Y-80510000D01*
X128300000Y-80510000D01*
X128314703Y-80510722D01*
G37*
G36*
X128314703Y-79240722D02*
G01*
X128329264Y-79242882D01*
X128343543Y-79246459D01*
X128357403Y-79251418D01*
X128370710Y-79257712D01*
X128383336Y-79265280D01*
X128395159Y-79274048D01*
X128406066Y-79283934D01*
X128415952Y-79294841D01*
X128424720Y-79306664D01*
X128432288Y-79319290D01*
X128438582Y-79332597D01*
X128443541Y-79346457D01*
X128447118Y-79360736D01*
X128449278Y-79375297D01*
X128450000Y-79390000D01*
X128450000Y-79690000D01*
X128449278Y-79704703D01*
X128447118Y-79719264D01*
X128443541Y-79733543D01*
X128438582Y-79747403D01*
X128432288Y-79760710D01*
X128424720Y-79773336D01*
X128415952Y-79785159D01*
X128406066Y-79796066D01*
X128395159Y-79805952D01*
X128383336Y-79814720D01*
X128370710Y-79822288D01*
X128357403Y-79828582D01*
X128343543Y-79833541D01*
X128329264Y-79837118D01*
X128314703Y-79839278D01*
X128300000Y-79840000D01*
X126650000Y-79840000D01*
X126635297Y-79839278D01*
X126620736Y-79837118D01*
X126606457Y-79833541D01*
X126592597Y-79828582D01*
X126579290Y-79822288D01*
X126566664Y-79814720D01*
X126554841Y-79805952D01*
X126543934Y-79796066D01*
X126534048Y-79785159D01*
X126525280Y-79773336D01*
X126517712Y-79760710D01*
X126511418Y-79747403D01*
X126506459Y-79733543D01*
X126502882Y-79719264D01*
X126500722Y-79704703D01*
X126500000Y-79690000D01*
X126500000Y-79390000D01*
X126500722Y-79375297D01*
X126502882Y-79360736D01*
X126506459Y-79346457D01*
X126511418Y-79332597D01*
X126517712Y-79319290D01*
X126525280Y-79306664D01*
X126534048Y-79294841D01*
X126543934Y-79283934D01*
X126554841Y-79274048D01*
X126566664Y-79265280D01*
X126579290Y-79257712D01*
X126592597Y-79251418D01*
X126606457Y-79246459D01*
X126620736Y-79242882D01*
X126635297Y-79240722D01*
X126650000Y-79240000D01*
X128300000Y-79240000D01*
X128314703Y-79240722D01*
G37*
G36*
X128314703Y-77970722D02*
G01*
X128329264Y-77972882D01*
X128343543Y-77976459D01*
X128357403Y-77981418D01*
X128370710Y-77987712D01*
X128383336Y-77995280D01*
X128395159Y-78004048D01*
X128406066Y-78013934D01*
X128415952Y-78024841D01*
X128424720Y-78036664D01*
X128432288Y-78049290D01*
X128438582Y-78062597D01*
X128443541Y-78076457D01*
X128447118Y-78090736D01*
X128449278Y-78105297D01*
X128450000Y-78120000D01*
X128450000Y-78420000D01*
X128449278Y-78434703D01*
X128447118Y-78449264D01*
X128443541Y-78463543D01*
X128438582Y-78477403D01*
X128432288Y-78490710D01*
X128424720Y-78503336D01*
X128415952Y-78515159D01*
X128406066Y-78526066D01*
X128395159Y-78535952D01*
X128383336Y-78544720D01*
X128370710Y-78552288D01*
X128357403Y-78558582D01*
X128343543Y-78563541D01*
X128329264Y-78567118D01*
X128314703Y-78569278D01*
X128300000Y-78570000D01*
X126650000Y-78570000D01*
X126635297Y-78569278D01*
X126620736Y-78567118D01*
X126606457Y-78563541D01*
X126592597Y-78558582D01*
X126579290Y-78552288D01*
X126566664Y-78544720D01*
X126554841Y-78535952D01*
X126543934Y-78526066D01*
X126534048Y-78515159D01*
X126525280Y-78503336D01*
X126517712Y-78490710D01*
X126511418Y-78477403D01*
X126506459Y-78463543D01*
X126502882Y-78449264D01*
X126500722Y-78434703D01*
X126500000Y-78420000D01*
X126500000Y-78120000D01*
X126500722Y-78105297D01*
X126502882Y-78090736D01*
X126506459Y-78076457D01*
X126511418Y-78062597D01*
X126517712Y-78049290D01*
X126525280Y-78036664D01*
X126534048Y-78024841D01*
X126543934Y-78013934D01*
X126554841Y-78004048D01*
X126566664Y-77995280D01*
X126579290Y-77987712D01*
X126592597Y-77981418D01*
X126606457Y-77976459D01*
X126620736Y-77972882D01*
X126635297Y-77970722D01*
X126650000Y-77970000D01*
X128300000Y-77970000D01*
X128314703Y-77970722D01*
G37*
G36*
X128314703Y-76700722D02*
G01*
X128329264Y-76702882D01*
X128343543Y-76706459D01*
X128357403Y-76711418D01*
X128370710Y-76717712D01*
X128383336Y-76725280D01*
X128395159Y-76734048D01*
X128406066Y-76743934D01*
X128415952Y-76754841D01*
X128424720Y-76766664D01*
X128432288Y-76779290D01*
X128438582Y-76792597D01*
X128443541Y-76806457D01*
X128447118Y-76820736D01*
X128449278Y-76835297D01*
X128450000Y-76850000D01*
X128450000Y-77150000D01*
X128449278Y-77164703D01*
X128447118Y-77179264D01*
X128443541Y-77193543D01*
X128438582Y-77207403D01*
X128432288Y-77220710D01*
X128424720Y-77233336D01*
X128415952Y-77245159D01*
X128406066Y-77256066D01*
X128395159Y-77265952D01*
X128383336Y-77274720D01*
X128370710Y-77282288D01*
X128357403Y-77288582D01*
X128343543Y-77293541D01*
X128329264Y-77297118D01*
X128314703Y-77299278D01*
X128300000Y-77300000D01*
X126650000Y-77300000D01*
X126635297Y-77299278D01*
X126620736Y-77297118D01*
X126606457Y-77293541D01*
X126592597Y-77288582D01*
X126579290Y-77282288D01*
X126566664Y-77274720D01*
X126554841Y-77265952D01*
X126543934Y-77256066D01*
X126534048Y-77245159D01*
X126525280Y-77233336D01*
X126517712Y-77220710D01*
X126511418Y-77207403D01*
X126506459Y-77193543D01*
X126502882Y-77179264D01*
X126500722Y-77164703D01*
X126500000Y-77150000D01*
X126500000Y-76850000D01*
X126500722Y-76835297D01*
X126502882Y-76820736D01*
X126506459Y-76806457D01*
X126511418Y-76792597D01*
X126517712Y-76779290D01*
X126525280Y-76766664D01*
X126534048Y-76754841D01*
X126543934Y-76743934D01*
X126554841Y-76734048D01*
X126566664Y-76725280D01*
X126579290Y-76717712D01*
X126592597Y-76711418D01*
X126606457Y-76706459D01*
X126620736Y-76702882D01*
X126635297Y-76700722D01*
X126650000Y-76700000D01*
X128300000Y-76700000D01*
X128314703Y-76700722D01*
G37*
G36*
X128314703Y-75430722D02*
G01*
X128329264Y-75432882D01*
X128343543Y-75436459D01*
X128357403Y-75441418D01*
X128370710Y-75447712D01*
X128383336Y-75455280D01*
X128395159Y-75464048D01*
X128406066Y-75473934D01*
X128415952Y-75484841D01*
X128424720Y-75496664D01*
X128432288Y-75509290D01*
X128438582Y-75522597D01*
X128443541Y-75536457D01*
X128447118Y-75550736D01*
X128449278Y-75565297D01*
X128450000Y-75580000D01*
X128450000Y-75880000D01*
X128449278Y-75894703D01*
X128447118Y-75909264D01*
X128443541Y-75923543D01*
X128438582Y-75937403D01*
X128432288Y-75950710D01*
X128424720Y-75963336D01*
X128415952Y-75975159D01*
X128406066Y-75986066D01*
X128395159Y-75995952D01*
X128383336Y-76004720D01*
X128370710Y-76012288D01*
X128357403Y-76018582D01*
X128343543Y-76023541D01*
X128329264Y-76027118D01*
X128314703Y-76029278D01*
X128300000Y-76030000D01*
X126650000Y-76030000D01*
X126635297Y-76029278D01*
X126620736Y-76027118D01*
X126606457Y-76023541D01*
X126592597Y-76018582D01*
X126579290Y-76012288D01*
X126566664Y-76004720D01*
X126554841Y-75995952D01*
X126543934Y-75986066D01*
X126534048Y-75975159D01*
X126525280Y-75963336D01*
X126517712Y-75950710D01*
X126511418Y-75937403D01*
X126506459Y-75923543D01*
X126502882Y-75909264D01*
X126500722Y-75894703D01*
X126500000Y-75880000D01*
X126500000Y-75580000D01*
X126500722Y-75565297D01*
X126502882Y-75550736D01*
X126506459Y-75536457D01*
X126511418Y-75522597D01*
X126517712Y-75509290D01*
X126525280Y-75496664D01*
X126534048Y-75484841D01*
X126543934Y-75473934D01*
X126554841Y-75464048D01*
X126566664Y-75455280D01*
X126579290Y-75447712D01*
X126592597Y-75441418D01*
X126606457Y-75436459D01*
X126620736Y-75432882D01*
X126635297Y-75430722D01*
X126650000Y-75430000D01*
X128300000Y-75430000D01*
X128314703Y-75430722D01*
G37*
G36*
X128314703Y-74160722D02*
G01*
X128329264Y-74162882D01*
X128343543Y-74166459D01*
X128357403Y-74171418D01*
X128370710Y-74177712D01*
X128383336Y-74185280D01*
X128395159Y-74194048D01*
X128406066Y-74203934D01*
X128415952Y-74214841D01*
X128424720Y-74226664D01*
X128432288Y-74239290D01*
X128438582Y-74252597D01*
X128443541Y-74266457D01*
X128447118Y-74280736D01*
X128449278Y-74295297D01*
X128450000Y-74310000D01*
X128450000Y-74610000D01*
X128449278Y-74624703D01*
X128447118Y-74639264D01*
X128443541Y-74653543D01*
X128438582Y-74667403D01*
X128432288Y-74680710D01*
X128424720Y-74693336D01*
X128415952Y-74705159D01*
X128406066Y-74716066D01*
X128395159Y-74725952D01*
X128383336Y-74734720D01*
X128370710Y-74742288D01*
X128357403Y-74748582D01*
X128343543Y-74753541D01*
X128329264Y-74757118D01*
X128314703Y-74759278D01*
X128300000Y-74760000D01*
X126650000Y-74760000D01*
X126635297Y-74759278D01*
X126620736Y-74757118D01*
X126606457Y-74753541D01*
X126592597Y-74748582D01*
X126579290Y-74742288D01*
X126566664Y-74734720D01*
X126554841Y-74725952D01*
X126543934Y-74716066D01*
X126534048Y-74705159D01*
X126525280Y-74693336D01*
X126517712Y-74680710D01*
X126511418Y-74667403D01*
X126506459Y-74653543D01*
X126502882Y-74639264D01*
X126500722Y-74624703D01*
X126500000Y-74610000D01*
X126500000Y-74310000D01*
X126500722Y-74295297D01*
X126502882Y-74280736D01*
X126506459Y-74266457D01*
X126511418Y-74252597D01*
X126517712Y-74239290D01*
X126525280Y-74226664D01*
X126534048Y-74214841D01*
X126543934Y-74203934D01*
X126554841Y-74194048D01*
X126566664Y-74185280D01*
X126579290Y-74177712D01*
X126592597Y-74171418D01*
X126606457Y-74166459D01*
X126620736Y-74162882D01*
X126635297Y-74160722D01*
X126650000Y-74160000D01*
X128300000Y-74160000D01*
X128314703Y-74160722D01*
G37*
G36*
X128314703Y-72890722D02*
G01*
X128329264Y-72892882D01*
X128343543Y-72896459D01*
X128357403Y-72901418D01*
X128370710Y-72907712D01*
X128383336Y-72915280D01*
X128395159Y-72924048D01*
X128406066Y-72933934D01*
X128415952Y-72944841D01*
X128424720Y-72956664D01*
X128432288Y-72969290D01*
X128438582Y-72982597D01*
X128443541Y-72996457D01*
X128447118Y-73010736D01*
X128449278Y-73025297D01*
X128450000Y-73040000D01*
X128450000Y-73340000D01*
X128449278Y-73354703D01*
X128447118Y-73369264D01*
X128443541Y-73383543D01*
X128438582Y-73397403D01*
X128432288Y-73410710D01*
X128424720Y-73423336D01*
X128415952Y-73435159D01*
X128406066Y-73446066D01*
X128395159Y-73455952D01*
X128383336Y-73464720D01*
X128370710Y-73472288D01*
X128357403Y-73478582D01*
X128343543Y-73483541D01*
X128329264Y-73487118D01*
X128314703Y-73489278D01*
X128300000Y-73490000D01*
X126650000Y-73490000D01*
X126635297Y-73489278D01*
X126620736Y-73487118D01*
X126606457Y-73483541D01*
X126592597Y-73478582D01*
X126579290Y-73472288D01*
X126566664Y-73464720D01*
X126554841Y-73455952D01*
X126543934Y-73446066D01*
X126534048Y-73435159D01*
X126525280Y-73423336D01*
X126517712Y-73410710D01*
X126511418Y-73397403D01*
X126506459Y-73383543D01*
X126502882Y-73369264D01*
X126500722Y-73354703D01*
X126500000Y-73340000D01*
X126500000Y-73040000D01*
X126500722Y-73025297D01*
X126502882Y-73010736D01*
X126506459Y-72996457D01*
X126511418Y-72982597D01*
X126517712Y-72969290D01*
X126525280Y-72956664D01*
X126534048Y-72944841D01*
X126543934Y-72933934D01*
X126554841Y-72924048D01*
X126566664Y-72915280D01*
X126579290Y-72907712D01*
X126592597Y-72901418D01*
X126606457Y-72896459D01*
X126620736Y-72892882D01*
X126635297Y-72890722D01*
X126650000Y-72890000D01*
X128300000Y-72890000D01*
X128314703Y-72890722D01*
G37*
G36*
X137210779Y-63651144D02*
G01*
X137233834Y-63654563D01*
X137256443Y-63660227D01*
X137278387Y-63668079D01*
X137299457Y-63678044D01*
X137319448Y-63690026D01*
X137338168Y-63703910D01*
X137355438Y-63719562D01*
X137371090Y-63736832D01*
X137384974Y-63755552D01*
X137396956Y-63775543D01*
X137406921Y-63796613D01*
X137414773Y-63818557D01*
X137420437Y-63841166D01*
X137423856Y-63864221D01*
X137425000Y-63887500D01*
X137425000Y-64462500D01*
X137423856Y-64485779D01*
X137420437Y-64508834D01*
X137414773Y-64531443D01*
X137406921Y-64553387D01*
X137396956Y-64574457D01*
X137384974Y-64594448D01*
X137371090Y-64613168D01*
X137355438Y-64630438D01*
X137338168Y-64646090D01*
X137319448Y-64659974D01*
X137299457Y-64671956D01*
X137278387Y-64681921D01*
X137256443Y-64689773D01*
X137233834Y-64695437D01*
X137210779Y-64698856D01*
X137187500Y-64700000D01*
X136712500Y-64700000D01*
X136689221Y-64698856D01*
X136666166Y-64695437D01*
X136643557Y-64689773D01*
X136621613Y-64681921D01*
X136600543Y-64671956D01*
X136580552Y-64659974D01*
X136561832Y-64646090D01*
X136544562Y-64630438D01*
X136528910Y-64613168D01*
X136515026Y-64594448D01*
X136503044Y-64574457D01*
X136493079Y-64553387D01*
X136485227Y-64531443D01*
X136479563Y-64508834D01*
X136476144Y-64485779D01*
X136475000Y-64462500D01*
X136475000Y-63887500D01*
X136476144Y-63864221D01*
X136479563Y-63841166D01*
X136485227Y-63818557D01*
X136493079Y-63796613D01*
X136503044Y-63775543D01*
X136515026Y-63755552D01*
X136528910Y-63736832D01*
X136544562Y-63719562D01*
X136561832Y-63703910D01*
X136580552Y-63690026D01*
X136600543Y-63678044D01*
X136621613Y-63668079D01*
X136643557Y-63660227D01*
X136666166Y-63654563D01*
X136689221Y-63651144D01*
X136712500Y-63650000D01*
X137187500Y-63650000D01*
X137210779Y-63651144D01*
G37*
G36*
X137210779Y-61901144D02*
G01*
X137233834Y-61904563D01*
X137256443Y-61910227D01*
X137278387Y-61918079D01*
X137299457Y-61928044D01*
X137319448Y-61940026D01*
X137338168Y-61953910D01*
X137355438Y-61969562D01*
X137371090Y-61986832D01*
X137384974Y-62005552D01*
X137396956Y-62025543D01*
X137406921Y-62046613D01*
X137414773Y-62068557D01*
X137420437Y-62091166D01*
X137423856Y-62114221D01*
X137425000Y-62137500D01*
X137425000Y-62712500D01*
X137423856Y-62735779D01*
X137420437Y-62758834D01*
X137414773Y-62781443D01*
X137406921Y-62803387D01*
X137396956Y-62824457D01*
X137384974Y-62844448D01*
X137371090Y-62863168D01*
X137355438Y-62880438D01*
X137338168Y-62896090D01*
X137319448Y-62909974D01*
X137299457Y-62921956D01*
X137278387Y-62931921D01*
X137256443Y-62939773D01*
X137233834Y-62945437D01*
X137210779Y-62948856D01*
X137187500Y-62950000D01*
X136712500Y-62950000D01*
X136689221Y-62948856D01*
X136666166Y-62945437D01*
X136643557Y-62939773D01*
X136621613Y-62931921D01*
X136600543Y-62921956D01*
X136580552Y-62909974D01*
X136561832Y-62896090D01*
X136544562Y-62880438D01*
X136528910Y-62863168D01*
X136515026Y-62844448D01*
X136503044Y-62824457D01*
X136493079Y-62803387D01*
X136485227Y-62781443D01*
X136479563Y-62758834D01*
X136476144Y-62735779D01*
X136475000Y-62712500D01*
X136475000Y-62137500D01*
X136476144Y-62114221D01*
X136479563Y-62091166D01*
X136485227Y-62068557D01*
X136493079Y-62046613D01*
X136503044Y-62025543D01*
X136515026Y-62005552D01*
X136528910Y-61986832D01*
X136544562Y-61969562D01*
X136561832Y-61953910D01*
X136580552Y-61940026D01*
X136600543Y-61928044D01*
X136621613Y-61918079D01*
X136643557Y-61910227D01*
X136666166Y-61904563D01*
X136689221Y-61901144D01*
X136712500Y-61900000D01*
X137187500Y-61900000D01*
X137210779Y-61901144D01*
G37*
G36*
X122260779Y-84401144D02*
G01*
X122283834Y-84404563D01*
X122306443Y-84410227D01*
X122328387Y-84418079D01*
X122349457Y-84428044D01*
X122369448Y-84440026D01*
X122388168Y-84453910D01*
X122405438Y-84469562D01*
X122421090Y-84486832D01*
X122434974Y-84505552D01*
X122446956Y-84525543D01*
X122456921Y-84546613D01*
X122464773Y-84568557D01*
X122470437Y-84591166D01*
X122473856Y-84614221D01*
X122475000Y-84637500D01*
X122475000Y-85212500D01*
X122473856Y-85235779D01*
X122470437Y-85258834D01*
X122464773Y-85281443D01*
X122456921Y-85303387D01*
X122446956Y-85324457D01*
X122434974Y-85344448D01*
X122421090Y-85363168D01*
X122405438Y-85380438D01*
X122388168Y-85396090D01*
X122369448Y-85409974D01*
X122349457Y-85421956D01*
X122328387Y-85431921D01*
X122306443Y-85439773D01*
X122283834Y-85445437D01*
X122260779Y-85448856D01*
X122237500Y-85450000D01*
X121762500Y-85450000D01*
X121739221Y-85448856D01*
X121716166Y-85445437D01*
X121693557Y-85439773D01*
X121671613Y-85431921D01*
X121650543Y-85421956D01*
X121630552Y-85409974D01*
X121611832Y-85396090D01*
X121594562Y-85380438D01*
X121578910Y-85363168D01*
X121565026Y-85344448D01*
X121553044Y-85324457D01*
X121543079Y-85303387D01*
X121535227Y-85281443D01*
X121529563Y-85258834D01*
X121526144Y-85235779D01*
X121525000Y-85212500D01*
X121525000Y-84637500D01*
X121526144Y-84614221D01*
X121529563Y-84591166D01*
X121535227Y-84568557D01*
X121543079Y-84546613D01*
X121553044Y-84525543D01*
X121565026Y-84505552D01*
X121578910Y-84486832D01*
X121594562Y-84469562D01*
X121611832Y-84453910D01*
X121630552Y-84440026D01*
X121650543Y-84428044D01*
X121671613Y-84418079D01*
X121693557Y-84410227D01*
X121716166Y-84404563D01*
X121739221Y-84401144D01*
X121762500Y-84400000D01*
X122237500Y-84400000D01*
X122260779Y-84401144D01*
G37*
G36*
X122260779Y-82651144D02*
G01*
X122283834Y-82654563D01*
X122306443Y-82660227D01*
X122328387Y-82668079D01*
X122349457Y-82678044D01*
X122369448Y-82690026D01*
X122388168Y-82703910D01*
X122405438Y-82719562D01*
X122421090Y-82736832D01*
X122434974Y-82755552D01*
X122446956Y-82775543D01*
X122456921Y-82796613D01*
X122464773Y-82818557D01*
X122470437Y-82841166D01*
X122473856Y-82864221D01*
X122475000Y-82887500D01*
X122475000Y-83462500D01*
X122473856Y-83485779D01*
X122470437Y-83508834D01*
X122464773Y-83531443D01*
X122456921Y-83553387D01*
X122446956Y-83574457D01*
X122434974Y-83594448D01*
X122421090Y-83613168D01*
X122405438Y-83630438D01*
X122388168Y-83646090D01*
X122369448Y-83659974D01*
X122349457Y-83671956D01*
X122328387Y-83681921D01*
X122306443Y-83689773D01*
X122283834Y-83695437D01*
X122260779Y-83698856D01*
X122237500Y-83700000D01*
X121762500Y-83700000D01*
X121739221Y-83698856D01*
X121716166Y-83695437D01*
X121693557Y-83689773D01*
X121671613Y-83681921D01*
X121650543Y-83671956D01*
X121630552Y-83659974D01*
X121611832Y-83646090D01*
X121594562Y-83630438D01*
X121578910Y-83613168D01*
X121565026Y-83594448D01*
X121553044Y-83574457D01*
X121543079Y-83553387D01*
X121535227Y-83531443D01*
X121529563Y-83508834D01*
X121526144Y-83485779D01*
X121525000Y-83462500D01*
X121525000Y-82887500D01*
X121526144Y-82864221D01*
X121529563Y-82841166D01*
X121535227Y-82818557D01*
X121543079Y-82796613D01*
X121553044Y-82775543D01*
X121565026Y-82755552D01*
X121578910Y-82736832D01*
X121594562Y-82719562D01*
X121611832Y-82703910D01*
X121630552Y-82690026D01*
X121650543Y-82678044D01*
X121671613Y-82668079D01*
X121693557Y-82660227D01*
X121716166Y-82654563D01*
X121739221Y-82651144D01*
X121762500Y-82650000D01*
X122237500Y-82650000D01*
X122260779Y-82651144D01*
G37*
G36*
X131710779Y-63651144D02*
G01*
X131733834Y-63654563D01*
X131756443Y-63660227D01*
X131778387Y-63668079D01*
X131799457Y-63678044D01*
X131819448Y-63690026D01*
X131838168Y-63703910D01*
X131855438Y-63719562D01*
X131871090Y-63736832D01*
X131884974Y-63755552D01*
X131896956Y-63775543D01*
X131906921Y-63796613D01*
X131914773Y-63818557D01*
X131920437Y-63841166D01*
X131923856Y-63864221D01*
X131925000Y-63887500D01*
X131925000Y-64462500D01*
X131923856Y-64485779D01*
X131920437Y-64508834D01*
X131914773Y-64531443D01*
X131906921Y-64553387D01*
X131896956Y-64574457D01*
X131884974Y-64594448D01*
X131871090Y-64613168D01*
X131855438Y-64630438D01*
X131838168Y-64646090D01*
X131819448Y-64659974D01*
X131799457Y-64671956D01*
X131778387Y-64681921D01*
X131756443Y-64689773D01*
X131733834Y-64695437D01*
X131710779Y-64698856D01*
X131687500Y-64700000D01*
X131212500Y-64700000D01*
X131189221Y-64698856D01*
X131166166Y-64695437D01*
X131143557Y-64689773D01*
X131121613Y-64681921D01*
X131100543Y-64671956D01*
X131080552Y-64659974D01*
X131061832Y-64646090D01*
X131044562Y-64630438D01*
X131028910Y-64613168D01*
X131015026Y-64594448D01*
X131003044Y-64574457D01*
X130993079Y-64553387D01*
X130985227Y-64531443D01*
X130979563Y-64508834D01*
X130976144Y-64485779D01*
X130975000Y-64462500D01*
X130975000Y-63887500D01*
X130976144Y-63864221D01*
X130979563Y-63841166D01*
X130985227Y-63818557D01*
X130993079Y-63796613D01*
X131003044Y-63775543D01*
X131015026Y-63755552D01*
X131028910Y-63736832D01*
X131044562Y-63719562D01*
X131061832Y-63703910D01*
X131080552Y-63690026D01*
X131100543Y-63678044D01*
X131121613Y-63668079D01*
X131143557Y-63660227D01*
X131166166Y-63654563D01*
X131189221Y-63651144D01*
X131212500Y-63650000D01*
X131687500Y-63650000D01*
X131710779Y-63651144D01*
G37*
G36*
X131710779Y-61901144D02*
G01*
X131733834Y-61904563D01*
X131756443Y-61910227D01*
X131778387Y-61918079D01*
X131799457Y-61928044D01*
X131819448Y-61940026D01*
X131838168Y-61953910D01*
X131855438Y-61969562D01*
X131871090Y-61986832D01*
X131884974Y-62005552D01*
X131896956Y-62025543D01*
X131906921Y-62046613D01*
X131914773Y-62068557D01*
X131920437Y-62091166D01*
X131923856Y-62114221D01*
X131925000Y-62137500D01*
X131925000Y-62712500D01*
X131923856Y-62735779D01*
X131920437Y-62758834D01*
X131914773Y-62781443D01*
X131906921Y-62803387D01*
X131896956Y-62824457D01*
X131884974Y-62844448D01*
X131871090Y-62863168D01*
X131855438Y-62880438D01*
X131838168Y-62896090D01*
X131819448Y-62909974D01*
X131799457Y-62921956D01*
X131778387Y-62931921D01*
X131756443Y-62939773D01*
X131733834Y-62945437D01*
X131710779Y-62948856D01*
X131687500Y-62950000D01*
X131212500Y-62950000D01*
X131189221Y-62948856D01*
X131166166Y-62945437D01*
X131143557Y-62939773D01*
X131121613Y-62931921D01*
X131100543Y-62921956D01*
X131080552Y-62909974D01*
X131061832Y-62896090D01*
X131044562Y-62880438D01*
X131028910Y-62863168D01*
X131015026Y-62844448D01*
X131003044Y-62824457D01*
X130993079Y-62803387D01*
X130985227Y-62781443D01*
X130979563Y-62758834D01*
X130976144Y-62735779D01*
X130975000Y-62712500D01*
X130975000Y-62137500D01*
X130976144Y-62114221D01*
X130979563Y-62091166D01*
X130985227Y-62068557D01*
X130993079Y-62046613D01*
X131003044Y-62025543D01*
X131015026Y-62005552D01*
X131028910Y-61986832D01*
X131044562Y-61969562D01*
X131061832Y-61953910D01*
X131080552Y-61940026D01*
X131100543Y-61928044D01*
X131121613Y-61918079D01*
X131143557Y-61910227D01*
X131166166Y-61904563D01*
X131189221Y-61901144D01*
X131212500Y-61900000D01*
X131687500Y-61900000D01*
X131710779Y-61901144D01*
G37*
G36*
X133510779Y-72951144D02*
G01*
X133533834Y-72954563D01*
X133556443Y-72960227D01*
X133578387Y-72968079D01*
X133599457Y-72978044D01*
X133619448Y-72990026D01*
X133638168Y-73003910D01*
X133655438Y-73019562D01*
X133671090Y-73036832D01*
X133684974Y-73055552D01*
X133696956Y-73075543D01*
X133706921Y-73096613D01*
X133714773Y-73118557D01*
X133720437Y-73141166D01*
X133723856Y-73164221D01*
X133725000Y-73187500D01*
X133725000Y-73762500D01*
X133723856Y-73785779D01*
X133720437Y-73808834D01*
X133714773Y-73831443D01*
X133706921Y-73853387D01*
X133696956Y-73874457D01*
X133684974Y-73894448D01*
X133671090Y-73913168D01*
X133655438Y-73930438D01*
X133638168Y-73946090D01*
X133619448Y-73959974D01*
X133599457Y-73971956D01*
X133578387Y-73981921D01*
X133556443Y-73989773D01*
X133533834Y-73995437D01*
X133510779Y-73998856D01*
X133487500Y-74000000D01*
X133012500Y-74000000D01*
X132989221Y-73998856D01*
X132966166Y-73995437D01*
X132943557Y-73989773D01*
X132921613Y-73981921D01*
X132900543Y-73971956D01*
X132880552Y-73959974D01*
X132861832Y-73946090D01*
X132844562Y-73930438D01*
X132828910Y-73913168D01*
X132815026Y-73894448D01*
X132803044Y-73874457D01*
X132793079Y-73853387D01*
X132785227Y-73831443D01*
X132779563Y-73808834D01*
X132776144Y-73785779D01*
X132775000Y-73762500D01*
X132775000Y-73187500D01*
X132776144Y-73164221D01*
X132779563Y-73141166D01*
X132785227Y-73118557D01*
X132793079Y-73096613D01*
X132803044Y-73075543D01*
X132815026Y-73055552D01*
X132828910Y-73036832D01*
X132844562Y-73019562D01*
X132861832Y-73003910D01*
X132880552Y-72990026D01*
X132900543Y-72978044D01*
X132921613Y-72968079D01*
X132943557Y-72960227D01*
X132966166Y-72954563D01*
X132989221Y-72951144D01*
X133012500Y-72950000D01*
X133487500Y-72950000D01*
X133510779Y-72951144D01*
G37*
G36*
X133510779Y-74701144D02*
G01*
X133533834Y-74704563D01*
X133556443Y-74710227D01*
X133578387Y-74718079D01*
X133599457Y-74728044D01*
X133619448Y-74740026D01*
X133638168Y-74753910D01*
X133655438Y-74769562D01*
X133671090Y-74786832D01*
X133684974Y-74805552D01*
X133696956Y-74825543D01*
X133706921Y-74846613D01*
X133714773Y-74868557D01*
X133720437Y-74891166D01*
X133723856Y-74914221D01*
X133725000Y-74937500D01*
X133725000Y-75512500D01*
X133723856Y-75535779D01*
X133720437Y-75558834D01*
X133714773Y-75581443D01*
X133706921Y-75603387D01*
X133696956Y-75624457D01*
X133684974Y-75644448D01*
X133671090Y-75663168D01*
X133655438Y-75680438D01*
X133638168Y-75696090D01*
X133619448Y-75709974D01*
X133599457Y-75721956D01*
X133578387Y-75731921D01*
X133556443Y-75739773D01*
X133533834Y-75745437D01*
X133510779Y-75748856D01*
X133487500Y-75750000D01*
X133012500Y-75750000D01*
X132989221Y-75748856D01*
X132966166Y-75745437D01*
X132943557Y-75739773D01*
X132921613Y-75731921D01*
X132900543Y-75721956D01*
X132880552Y-75709974D01*
X132861832Y-75696090D01*
X132844562Y-75680438D01*
X132828910Y-75663168D01*
X132815026Y-75644448D01*
X132803044Y-75624457D01*
X132793079Y-75603387D01*
X132785227Y-75581443D01*
X132779563Y-75558834D01*
X132776144Y-75535779D01*
X132775000Y-75512500D01*
X132775000Y-74937500D01*
X132776144Y-74914221D01*
X132779563Y-74891166D01*
X132785227Y-74868557D01*
X132793079Y-74846613D01*
X132803044Y-74825543D01*
X132815026Y-74805552D01*
X132828910Y-74786832D01*
X132844562Y-74769562D01*
X132861832Y-74753910D01*
X132880552Y-74740026D01*
X132900543Y-74728044D01*
X132921613Y-74718079D01*
X132943557Y-74710227D01*
X132966166Y-74704563D01*
X132989221Y-74701144D01*
X133012500Y-74700000D01*
X133487500Y-74700000D01*
X133510779Y-74701144D01*
G37*
G36*
X129710779Y-63651144D02*
G01*
X129733834Y-63654563D01*
X129756443Y-63660227D01*
X129778387Y-63668079D01*
X129799457Y-63678044D01*
X129819448Y-63690026D01*
X129838168Y-63703910D01*
X129855438Y-63719562D01*
X129871090Y-63736832D01*
X129884974Y-63755552D01*
X129896956Y-63775543D01*
X129906921Y-63796613D01*
X129914773Y-63818557D01*
X129920437Y-63841166D01*
X129923856Y-63864221D01*
X129925000Y-63887500D01*
X129925000Y-64462500D01*
X129923856Y-64485779D01*
X129920437Y-64508834D01*
X129914773Y-64531443D01*
X129906921Y-64553387D01*
X129896956Y-64574457D01*
X129884974Y-64594448D01*
X129871090Y-64613168D01*
X129855438Y-64630438D01*
X129838168Y-64646090D01*
X129819448Y-64659974D01*
X129799457Y-64671956D01*
X129778387Y-64681921D01*
X129756443Y-64689773D01*
X129733834Y-64695437D01*
X129710779Y-64698856D01*
X129687500Y-64700000D01*
X129212500Y-64700000D01*
X129189221Y-64698856D01*
X129166166Y-64695437D01*
X129143557Y-64689773D01*
X129121613Y-64681921D01*
X129100543Y-64671956D01*
X129080552Y-64659974D01*
X129061832Y-64646090D01*
X129044562Y-64630438D01*
X129028910Y-64613168D01*
X129015026Y-64594448D01*
X129003044Y-64574457D01*
X128993079Y-64553387D01*
X128985227Y-64531443D01*
X128979563Y-64508834D01*
X128976144Y-64485779D01*
X128975000Y-64462500D01*
X128975000Y-63887500D01*
X128976144Y-63864221D01*
X128979563Y-63841166D01*
X128985227Y-63818557D01*
X128993079Y-63796613D01*
X129003044Y-63775543D01*
X129015026Y-63755552D01*
X129028910Y-63736832D01*
X129044562Y-63719562D01*
X129061832Y-63703910D01*
X129080552Y-63690026D01*
X129100543Y-63678044D01*
X129121613Y-63668079D01*
X129143557Y-63660227D01*
X129166166Y-63654563D01*
X129189221Y-63651144D01*
X129212500Y-63650000D01*
X129687500Y-63650000D01*
X129710779Y-63651144D01*
G37*
G36*
X129710779Y-61901144D02*
G01*
X129733834Y-61904563D01*
X129756443Y-61910227D01*
X129778387Y-61918079D01*
X129799457Y-61928044D01*
X129819448Y-61940026D01*
X129838168Y-61953910D01*
X129855438Y-61969562D01*
X129871090Y-61986832D01*
X129884974Y-62005552D01*
X129896956Y-62025543D01*
X129906921Y-62046613D01*
X129914773Y-62068557D01*
X129920437Y-62091166D01*
X129923856Y-62114221D01*
X129925000Y-62137500D01*
X129925000Y-62712500D01*
X129923856Y-62735779D01*
X129920437Y-62758834D01*
X129914773Y-62781443D01*
X129906921Y-62803387D01*
X129896956Y-62824457D01*
X129884974Y-62844448D01*
X129871090Y-62863168D01*
X129855438Y-62880438D01*
X129838168Y-62896090D01*
X129819448Y-62909974D01*
X129799457Y-62921956D01*
X129778387Y-62931921D01*
X129756443Y-62939773D01*
X129733834Y-62945437D01*
X129710779Y-62948856D01*
X129687500Y-62950000D01*
X129212500Y-62950000D01*
X129189221Y-62948856D01*
X129166166Y-62945437D01*
X129143557Y-62939773D01*
X129121613Y-62931921D01*
X129100543Y-62921956D01*
X129080552Y-62909974D01*
X129061832Y-62896090D01*
X129044562Y-62880438D01*
X129028910Y-62863168D01*
X129015026Y-62844448D01*
X129003044Y-62824457D01*
X128993079Y-62803387D01*
X128985227Y-62781443D01*
X128979563Y-62758834D01*
X128976144Y-62735779D01*
X128975000Y-62712500D01*
X128975000Y-62137500D01*
X128976144Y-62114221D01*
X128979563Y-62091166D01*
X128985227Y-62068557D01*
X128993079Y-62046613D01*
X129003044Y-62025543D01*
X129015026Y-62005552D01*
X129028910Y-61986832D01*
X129044562Y-61969562D01*
X129061832Y-61953910D01*
X129080552Y-61940026D01*
X129100543Y-61928044D01*
X129121613Y-61918079D01*
X129143557Y-61910227D01*
X129166166Y-61904563D01*
X129189221Y-61901144D01*
X129212500Y-61900000D01*
X129687500Y-61900000D01*
X129710779Y-61901144D01*
G37*
G36*
X120010779Y-74551144D02*
G01*
X120033834Y-74554563D01*
X120056443Y-74560227D01*
X120078387Y-74568079D01*
X120099457Y-74578044D01*
X120119448Y-74590026D01*
X120138168Y-74603910D01*
X120155438Y-74619562D01*
X120171090Y-74636832D01*
X120184974Y-74655552D01*
X120196956Y-74675543D01*
X120206921Y-74696613D01*
X120214773Y-74718557D01*
X120220437Y-74741166D01*
X120223856Y-74764221D01*
X120225000Y-74787500D01*
X120225000Y-75362500D01*
X120223856Y-75385779D01*
X120220437Y-75408834D01*
X120214773Y-75431443D01*
X120206921Y-75453387D01*
X120196956Y-75474457D01*
X120184974Y-75494448D01*
X120171090Y-75513168D01*
X120155438Y-75530438D01*
X120138168Y-75546090D01*
X120119448Y-75559974D01*
X120099457Y-75571956D01*
X120078387Y-75581921D01*
X120056443Y-75589773D01*
X120033834Y-75595437D01*
X120010779Y-75598856D01*
X119987500Y-75600000D01*
X119512500Y-75600000D01*
X119489221Y-75598856D01*
X119466166Y-75595437D01*
X119443557Y-75589773D01*
X119421613Y-75581921D01*
X119400543Y-75571956D01*
X119380552Y-75559974D01*
X119361832Y-75546090D01*
X119344562Y-75530438D01*
X119328910Y-75513168D01*
X119315026Y-75494448D01*
X119303044Y-75474457D01*
X119293079Y-75453387D01*
X119285227Y-75431443D01*
X119279563Y-75408834D01*
X119276144Y-75385779D01*
X119275000Y-75362500D01*
X119275000Y-74787500D01*
X119276144Y-74764221D01*
X119279563Y-74741166D01*
X119285227Y-74718557D01*
X119293079Y-74696613D01*
X119303044Y-74675543D01*
X119315026Y-74655552D01*
X119328910Y-74636832D01*
X119344562Y-74619562D01*
X119361832Y-74603910D01*
X119380552Y-74590026D01*
X119400543Y-74578044D01*
X119421613Y-74568079D01*
X119443557Y-74560227D01*
X119466166Y-74554563D01*
X119489221Y-74551144D01*
X119512500Y-74550000D01*
X119987500Y-74550000D01*
X120010779Y-74551144D01*
G37*
G36*
X120010779Y-72801144D02*
G01*
X120033834Y-72804563D01*
X120056443Y-72810227D01*
X120078387Y-72818079D01*
X120099457Y-72828044D01*
X120119448Y-72840026D01*
X120138168Y-72853910D01*
X120155438Y-72869562D01*
X120171090Y-72886832D01*
X120184974Y-72905552D01*
X120196956Y-72925543D01*
X120206921Y-72946613D01*
X120214773Y-72968557D01*
X120220437Y-72991166D01*
X120223856Y-73014221D01*
X120225000Y-73037500D01*
X120225000Y-73612500D01*
X120223856Y-73635779D01*
X120220437Y-73658834D01*
X120214773Y-73681443D01*
X120206921Y-73703387D01*
X120196956Y-73724457D01*
X120184974Y-73744448D01*
X120171090Y-73763168D01*
X120155438Y-73780438D01*
X120138168Y-73796090D01*
X120119448Y-73809974D01*
X120099457Y-73821956D01*
X120078387Y-73831921D01*
X120056443Y-73839773D01*
X120033834Y-73845437D01*
X120010779Y-73848856D01*
X119987500Y-73850000D01*
X119512500Y-73850000D01*
X119489221Y-73848856D01*
X119466166Y-73845437D01*
X119443557Y-73839773D01*
X119421613Y-73831921D01*
X119400543Y-73821956D01*
X119380552Y-73809974D01*
X119361832Y-73796090D01*
X119344562Y-73780438D01*
X119328910Y-73763168D01*
X119315026Y-73744448D01*
X119303044Y-73724457D01*
X119293079Y-73703387D01*
X119285227Y-73681443D01*
X119279563Y-73658834D01*
X119276144Y-73635779D01*
X119275000Y-73612500D01*
X119275000Y-73037500D01*
X119276144Y-73014221D01*
X119279563Y-72991166D01*
X119285227Y-72968557D01*
X119293079Y-72946613D01*
X119303044Y-72925543D01*
X119315026Y-72905552D01*
X119328910Y-72886832D01*
X119344562Y-72869562D01*
X119361832Y-72853910D01*
X119380552Y-72840026D01*
X119400543Y-72828044D01*
X119421613Y-72818079D01*
X119443557Y-72810227D01*
X119466166Y-72804563D01*
X119489221Y-72801144D01*
X119512500Y-72800000D01*
X119987500Y-72800000D01*
X120010779Y-72801144D01*
G37*
G36*
X114060779Y-81151144D02*
G01*
X114083834Y-81154563D01*
X114106443Y-81160227D01*
X114128387Y-81168079D01*
X114149457Y-81178044D01*
X114169448Y-81190026D01*
X114188168Y-81203910D01*
X114205438Y-81219562D01*
X114221090Y-81236832D01*
X114234974Y-81255552D01*
X114246956Y-81275543D01*
X114256921Y-81296613D01*
X114264773Y-81318557D01*
X114270437Y-81341166D01*
X114273856Y-81364221D01*
X114275000Y-81387500D01*
X114275000Y-81962500D01*
X114273856Y-81985779D01*
X114270437Y-82008834D01*
X114264773Y-82031443D01*
X114256921Y-82053387D01*
X114246956Y-82074457D01*
X114234974Y-82094448D01*
X114221090Y-82113168D01*
X114205438Y-82130438D01*
X114188168Y-82146090D01*
X114169448Y-82159974D01*
X114149457Y-82171956D01*
X114128387Y-82181921D01*
X114106443Y-82189773D01*
X114083834Y-82195437D01*
X114060779Y-82198856D01*
X114037500Y-82200000D01*
X113562500Y-82200000D01*
X113539221Y-82198856D01*
X113516166Y-82195437D01*
X113493557Y-82189773D01*
X113471613Y-82181921D01*
X113450543Y-82171956D01*
X113430552Y-82159974D01*
X113411832Y-82146090D01*
X113394562Y-82130438D01*
X113378910Y-82113168D01*
X113365026Y-82094448D01*
X113353044Y-82074457D01*
X113343079Y-82053387D01*
X113335227Y-82031443D01*
X113329563Y-82008834D01*
X113326144Y-81985779D01*
X113325000Y-81962500D01*
X113325000Y-81387500D01*
X113326144Y-81364221D01*
X113329563Y-81341166D01*
X113335227Y-81318557D01*
X113343079Y-81296613D01*
X113353044Y-81275543D01*
X113365026Y-81255552D01*
X113378910Y-81236832D01*
X113394562Y-81219562D01*
X113411832Y-81203910D01*
X113430552Y-81190026D01*
X113450543Y-81178044D01*
X113471613Y-81168079D01*
X113493557Y-81160227D01*
X113516166Y-81154563D01*
X113539221Y-81151144D01*
X113562500Y-81150000D01*
X114037500Y-81150000D01*
X114060779Y-81151144D01*
G37*
G36*
X114060779Y-79401144D02*
G01*
X114083834Y-79404563D01*
X114106443Y-79410227D01*
X114128387Y-79418079D01*
X114149457Y-79428044D01*
X114169448Y-79440026D01*
X114188168Y-79453910D01*
X114205438Y-79469562D01*
X114221090Y-79486832D01*
X114234974Y-79505552D01*
X114246956Y-79525543D01*
X114256921Y-79546613D01*
X114264773Y-79568557D01*
X114270437Y-79591166D01*
X114273856Y-79614221D01*
X114275000Y-79637500D01*
X114275000Y-80212500D01*
X114273856Y-80235779D01*
X114270437Y-80258834D01*
X114264773Y-80281443D01*
X114256921Y-80303387D01*
X114246956Y-80324457D01*
X114234974Y-80344448D01*
X114221090Y-80363168D01*
X114205438Y-80380438D01*
X114188168Y-80396090D01*
X114169448Y-80409974D01*
X114149457Y-80421956D01*
X114128387Y-80431921D01*
X114106443Y-80439773D01*
X114083834Y-80445437D01*
X114060779Y-80448856D01*
X114037500Y-80450000D01*
X113562500Y-80450000D01*
X113539221Y-80448856D01*
X113516166Y-80445437D01*
X113493557Y-80439773D01*
X113471613Y-80431921D01*
X113450543Y-80421956D01*
X113430552Y-80409974D01*
X113411832Y-80396090D01*
X113394562Y-80380438D01*
X113378910Y-80363168D01*
X113365026Y-80344448D01*
X113353044Y-80324457D01*
X113343079Y-80303387D01*
X113335227Y-80281443D01*
X113329563Y-80258834D01*
X113326144Y-80235779D01*
X113325000Y-80212500D01*
X113325000Y-79637500D01*
X113326144Y-79614221D01*
X113329563Y-79591166D01*
X113335227Y-79568557D01*
X113343079Y-79546613D01*
X113353044Y-79525543D01*
X113365026Y-79505552D01*
X113378910Y-79486832D01*
X113394562Y-79469562D01*
X113411832Y-79453910D01*
X113430552Y-79440026D01*
X113450543Y-79428044D01*
X113471613Y-79418079D01*
X113493557Y-79410227D01*
X113516166Y-79404563D01*
X113539221Y-79401144D01*
X113562500Y-79400000D01*
X114037500Y-79400000D01*
X114060779Y-79401144D01*
G37*
G36*
X116560779Y-81126144D02*
G01*
X116583834Y-81129563D01*
X116606443Y-81135227D01*
X116628387Y-81143079D01*
X116649457Y-81153044D01*
X116669448Y-81165026D01*
X116688168Y-81178910D01*
X116705438Y-81194562D01*
X116721090Y-81211832D01*
X116734974Y-81230552D01*
X116746956Y-81250543D01*
X116756921Y-81271613D01*
X116764773Y-81293557D01*
X116770437Y-81316166D01*
X116773856Y-81339221D01*
X116775000Y-81362500D01*
X116775000Y-81937500D01*
X116773856Y-81960779D01*
X116770437Y-81983834D01*
X116764773Y-82006443D01*
X116756921Y-82028387D01*
X116746956Y-82049457D01*
X116734974Y-82069448D01*
X116721090Y-82088168D01*
X116705438Y-82105438D01*
X116688168Y-82121090D01*
X116669448Y-82134974D01*
X116649457Y-82146956D01*
X116628387Y-82156921D01*
X116606443Y-82164773D01*
X116583834Y-82170437D01*
X116560779Y-82173856D01*
X116537500Y-82175000D01*
X116062500Y-82175000D01*
X116039221Y-82173856D01*
X116016166Y-82170437D01*
X115993557Y-82164773D01*
X115971613Y-82156921D01*
X115950543Y-82146956D01*
X115930552Y-82134974D01*
X115911832Y-82121090D01*
X115894562Y-82105438D01*
X115878910Y-82088168D01*
X115865026Y-82069448D01*
X115853044Y-82049457D01*
X115843079Y-82028387D01*
X115835227Y-82006443D01*
X115829563Y-81983834D01*
X115826144Y-81960779D01*
X115825000Y-81937500D01*
X115825000Y-81362500D01*
X115826144Y-81339221D01*
X115829563Y-81316166D01*
X115835227Y-81293557D01*
X115843079Y-81271613D01*
X115853044Y-81250543D01*
X115865026Y-81230552D01*
X115878910Y-81211832D01*
X115894562Y-81194562D01*
X115911832Y-81178910D01*
X115930552Y-81165026D01*
X115950543Y-81153044D01*
X115971613Y-81143079D01*
X115993557Y-81135227D01*
X116016166Y-81129563D01*
X116039221Y-81126144D01*
X116062500Y-81125000D01*
X116537500Y-81125000D01*
X116560779Y-81126144D01*
G37*
G36*
X116560779Y-79376144D02*
G01*
X116583834Y-79379563D01*
X116606443Y-79385227D01*
X116628387Y-79393079D01*
X116649457Y-79403044D01*
X116669448Y-79415026D01*
X116688168Y-79428910D01*
X116705438Y-79444562D01*
X116721090Y-79461832D01*
X116734974Y-79480552D01*
X116746956Y-79500543D01*
X116756921Y-79521613D01*
X116764773Y-79543557D01*
X116770437Y-79566166D01*
X116773856Y-79589221D01*
X116775000Y-79612500D01*
X116775000Y-80187500D01*
X116773856Y-80210779D01*
X116770437Y-80233834D01*
X116764773Y-80256443D01*
X116756921Y-80278387D01*
X116746956Y-80299457D01*
X116734974Y-80319448D01*
X116721090Y-80338168D01*
X116705438Y-80355438D01*
X116688168Y-80371090D01*
X116669448Y-80384974D01*
X116649457Y-80396956D01*
X116628387Y-80406921D01*
X116606443Y-80414773D01*
X116583834Y-80420437D01*
X116560779Y-80423856D01*
X116537500Y-80425000D01*
X116062500Y-80425000D01*
X116039221Y-80423856D01*
X116016166Y-80420437D01*
X115993557Y-80414773D01*
X115971613Y-80406921D01*
X115950543Y-80396956D01*
X115930552Y-80384974D01*
X115911832Y-80371090D01*
X115894562Y-80355438D01*
X115878910Y-80338168D01*
X115865026Y-80319448D01*
X115853044Y-80299457D01*
X115843079Y-80278387D01*
X115835227Y-80256443D01*
X115829563Y-80233834D01*
X115826144Y-80210779D01*
X115825000Y-80187500D01*
X115825000Y-79612500D01*
X115826144Y-79589221D01*
X115829563Y-79566166D01*
X115835227Y-79543557D01*
X115843079Y-79521613D01*
X115853044Y-79500543D01*
X115865026Y-79480552D01*
X115878910Y-79461832D01*
X115894562Y-79444562D01*
X115911832Y-79428910D01*
X115930552Y-79415026D01*
X115950543Y-79403044D01*
X115971613Y-79393079D01*
X115993557Y-79385227D01*
X116016166Y-79379563D01*
X116039221Y-79376144D01*
X116062500Y-79375000D01*
X116537500Y-79375000D01*
X116560779Y-79376144D01*
G37*
G36*
X124260779Y-82651144D02*
G01*
X124283834Y-82654563D01*
X124306443Y-82660227D01*
X124328387Y-82668079D01*
X124349457Y-82678044D01*
X124369448Y-82690026D01*
X124388168Y-82703910D01*
X124405438Y-82719562D01*
X124421090Y-82736832D01*
X124434974Y-82755552D01*
X124446956Y-82775543D01*
X124456921Y-82796613D01*
X124464773Y-82818557D01*
X124470437Y-82841166D01*
X124473856Y-82864221D01*
X124475000Y-82887500D01*
X124475000Y-83462500D01*
X124473856Y-83485779D01*
X124470437Y-83508834D01*
X124464773Y-83531443D01*
X124456921Y-83553387D01*
X124446956Y-83574457D01*
X124434974Y-83594448D01*
X124421090Y-83613168D01*
X124405438Y-83630438D01*
X124388168Y-83646090D01*
X124369448Y-83659974D01*
X124349457Y-83671956D01*
X124328387Y-83681921D01*
X124306443Y-83689773D01*
X124283834Y-83695437D01*
X124260779Y-83698856D01*
X124237500Y-83700000D01*
X123762500Y-83700000D01*
X123739221Y-83698856D01*
X123716166Y-83695437D01*
X123693557Y-83689773D01*
X123671613Y-83681921D01*
X123650543Y-83671956D01*
X123630552Y-83659974D01*
X123611832Y-83646090D01*
X123594562Y-83630438D01*
X123578910Y-83613168D01*
X123565026Y-83594448D01*
X123553044Y-83574457D01*
X123543079Y-83553387D01*
X123535227Y-83531443D01*
X123529563Y-83508834D01*
X123526144Y-83485779D01*
X123525000Y-83462500D01*
X123525000Y-82887500D01*
X123526144Y-82864221D01*
X123529563Y-82841166D01*
X123535227Y-82818557D01*
X123543079Y-82796613D01*
X123553044Y-82775543D01*
X123565026Y-82755552D01*
X123578910Y-82736832D01*
X123594562Y-82719562D01*
X123611832Y-82703910D01*
X123630552Y-82690026D01*
X123650543Y-82678044D01*
X123671613Y-82668079D01*
X123693557Y-82660227D01*
X123716166Y-82654563D01*
X123739221Y-82651144D01*
X123762500Y-82650000D01*
X124237500Y-82650000D01*
X124260779Y-82651144D01*
G37*
G36*
X124260779Y-84401144D02*
G01*
X124283834Y-84404563D01*
X124306443Y-84410227D01*
X124328387Y-84418079D01*
X124349457Y-84428044D01*
X124369448Y-84440026D01*
X124388168Y-84453910D01*
X124405438Y-84469562D01*
X124421090Y-84486832D01*
X124434974Y-84505552D01*
X124446956Y-84525543D01*
X124456921Y-84546613D01*
X124464773Y-84568557D01*
X124470437Y-84591166D01*
X124473856Y-84614221D01*
X124475000Y-84637500D01*
X124475000Y-85212500D01*
X124473856Y-85235779D01*
X124470437Y-85258834D01*
X124464773Y-85281443D01*
X124456921Y-85303387D01*
X124446956Y-85324457D01*
X124434974Y-85344448D01*
X124421090Y-85363168D01*
X124405438Y-85380438D01*
X124388168Y-85396090D01*
X124369448Y-85409974D01*
X124349457Y-85421956D01*
X124328387Y-85431921D01*
X124306443Y-85439773D01*
X124283834Y-85445437D01*
X124260779Y-85448856D01*
X124237500Y-85450000D01*
X123762500Y-85450000D01*
X123739221Y-85448856D01*
X123716166Y-85445437D01*
X123693557Y-85439773D01*
X123671613Y-85431921D01*
X123650543Y-85421956D01*
X123630552Y-85409974D01*
X123611832Y-85396090D01*
X123594562Y-85380438D01*
X123578910Y-85363168D01*
X123565026Y-85344448D01*
X123553044Y-85324457D01*
X123543079Y-85303387D01*
X123535227Y-85281443D01*
X123529563Y-85258834D01*
X123526144Y-85235779D01*
X123525000Y-85212500D01*
X123525000Y-84637500D01*
X123526144Y-84614221D01*
X123529563Y-84591166D01*
X123535227Y-84568557D01*
X123543079Y-84546613D01*
X123553044Y-84525543D01*
X123565026Y-84505552D01*
X123578910Y-84486832D01*
X123594562Y-84469562D01*
X123611832Y-84453910D01*
X123630552Y-84440026D01*
X123650543Y-84428044D01*
X123671613Y-84418079D01*
X123693557Y-84410227D01*
X123716166Y-84404563D01*
X123739221Y-84401144D01*
X123762500Y-84400000D01*
X124237500Y-84400000D01*
X124260779Y-84401144D01*
G37*
G36*
X120027691Y-76276053D02*
G01*
X120048926Y-76279203D01*
X120069750Y-76284419D01*
X120089962Y-76291651D01*
X120109368Y-76300830D01*
X120127781Y-76311866D01*
X120145024Y-76324654D01*
X120160930Y-76339070D01*
X120175346Y-76354976D01*
X120188134Y-76372219D01*
X120199170Y-76390632D01*
X120208349Y-76410038D01*
X120215581Y-76430250D01*
X120220797Y-76451074D01*
X120223947Y-76472309D01*
X120225000Y-76493750D01*
X120225000Y-76931250D01*
X120223947Y-76952691D01*
X120220797Y-76973926D01*
X120215581Y-76994750D01*
X120208349Y-77014962D01*
X120199170Y-77034368D01*
X120188134Y-77052781D01*
X120175346Y-77070024D01*
X120160930Y-77085930D01*
X120145024Y-77100346D01*
X120127781Y-77113134D01*
X120109368Y-77124170D01*
X120089962Y-77133349D01*
X120069750Y-77140581D01*
X120048926Y-77145797D01*
X120027691Y-77148947D01*
X120006250Y-77150000D01*
X119493750Y-77150000D01*
X119472309Y-77148947D01*
X119451074Y-77145797D01*
X119430250Y-77140581D01*
X119410038Y-77133349D01*
X119390632Y-77124170D01*
X119372219Y-77113134D01*
X119354976Y-77100346D01*
X119339070Y-77085930D01*
X119324654Y-77070024D01*
X119311866Y-77052781D01*
X119300830Y-77034368D01*
X119291651Y-77014962D01*
X119284419Y-76994750D01*
X119279203Y-76973926D01*
X119276053Y-76952691D01*
X119275000Y-76931250D01*
X119275000Y-76493750D01*
X119276053Y-76472309D01*
X119279203Y-76451074D01*
X119284419Y-76430250D01*
X119291651Y-76410038D01*
X119300830Y-76390632D01*
X119311866Y-76372219D01*
X119324654Y-76354976D01*
X119339070Y-76339070D01*
X119354976Y-76324654D01*
X119372219Y-76311866D01*
X119390632Y-76300830D01*
X119410038Y-76291651D01*
X119430250Y-76284419D01*
X119451074Y-76279203D01*
X119472309Y-76276053D01*
X119493750Y-76275000D01*
X120006250Y-76275000D01*
X120027691Y-76276053D01*
G37*
G36*
X120027691Y-77851053D02*
G01*
X120048926Y-77854203D01*
X120069750Y-77859419D01*
X120089962Y-77866651D01*
X120109368Y-77875830D01*
X120127781Y-77886866D01*
X120145024Y-77899654D01*
X120160930Y-77914070D01*
X120175346Y-77929976D01*
X120188134Y-77947219D01*
X120199170Y-77965632D01*
X120208349Y-77985038D01*
X120215581Y-78005250D01*
X120220797Y-78026074D01*
X120223947Y-78047309D01*
X120225000Y-78068750D01*
X120225000Y-78506250D01*
X120223947Y-78527691D01*
X120220797Y-78548926D01*
X120215581Y-78569750D01*
X120208349Y-78589962D01*
X120199170Y-78609368D01*
X120188134Y-78627781D01*
X120175346Y-78645024D01*
X120160930Y-78660930D01*
X120145024Y-78675346D01*
X120127781Y-78688134D01*
X120109368Y-78699170D01*
X120089962Y-78708349D01*
X120069750Y-78715581D01*
X120048926Y-78720797D01*
X120027691Y-78723947D01*
X120006250Y-78725000D01*
X119493750Y-78725000D01*
X119472309Y-78723947D01*
X119451074Y-78720797D01*
X119430250Y-78715581D01*
X119410038Y-78708349D01*
X119390632Y-78699170D01*
X119372219Y-78688134D01*
X119354976Y-78675346D01*
X119339070Y-78660930D01*
X119324654Y-78645024D01*
X119311866Y-78627781D01*
X119300830Y-78609368D01*
X119291651Y-78589962D01*
X119284419Y-78569750D01*
X119279203Y-78548926D01*
X119276053Y-78527691D01*
X119275000Y-78506250D01*
X119275000Y-78068750D01*
X119276053Y-78047309D01*
X119279203Y-78026074D01*
X119284419Y-78005250D01*
X119291651Y-77985038D01*
X119300830Y-77965632D01*
X119311866Y-77947219D01*
X119324654Y-77929976D01*
X119339070Y-77914070D01*
X119354976Y-77899654D01*
X119372219Y-77886866D01*
X119390632Y-77875830D01*
X119410038Y-77866651D01*
X119430250Y-77859419D01*
X119451074Y-77854203D01*
X119472309Y-77851053D01*
X119493750Y-77850000D01*
X120006250Y-77850000D01*
X120027691Y-77851053D01*
G37*
G36*
X120027691Y-79526053D02*
G01*
X120048926Y-79529203D01*
X120069750Y-79534419D01*
X120089962Y-79541651D01*
X120109368Y-79550830D01*
X120127781Y-79561866D01*
X120145024Y-79574654D01*
X120160930Y-79589070D01*
X120175346Y-79604976D01*
X120188134Y-79622219D01*
X120199170Y-79640632D01*
X120208349Y-79660038D01*
X120215581Y-79680250D01*
X120220797Y-79701074D01*
X120223947Y-79722309D01*
X120225000Y-79743750D01*
X120225000Y-80181250D01*
X120223947Y-80202691D01*
X120220797Y-80223926D01*
X120215581Y-80244750D01*
X120208349Y-80264962D01*
X120199170Y-80284368D01*
X120188134Y-80302781D01*
X120175346Y-80320024D01*
X120160930Y-80335930D01*
X120145024Y-80350346D01*
X120127781Y-80363134D01*
X120109368Y-80374170D01*
X120089962Y-80383349D01*
X120069750Y-80390581D01*
X120048926Y-80395797D01*
X120027691Y-80398947D01*
X120006250Y-80400000D01*
X119493750Y-80400000D01*
X119472309Y-80398947D01*
X119451074Y-80395797D01*
X119430250Y-80390581D01*
X119410038Y-80383349D01*
X119390632Y-80374170D01*
X119372219Y-80363134D01*
X119354976Y-80350346D01*
X119339070Y-80335930D01*
X119324654Y-80320024D01*
X119311866Y-80302781D01*
X119300830Y-80284368D01*
X119291651Y-80264962D01*
X119284419Y-80244750D01*
X119279203Y-80223926D01*
X119276053Y-80202691D01*
X119275000Y-80181250D01*
X119275000Y-79743750D01*
X119276053Y-79722309D01*
X119279203Y-79701074D01*
X119284419Y-79680250D01*
X119291651Y-79660038D01*
X119300830Y-79640632D01*
X119311866Y-79622219D01*
X119324654Y-79604976D01*
X119339070Y-79589070D01*
X119354976Y-79574654D01*
X119372219Y-79561866D01*
X119390632Y-79550830D01*
X119410038Y-79541651D01*
X119430250Y-79534419D01*
X119451074Y-79529203D01*
X119472309Y-79526053D01*
X119493750Y-79525000D01*
X120006250Y-79525000D01*
X120027691Y-79526053D01*
G37*
G36*
X120027691Y-81101053D02*
G01*
X120048926Y-81104203D01*
X120069750Y-81109419D01*
X120089962Y-81116651D01*
X120109368Y-81125830D01*
X120127781Y-81136866D01*
X120145024Y-81149654D01*
X120160930Y-81164070D01*
X120175346Y-81179976D01*
X120188134Y-81197219D01*
X120199170Y-81215632D01*
X120208349Y-81235038D01*
X120215581Y-81255250D01*
X120220797Y-81276074D01*
X120223947Y-81297309D01*
X120225000Y-81318750D01*
X120225000Y-81756250D01*
X120223947Y-81777691D01*
X120220797Y-81798926D01*
X120215581Y-81819750D01*
X120208349Y-81839962D01*
X120199170Y-81859368D01*
X120188134Y-81877781D01*
X120175346Y-81895024D01*
X120160930Y-81910930D01*
X120145024Y-81925346D01*
X120127781Y-81938134D01*
X120109368Y-81949170D01*
X120089962Y-81958349D01*
X120069750Y-81965581D01*
X120048926Y-81970797D01*
X120027691Y-81973947D01*
X120006250Y-81975000D01*
X119493750Y-81975000D01*
X119472309Y-81973947D01*
X119451074Y-81970797D01*
X119430250Y-81965581D01*
X119410038Y-81958349D01*
X119390632Y-81949170D01*
X119372219Y-81938134D01*
X119354976Y-81925346D01*
X119339070Y-81910930D01*
X119324654Y-81895024D01*
X119311866Y-81877781D01*
X119300830Y-81859368D01*
X119291651Y-81839962D01*
X119284419Y-81819750D01*
X119279203Y-81798926D01*
X119276053Y-81777691D01*
X119275000Y-81756250D01*
X119275000Y-81318750D01*
X119276053Y-81297309D01*
X119279203Y-81276074D01*
X119284419Y-81255250D01*
X119291651Y-81235038D01*
X119300830Y-81215632D01*
X119311866Y-81197219D01*
X119324654Y-81179976D01*
X119339070Y-81164070D01*
X119354976Y-81149654D01*
X119372219Y-81136866D01*
X119390632Y-81125830D01*
X119410038Y-81116651D01*
X119430250Y-81109419D01*
X119451074Y-81104203D01*
X119472309Y-81101053D01*
X119493750Y-81100000D01*
X120006250Y-81100000D01*
X120027691Y-81101053D01*
G37*
G36*
X130527691Y-76276053D02*
G01*
X130548926Y-76279203D01*
X130569750Y-76284419D01*
X130589962Y-76291651D01*
X130609368Y-76300830D01*
X130627781Y-76311866D01*
X130645024Y-76324654D01*
X130660930Y-76339070D01*
X130675346Y-76354976D01*
X130688134Y-76372219D01*
X130699170Y-76390632D01*
X130708349Y-76410038D01*
X130715581Y-76430250D01*
X130720797Y-76451074D01*
X130723947Y-76472309D01*
X130725000Y-76493750D01*
X130725000Y-76931250D01*
X130723947Y-76952691D01*
X130720797Y-76973926D01*
X130715581Y-76994750D01*
X130708349Y-77014962D01*
X130699170Y-77034368D01*
X130688134Y-77052781D01*
X130675346Y-77070024D01*
X130660930Y-77085930D01*
X130645024Y-77100346D01*
X130627781Y-77113134D01*
X130609368Y-77124170D01*
X130589962Y-77133349D01*
X130569750Y-77140581D01*
X130548926Y-77145797D01*
X130527691Y-77148947D01*
X130506250Y-77150000D01*
X129993750Y-77150000D01*
X129972309Y-77148947D01*
X129951074Y-77145797D01*
X129930250Y-77140581D01*
X129910038Y-77133349D01*
X129890632Y-77124170D01*
X129872219Y-77113134D01*
X129854976Y-77100346D01*
X129839070Y-77085930D01*
X129824654Y-77070024D01*
X129811866Y-77052781D01*
X129800830Y-77034368D01*
X129791651Y-77014962D01*
X129784419Y-76994750D01*
X129779203Y-76973926D01*
X129776053Y-76952691D01*
X129775000Y-76931250D01*
X129775000Y-76493750D01*
X129776053Y-76472309D01*
X129779203Y-76451074D01*
X129784419Y-76430250D01*
X129791651Y-76410038D01*
X129800830Y-76390632D01*
X129811866Y-76372219D01*
X129824654Y-76354976D01*
X129839070Y-76339070D01*
X129854976Y-76324654D01*
X129872219Y-76311866D01*
X129890632Y-76300830D01*
X129910038Y-76291651D01*
X129930250Y-76284419D01*
X129951074Y-76279203D01*
X129972309Y-76276053D01*
X129993750Y-76275000D01*
X130506250Y-76275000D01*
X130527691Y-76276053D01*
G37*
G36*
X130527691Y-77851053D02*
G01*
X130548926Y-77854203D01*
X130569750Y-77859419D01*
X130589962Y-77866651D01*
X130609368Y-77875830D01*
X130627781Y-77886866D01*
X130645024Y-77899654D01*
X130660930Y-77914070D01*
X130675346Y-77929976D01*
X130688134Y-77947219D01*
X130699170Y-77965632D01*
X130708349Y-77985038D01*
X130715581Y-78005250D01*
X130720797Y-78026074D01*
X130723947Y-78047309D01*
X130725000Y-78068750D01*
X130725000Y-78506250D01*
X130723947Y-78527691D01*
X130720797Y-78548926D01*
X130715581Y-78569750D01*
X130708349Y-78589962D01*
X130699170Y-78609368D01*
X130688134Y-78627781D01*
X130675346Y-78645024D01*
X130660930Y-78660930D01*
X130645024Y-78675346D01*
X130627781Y-78688134D01*
X130609368Y-78699170D01*
X130589962Y-78708349D01*
X130569750Y-78715581D01*
X130548926Y-78720797D01*
X130527691Y-78723947D01*
X130506250Y-78725000D01*
X129993750Y-78725000D01*
X129972309Y-78723947D01*
X129951074Y-78720797D01*
X129930250Y-78715581D01*
X129910038Y-78708349D01*
X129890632Y-78699170D01*
X129872219Y-78688134D01*
X129854976Y-78675346D01*
X129839070Y-78660930D01*
X129824654Y-78645024D01*
X129811866Y-78627781D01*
X129800830Y-78609368D01*
X129791651Y-78589962D01*
X129784419Y-78569750D01*
X129779203Y-78548926D01*
X129776053Y-78527691D01*
X129775000Y-78506250D01*
X129775000Y-78068750D01*
X129776053Y-78047309D01*
X129779203Y-78026074D01*
X129784419Y-78005250D01*
X129791651Y-77985038D01*
X129800830Y-77965632D01*
X129811866Y-77947219D01*
X129824654Y-77929976D01*
X129839070Y-77914070D01*
X129854976Y-77899654D01*
X129872219Y-77886866D01*
X129890632Y-77875830D01*
X129910038Y-77866651D01*
X129930250Y-77859419D01*
X129951074Y-77854203D01*
X129972309Y-77851053D01*
X129993750Y-77850000D01*
X130506250Y-77850000D01*
X130527691Y-77851053D01*
G37*
G36*
X130527691Y-72976053D02*
G01*
X130548926Y-72979203D01*
X130569750Y-72984419D01*
X130589962Y-72991651D01*
X130609368Y-73000830D01*
X130627781Y-73011866D01*
X130645024Y-73024654D01*
X130660930Y-73039070D01*
X130675346Y-73054976D01*
X130688134Y-73072219D01*
X130699170Y-73090632D01*
X130708349Y-73110038D01*
X130715581Y-73130250D01*
X130720797Y-73151074D01*
X130723947Y-73172309D01*
X130725000Y-73193750D01*
X130725000Y-73631250D01*
X130723947Y-73652691D01*
X130720797Y-73673926D01*
X130715581Y-73694750D01*
X130708349Y-73714962D01*
X130699170Y-73734368D01*
X130688134Y-73752781D01*
X130675346Y-73770024D01*
X130660930Y-73785930D01*
X130645024Y-73800346D01*
X130627781Y-73813134D01*
X130609368Y-73824170D01*
X130589962Y-73833349D01*
X130569750Y-73840581D01*
X130548926Y-73845797D01*
X130527691Y-73848947D01*
X130506250Y-73850000D01*
X129993750Y-73850000D01*
X129972309Y-73848947D01*
X129951074Y-73845797D01*
X129930250Y-73840581D01*
X129910038Y-73833349D01*
X129890632Y-73824170D01*
X129872219Y-73813134D01*
X129854976Y-73800346D01*
X129839070Y-73785930D01*
X129824654Y-73770024D01*
X129811866Y-73752781D01*
X129800830Y-73734368D01*
X129791651Y-73714962D01*
X129784419Y-73694750D01*
X129779203Y-73673926D01*
X129776053Y-73652691D01*
X129775000Y-73631250D01*
X129775000Y-73193750D01*
X129776053Y-73172309D01*
X129779203Y-73151074D01*
X129784419Y-73130250D01*
X129791651Y-73110038D01*
X129800830Y-73090632D01*
X129811866Y-73072219D01*
X129824654Y-73054976D01*
X129839070Y-73039070D01*
X129854976Y-73024654D01*
X129872219Y-73011866D01*
X129890632Y-73000830D01*
X129910038Y-72991651D01*
X129930250Y-72984419D01*
X129951074Y-72979203D01*
X129972309Y-72976053D01*
X129993750Y-72975000D01*
X130506250Y-72975000D01*
X130527691Y-72976053D01*
G37*
G36*
X130527691Y-74551053D02*
G01*
X130548926Y-74554203D01*
X130569750Y-74559419D01*
X130589962Y-74566651D01*
X130609368Y-74575830D01*
X130627781Y-74586866D01*
X130645024Y-74599654D01*
X130660930Y-74614070D01*
X130675346Y-74629976D01*
X130688134Y-74647219D01*
X130699170Y-74665632D01*
X130708349Y-74685038D01*
X130715581Y-74705250D01*
X130720797Y-74726074D01*
X130723947Y-74747309D01*
X130725000Y-74768750D01*
X130725000Y-75206250D01*
X130723947Y-75227691D01*
X130720797Y-75248926D01*
X130715581Y-75269750D01*
X130708349Y-75289962D01*
X130699170Y-75309368D01*
X130688134Y-75327781D01*
X130675346Y-75345024D01*
X130660930Y-75360930D01*
X130645024Y-75375346D01*
X130627781Y-75388134D01*
X130609368Y-75399170D01*
X130589962Y-75408349D01*
X130569750Y-75415581D01*
X130548926Y-75420797D01*
X130527691Y-75423947D01*
X130506250Y-75425000D01*
X129993750Y-75425000D01*
X129972309Y-75423947D01*
X129951074Y-75420797D01*
X129930250Y-75415581D01*
X129910038Y-75408349D01*
X129890632Y-75399170D01*
X129872219Y-75388134D01*
X129854976Y-75375346D01*
X129839070Y-75360930D01*
X129824654Y-75345024D01*
X129811866Y-75327781D01*
X129800830Y-75309368D01*
X129791651Y-75289962D01*
X129784419Y-75269750D01*
X129779203Y-75248926D01*
X129776053Y-75227691D01*
X129775000Y-75206250D01*
X129775000Y-74768750D01*
X129776053Y-74747309D01*
X129779203Y-74726074D01*
X129784419Y-74705250D01*
X129791651Y-74685038D01*
X129800830Y-74665632D01*
X129811866Y-74647219D01*
X129824654Y-74629976D01*
X129839070Y-74614070D01*
X129854976Y-74599654D01*
X129872219Y-74586866D01*
X129890632Y-74575830D01*
X129910038Y-74566651D01*
X129930250Y-74559419D01*
X129951074Y-74554203D01*
X129972309Y-74551053D01*
X129993750Y-74550000D01*
X130506250Y-74550000D01*
X130527691Y-74551053D01*
G37*
G36*
X136277691Y-68301053D02*
G01*
X136298926Y-68304203D01*
X136319750Y-68309419D01*
X136339962Y-68316651D01*
X136359368Y-68325830D01*
X136377781Y-68336866D01*
X136395024Y-68349654D01*
X136410930Y-68364070D01*
X136425346Y-68379976D01*
X136438134Y-68397219D01*
X136449170Y-68415632D01*
X136458349Y-68435038D01*
X136465581Y-68455250D01*
X136470797Y-68476074D01*
X136473947Y-68497309D01*
X136475000Y-68518750D01*
X136475000Y-68956250D01*
X136473947Y-68977691D01*
X136470797Y-68998926D01*
X136465581Y-69019750D01*
X136458349Y-69039962D01*
X136449170Y-69059368D01*
X136438134Y-69077781D01*
X136425346Y-69095024D01*
X136410930Y-69110930D01*
X136395024Y-69125346D01*
X136377781Y-69138134D01*
X136359368Y-69149170D01*
X136339962Y-69158349D01*
X136319750Y-69165581D01*
X136298926Y-69170797D01*
X136277691Y-69173947D01*
X136256250Y-69175000D01*
X135743750Y-69175000D01*
X135722309Y-69173947D01*
X135701074Y-69170797D01*
X135680250Y-69165581D01*
X135660038Y-69158349D01*
X135640632Y-69149170D01*
X135622219Y-69138134D01*
X135604976Y-69125346D01*
X135589070Y-69110930D01*
X135574654Y-69095024D01*
X135561866Y-69077781D01*
X135550830Y-69059368D01*
X135541651Y-69039962D01*
X135534419Y-69019750D01*
X135529203Y-68998926D01*
X135526053Y-68977691D01*
X135525000Y-68956250D01*
X135525000Y-68518750D01*
X135526053Y-68497309D01*
X135529203Y-68476074D01*
X135534419Y-68455250D01*
X135541651Y-68435038D01*
X135550830Y-68415632D01*
X135561866Y-68397219D01*
X135574654Y-68379976D01*
X135589070Y-68364070D01*
X135604976Y-68349654D01*
X135622219Y-68336866D01*
X135640632Y-68325830D01*
X135660038Y-68316651D01*
X135680250Y-68309419D01*
X135701074Y-68304203D01*
X135722309Y-68301053D01*
X135743750Y-68300000D01*
X136256250Y-68300000D01*
X136277691Y-68301053D01*
G37*
G36*
X136277691Y-66726053D02*
G01*
X136298926Y-66729203D01*
X136319750Y-66734419D01*
X136339962Y-66741651D01*
X136359368Y-66750830D01*
X136377781Y-66761866D01*
X136395024Y-66774654D01*
X136410930Y-66789070D01*
X136425346Y-66804976D01*
X136438134Y-66822219D01*
X136449170Y-66840632D01*
X136458349Y-66860038D01*
X136465581Y-66880250D01*
X136470797Y-66901074D01*
X136473947Y-66922309D01*
X136475000Y-66943750D01*
X136475000Y-67381250D01*
X136473947Y-67402691D01*
X136470797Y-67423926D01*
X136465581Y-67444750D01*
X136458349Y-67464962D01*
X136449170Y-67484368D01*
X136438134Y-67502781D01*
X136425346Y-67520024D01*
X136410930Y-67535930D01*
X136395024Y-67550346D01*
X136377781Y-67563134D01*
X136359368Y-67574170D01*
X136339962Y-67583349D01*
X136319750Y-67590581D01*
X136298926Y-67595797D01*
X136277691Y-67598947D01*
X136256250Y-67600000D01*
X135743750Y-67600000D01*
X135722309Y-67598947D01*
X135701074Y-67595797D01*
X135680250Y-67590581D01*
X135660038Y-67583349D01*
X135640632Y-67574170D01*
X135622219Y-67563134D01*
X135604976Y-67550346D01*
X135589070Y-67535930D01*
X135574654Y-67520024D01*
X135561866Y-67502781D01*
X135550830Y-67484368D01*
X135541651Y-67464962D01*
X135534419Y-67444750D01*
X135529203Y-67423926D01*
X135526053Y-67402691D01*
X135525000Y-67381250D01*
X135525000Y-66943750D01*
X135526053Y-66922309D01*
X135529203Y-66901074D01*
X135534419Y-66880250D01*
X135541651Y-66860038D01*
X135550830Y-66840632D01*
X135561866Y-66822219D01*
X135574654Y-66804976D01*
X135589070Y-66789070D01*
X135604976Y-66774654D01*
X135622219Y-66761866D01*
X135640632Y-66750830D01*
X135660038Y-66741651D01*
X135680250Y-66734419D01*
X135701074Y-66729203D01*
X135722309Y-66726053D01*
X135743750Y-66725000D01*
X136256250Y-66725000D01*
X136277691Y-66726053D01*
G37*
G36*
X114027691Y-76276053D02*
G01*
X114048926Y-76279203D01*
X114069750Y-76284419D01*
X114089962Y-76291651D01*
X114109368Y-76300830D01*
X114127781Y-76311866D01*
X114145024Y-76324654D01*
X114160930Y-76339070D01*
X114175346Y-76354976D01*
X114188134Y-76372219D01*
X114199170Y-76390632D01*
X114208349Y-76410038D01*
X114215581Y-76430250D01*
X114220797Y-76451074D01*
X114223947Y-76472309D01*
X114225000Y-76493750D01*
X114225000Y-76931250D01*
X114223947Y-76952691D01*
X114220797Y-76973926D01*
X114215581Y-76994750D01*
X114208349Y-77014962D01*
X114199170Y-77034368D01*
X114188134Y-77052781D01*
X114175346Y-77070024D01*
X114160930Y-77085930D01*
X114145024Y-77100346D01*
X114127781Y-77113134D01*
X114109368Y-77124170D01*
X114089962Y-77133349D01*
X114069750Y-77140581D01*
X114048926Y-77145797D01*
X114027691Y-77148947D01*
X114006250Y-77150000D01*
X113493750Y-77150000D01*
X113472309Y-77148947D01*
X113451074Y-77145797D01*
X113430250Y-77140581D01*
X113410038Y-77133349D01*
X113390632Y-77124170D01*
X113372219Y-77113134D01*
X113354976Y-77100346D01*
X113339070Y-77085930D01*
X113324654Y-77070024D01*
X113311866Y-77052781D01*
X113300830Y-77034368D01*
X113291651Y-77014962D01*
X113284419Y-76994750D01*
X113279203Y-76973926D01*
X113276053Y-76952691D01*
X113275000Y-76931250D01*
X113275000Y-76493750D01*
X113276053Y-76472309D01*
X113279203Y-76451074D01*
X113284419Y-76430250D01*
X113291651Y-76410038D01*
X113300830Y-76390632D01*
X113311866Y-76372219D01*
X113324654Y-76354976D01*
X113339070Y-76339070D01*
X113354976Y-76324654D01*
X113372219Y-76311866D01*
X113390632Y-76300830D01*
X113410038Y-76291651D01*
X113430250Y-76284419D01*
X113451074Y-76279203D01*
X113472309Y-76276053D01*
X113493750Y-76275000D01*
X114006250Y-76275000D01*
X114027691Y-76276053D01*
G37*
G36*
X114027691Y-77851053D02*
G01*
X114048926Y-77854203D01*
X114069750Y-77859419D01*
X114089962Y-77866651D01*
X114109368Y-77875830D01*
X114127781Y-77886866D01*
X114145024Y-77899654D01*
X114160930Y-77914070D01*
X114175346Y-77929976D01*
X114188134Y-77947219D01*
X114199170Y-77965632D01*
X114208349Y-77985038D01*
X114215581Y-78005250D01*
X114220797Y-78026074D01*
X114223947Y-78047309D01*
X114225000Y-78068750D01*
X114225000Y-78506250D01*
X114223947Y-78527691D01*
X114220797Y-78548926D01*
X114215581Y-78569750D01*
X114208349Y-78589962D01*
X114199170Y-78609368D01*
X114188134Y-78627781D01*
X114175346Y-78645024D01*
X114160930Y-78660930D01*
X114145024Y-78675346D01*
X114127781Y-78688134D01*
X114109368Y-78699170D01*
X114089962Y-78708349D01*
X114069750Y-78715581D01*
X114048926Y-78720797D01*
X114027691Y-78723947D01*
X114006250Y-78725000D01*
X113493750Y-78725000D01*
X113472309Y-78723947D01*
X113451074Y-78720797D01*
X113430250Y-78715581D01*
X113410038Y-78708349D01*
X113390632Y-78699170D01*
X113372219Y-78688134D01*
X113354976Y-78675346D01*
X113339070Y-78660930D01*
X113324654Y-78645024D01*
X113311866Y-78627781D01*
X113300830Y-78609368D01*
X113291651Y-78589962D01*
X113284419Y-78569750D01*
X113279203Y-78548926D01*
X113276053Y-78527691D01*
X113275000Y-78506250D01*
X113275000Y-78068750D01*
X113276053Y-78047309D01*
X113279203Y-78026074D01*
X113284419Y-78005250D01*
X113291651Y-77985038D01*
X113300830Y-77965632D01*
X113311866Y-77947219D01*
X113324654Y-77929976D01*
X113339070Y-77914070D01*
X113354976Y-77899654D01*
X113372219Y-77886866D01*
X113390632Y-77875830D01*
X113410038Y-77866651D01*
X113430250Y-77859419D01*
X113451074Y-77854203D01*
X113472309Y-77851053D01*
X113493750Y-77850000D01*
X114006250Y-77850000D01*
X114027691Y-77851053D01*
G37*
G36*
X121727691Y-63551053D02*
G01*
X121748926Y-63554203D01*
X121769750Y-63559419D01*
X121789962Y-63566651D01*
X121809368Y-63575830D01*
X121827781Y-63586866D01*
X121845024Y-63599654D01*
X121860930Y-63614070D01*
X121875346Y-63629976D01*
X121888134Y-63647219D01*
X121899170Y-63665632D01*
X121908349Y-63685038D01*
X121915581Y-63705250D01*
X121920797Y-63726074D01*
X121923947Y-63747309D01*
X121925000Y-63768750D01*
X121925000Y-64206250D01*
X121923947Y-64227691D01*
X121920797Y-64248926D01*
X121915581Y-64269750D01*
X121908349Y-64289962D01*
X121899170Y-64309368D01*
X121888134Y-64327781D01*
X121875346Y-64345024D01*
X121860930Y-64360930D01*
X121845024Y-64375346D01*
X121827781Y-64388134D01*
X121809368Y-64399170D01*
X121789962Y-64408349D01*
X121769750Y-64415581D01*
X121748926Y-64420797D01*
X121727691Y-64423947D01*
X121706250Y-64425000D01*
X121193750Y-64425000D01*
X121172309Y-64423947D01*
X121151074Y-64420797D01*
X121130250Y-64415581D01*
X121110038Y-64408349D01*
X121090632Y-64399170D01*
X121072219Y-64388134D01*
X121054976Y-64375346D01*
X121039070Y-64360930D01*
X121024654Y-64345024D01*
X121011866Y-64327781D01*
X121000830Y-64309368D01*
X120991651Y-64289962D01*
X120984419Y-64269750D01*
X120979203Y-64248926D01*
X120976053Y-64227691D01*
X120975000Y-64206250D01*
X120975000Y-63768750D01*
X120976053Y-63747309D01*
X120979203Y-63726074D01*
X120984419Y-63705250D01*
X120991651Y-63685038D01*
X121000830Y-63665632D01*
X121011866Y-63647219D01*
X121024654Y-63629976D01*
X121039070Y-63614070D01*
X121054976Y-63599654D01*
X121072219Y-63586866D01*
X121090632Y-63575830D01*
X121110038Y-63566651D01*
X121130250Y-63559419D01*
X121151074Y-63554203D01*
X121172309Y-63551053D01*
X121193750Y-63550000D01*
X121706250Y-63550000D01*
X121727691Y-63551053D01*
G37*
G36*
X121727691Y-61976053D02*
G01*
X121748926Y-61979203D01*
X121769750Y-61984419D01*
X121789962Y-61991651D01*
X121809368Y-62000830D01*
X121827781Y-62011866D01*
X121845024Y-62024654D01*
X121860930Y-62039070D01*
X121875346Y-62054976D01*
X121888134Y-62072219D01*
X121899170Y-62090632D01*
X121908349Y-62110038D01*
X121915581Y-62130250D01*
X121920797Y-62151074D01*
X121923947Y-62172309D01*
X121925000Y-62193750D01*
X121925000Y-62631250D01*
X121923947Y-62652691D01*
X121920797Y-62673926D01*
X121915581Y-62694750D01*
X121908349Y-62714962D01*
X121899170Y-62734368D01*
X121888134Y-62752781D01*
X121875346Y-62770024D01*
X121860930Y-62785930D01*
X121845024Y-62800346D01*
X121827781Y-62813134D01*
X121809368Y-62824170D01*
X121789962Y-62833349D01*
X121769750Y-62840581D01*
X121748926Y-62845797D01*
X121727691Y-62848947D01*
X121706250Y-62850000D01*
X121193750Y-62850000D01*
X121172309Y-62848947D01*
X121151074Y-62845797D01*
X121130250Y-62840581D01*
X121110038Y-62833349D01*
X121090632Y-62824170D01*
X121072219Y-62813134D01*
X121054976Y-62800346D01*
X121039070Y-62785930D01*
X121024654Y-62770024D01*
X121011866Y-62752781D01*
X121000830Y-62734368D01*
X120991651Y-62714962D01*
X120984419Y-62694750D01*
X120979203Y-62673926D01*
X120976053Y-62652691D01*
X120975000Y-62631250D01*
X120975000Y-62193750D01*
X120976053Y-62172309D01*
X120979203Y-62151074D01*
X120984419Y-62130250D01*
X120991651Y-62110038D01*
X121000830Y-62090632D01*
X121011866Y-62072219D01*
X121024654Y-62054976D01*
X121039070Y-62039070D01*
X121054976Y-62024654D01*
X121072219Y-62011866D01*
X121090632Y-62000830D01*
X121110038Y-61991651D01*
X121130250Y-61984419D01*
X121151074Y-61979203D01*
X121172309Y-61976053D01*
X121193750Y-61975000D01*
X121706250Y-61975000D01*
X121727691Y-61976053D01*
G37*
G36*
X126277691Y-84401053D02*
G01*
X126298926Y-84404203D01*
X126319750Y-84409419D01*
X126339962Y-84416651D01*
X126359368Y-84425830D01*
X126377781Y-84436866D01*
X126395024Y-84449654D01*
X126410930Y-84464070D01*
X126425346Y-84479976D01*
X126438134Y-84497219D01*
X126449170Y-84515632D01*
X126458349Y-84535038D01*
X126465581Y-84555250D01*
X126470797Y-84576074D01*
X126473947Y-84597309D01*
X126475000Y-84618750D01*
X126475000Y-85056250D01*
X126473947Y-85077691D01*
X126470797Y-85098926D01*
X126465581Y-85119750D01*
X126458349Y-85139962D01*
X126449170Y-85159368D01*
X126438134Y-85177781D01*
X126425346Y-85195024D01*
X126410930Y-85210930D01*
X126395024Y-85225346D01*
X126377781Y-85238134D01*
X126359368Y-85249170D01*
X126339962Y-85258349D01*
X126319750Y-85265581D01*
X126298926Y-85270797D01*
X126277691Y-85273947D01*
X126256250Y-85275000D01*
X125743750Y-85275000D01*
X125722309Y-85273947D01*
X125701074Y-85270797D01*
X125680250Y-85265581D01*
X125660038Y-85258349D01*
X125640632Y-85249170D01*
X125622219Y-85238134D01*
X125604976Y-85225346D01*
X125589070Y-85210930D01*
X125574654Y-85195024D01*
X125561866Y-85177781D01*
X125550830Y-85159368D01*
X125541651Y-85139962D01*
X125534419Y-85119750D01*
X125529203Y-85098926D01*
X125526053Y-85077691D01*
X125525000Y-85056250D01*
X125525000Y-84618750D01*
X125526053Y-84597309D01*
X125529203Y-84576074D01*
X125534419Y-84555250D01*
X125541651Y-84535038D01*
X125550830Y-84515632D01*
X125561866Y-84497219D01*
X125574654Y-84479976D01*
X125589070Y-84464070D01*
X125604976Y-84449654D01*
X125622219Y-84436866D01*
X125640632Y-84425830D01*
X125660038Y-84416651D01*
X125680250Y-84409419D01*
X125701074Y-84404203D01*
X125722309Y-84401053D01*
X125743750Y-84400000D01*
X126256250Y-84400000D01*
X126277691Y-84401053D01*
G37*
G36*
X126277691Y-82826053D02*
G01*
X126298926Y-82829203D01*
X126319750Y-82834419D01*
X126339962Y-82841651D01*
X126359368Y-82850830D01*
X126377781Y-82861866D01*
X126395024Y-82874654D01*
X126410930Y-82889070D01*
X126425346Y-82904976D01*
X126438134Y-82922219D01*
X126449170Y-82940632D01*
X126458349Y-82960038D01*
X126465581Y-82980250D01*
X126470797Y-83001074D01*
X126473947Y-83022309D01*
X126475000Y-83043750D01*
X126475000Y-83481250D01*
X126473947Y-83502691D01*
X126470797Y-83523926D01*
X126465581Y-83544750D01*
X126458349Y-83564962D01*
X126449170Y-83584368D01*
X126438134Y-83602781D01*
X126425346Y-83620024D01*
X126410930Y-83635930D01*
X126395024Y-83650346D01*
X126377781Y-83663134D01*
X126359368Y-83674170D01*
X126339962Y-83683349D01*
X126319750Y-83690581D01*
X126298926Y-83695797D01*
X126277691Y-83698947D01*
X126256250Y-83700000D01*
X125743750Y-83700000D01*
X125722309Y-83698947D01*
X125701074Y-83695797D01*
X125680250Y-83690581D01*
X125660038Y-83683349D01*
X125640632Y-83674170D01*
X125622219Y-83663134D01*
X125604976Y-83650346D01*
X125589070Y-83635930D01*
X125574654Y-83620024D01*
X125561866Y-83602781D01*
X125550830Y-83584368D01*
X125541651Y-83564962D01*
X125534419Y-83544750D01*
X125529203Y-83523926D01*
X125526053Y-83502691D01*
X125525000Y-83481250D01*
X125525000Y-83043750D01*
X125526053Y-83022309D01*
X125529203Y-83001074D01*
X125534419Y-82980250D01*
X125541651Y-82960038D01*
X125550830Y-82940632D01*
X125561866Y-82922219D01*
X125574654Y-82904976D01*
X125589070Y-82889070D01*
X125604976Y-82874654D01*
X125622219Y-82861866D01*
X125640632Y-82850830D01*
X125660038Y-82841651D01*
X125680250Y-82834419D01*
X125701074Y-82829203D01*
X125722309Y-82826053D01*
X125743750Y-82825000D01*
X126256250Y-82825000D01*
X126277691Y-82826053D01*
G37*
G36*
X131240191Y-83026053D02*
G01*
X131261426Y-83029203D01*
X131282250Y-83034419D01*
X131302462Y-83041651D01*
X131321868Y-83050830D01*
X131340281Y-83061866D01*
X131357524Y-83074654D01*
X131373430Y-83089070D01*
X131387846Y-83104976D01*
X131400634Y-83122219D01*
X131411670Y-83140632D01*
X131420849Y-83160038D01*
X131428081Y-83180250D01*
X131433297Y-83201074D01*
X131436447Y-83222309D01*
X131437500Y-83243750D01*
X131437500Y-83756250D01*
X131436447Y-83777691D01*
X131433297Y-83798926D01*
X131428081Y-83819750D01*
X131420849Y-83839962D01*
X131411670Y-83859368D01*
X131400634Y-83877781D01*
X131387846Y-83895024D01*
X131373430Y-83910930D01*
X131357524Y-83925346D01*
X131340281Y-83938134D01*
X131321868Y-83949170D01*
X131302462Y-83958349D01*
X131282250Y-83965581D01*
X131261426Y-83970797D01*
X131240191Y-83973947D01*
X131218750Y-83975000D01*
X130781250Y-83975000D01*
X130759809Y-83973947D01*
X130738574Y-83970797D01*
X130717750Y-83965581D01*
X130697538Y-83958349D01*
X130678132Y-83949170D01*
X130659719Y-83938134D01*
X130642476Y-83925346D01*
X130626570Y-83910930D01*
X130612154Y-83895024D01*
X130599366Y-83877781D01*
X130588330Y-83859368D01*
X130579151Y-83839962D01*
X130571919Y-83819750D01*
X130566703Y-83798926D01*
X130563553Y-83777691D01*
X130562500Y-83756250D01*
X130562500Y-83243750D01*
X130563553Y-83222309D01*
X130566703Y-83201074D01*
X130571919Y-83180250D01*
X130579151Y-83160038D01*
X130588330Y-83140632D01*
X130599366Y-83122219D01*
X130612154Y-83104976D01*
X130626570Y-83089070D01*
X130642476Y-83074654D01*
X130659719Y-83061866D01*
X130678132Y-83050830D01*
X130697538Y-83041651D01*
X130717750Y-83034419D01*
X130738574Y-83029203D01*
X130759809Y-83026053D01*
X130781250Y-83025000D01*
X131218750Y-83025000D01*
X131240191Y-83026053D01*
G37*
G36*
X132815191Y-83026053D02*
G01*
X132836426Y-83029203D01*
X132857250Y-83034419D01*
X132877462Y-83041651D01*
X132896868Y-83050830D01*
X132915281Y-83061866D01*
X132932524Y-83074654D01*
X132948430Y-83089070D01*
X132962846Y-83104976D01*
X132975634Y-83122219D01*
X132986670Y-83140632D01*
X132995849Y-83160038D01*
X133003081Y-83180250D01*
X133008297Y-83201074D01*
X133011447Y-83222309D01*
X133012500Y-83243750D01*
X133012500Y-83756250D01*
X133011447Y-83777691D01*
X133008297Y-83798926D01*
X133003081Y-83819750D01*
X132995849Y-83839962D01*
X132986670Y-83859368D01*
X132975634Y-83877781D01*
X132962846Y-83895024D01*
X132948430Y-83910930D01*
X132932524Y-83925346D01*
X132915281Y-83938134D01*
X132896868Y-83949170D01*
X132877462Y-83958349D01*
X132857250Y-83965581D01*
X132836426Y-83970797D01*
X132815191Y-83973947D01*
X132793750Y-83975000D01*
X132356250Y-83975000D01*
X132334809Y-83973947D01*
X132313574Y-83970797D01*
X132292750Y-83965581D01*
X132272538Y-83958349D01*
X132253132Y-83949170D01*
X132234719Y-83938134D01*
X132217476Y-83925346D01*
X132201570Y-83910930D01*
X132187154Y-83895024D01*
X132174366Y-83877781D01*
X132163330Y-83859368D01*
X132154151Y-83839962D01*
X132146919Y-83819750D01*
X132141703Y-83798926D01*
X132138553Y-83777691D01*
X132137500Y-83756250D01*
X132137500Y-83243750D01*
X132138553Y-83222309D01*
X132141703Y-83201074D01*
X132146919Y-83180250D01*
X132154151Y-83160038D01*
X132163330Y-83140632D01*
X132174366Y-83122219D01*
X132187154Y-83104976D01*
X132201570Y-83089070D01*
X132217476Y-83074654D01*
X132234719Y-83061866D01*
X132253132Y-83050830D01*
X132272538Y-83041651D01*
X132292750Y-83034419D01*
X132313574Y-83029203D01*
X132334809Y-83026053D01*
X132356250Y-83025000D01*
X132793750Y-83025000D01*
X132815191Y-83026053D01*
G37*
G36*
X132777691Y-90026053D02*
G01*
X132798926Y-90029203D01*
X132819750Y-90034419D01*
X132839962Y-90041651D01*
X132859368Y-90050830D01*
X132877781Y-90061866D01*
X132895024Y-90074654D01*
X132910930Y-90089070D01*
X132925346Y-90104976D01*
X132938134Y-90122219D01*
X132949170Y-90140632D01*
X132958349Y-90160038D01*
X132965581Y-90180250D01*
X132970797Y-90201074D01*
X132973947Y-90222309D01*
X132975000Y-90243750D01*
X132975000Y-90756250D01*
X132973947Y-90777691D01*
X132970797Y-90798926D01*
X132965581Y-90819750D01*
X132958349Y-90839962D01*
X132949170Y-90859368D01*
X132938134Y-90877781D01*
X132925346Y-90895024D01*
X132910930Y-90910930D01*
X132895024Y-90925346D01*
X132877781Y-90938134D01*
X132859368Y-90949170D01*
X132839962Y-90958349D01*
X132819750Y-90965581D01*
X132798926Y-90970797D01*
X132777691Y-90973947D01*
X132756250Y-90975000D01*
X132318750Y-90975000D01*
X132297309Y-90973947D01*
X132276074Y-90970797D01*
X132255250Y-90965581D01*
X132235038Y-90958349D01*
X132215632Y-90949170D01*
X132197219Y-90938134D01*
X132179976Y-90925346D01*
X132164070Y-90910930D01*
X132149654Y-90895024D01*
X132136866Y-90877781D01*
X132125830Y-90859368D01*
X132116651Y-90839962D01*
X132109419Y-90819750D01*
X132104203Y-90798926D01*
X132101053Y-90777691D01*
X132100000Y-90756250D01*
X132100000Y-90243750D01*
X132101053Y-90222309D01*
X132104203Y-90201074D01*
X132109419Y-90180250D01*
X132116651Y-90160038D01*
X132125830Y-90140632D01*
X132136866Y-90122219D01*
X132149654Y-90104976D01*
X132164070Y-90089070D01*
X132179976Y-90074654D01*
X132197219Y-90061866D01*
X132215632Y-90050830D01*
X132235038Y-90041651D01*
X132255250Y-90034419D01*
X132276074Y-90029203D01*
X132297309Y-90026053D01*
X132318750Y-90025000D01*
X132756250Y-90025000D01*
X132777691Y-90026053D01*
G37*
G36*
X131202691Y-90026053D02*
G01*
X131223926Y-90029203D01*
X131244750Y-90034419D01*
X131264962Y-90041651D01*
X131284368Y-90050830D01*
X131302781Y-90061866D01*
X131320024Y-90074654D01*
X131335930Y-90089070D01*
X131350346Y-90104976D01*
X131363134Y-90122219D01*
X131374170Y-90140632D01*
X131383349Y-90160038D01*
X131390581Y-90180250D01*
X131395797Y-90201074D01*
X131398947Y-90222309D01*
X131400000Y-90243750D01*
X131400000Y-90756250D01*
X131398947Y-90777691D01*
X131395797Y-90798926D01*
X131390581Y-90819750D01*
X131383349Y-90839962D01*
X131374170Y-90859368D01*
X131363134Y-90877781D01*
X131350346Y-90895024D01*
X131335930Y-90910930D01*
X131320024Y-90925346D01*
X131302781Y-90938134D01*
X131284368Y-90949170D01*
X131264962Y-90958349D01*
X131244750Y-90965581D01*
X131223926Y-90970797D01*
X131202691Y-90973947D01*
X131181250Y-90975000D01*
X130743750Y-90975000D01*
X130722309Y-90973947D01*
X130701074Y-90970797D01*
X130680250Y-90965581D01*
X130660038Y-90958349D01*
X130640632Y-90949170D01*
X130622219Y-90938134D01*
X130604976Y-90925346D01*
X130589070Y-90910930D01*
X130574654Y-90895024D01*
X130561866Y-90877781D01*
X130550830Y-90859368D01*
X130541651Y-90839962D01*
X130534419Y-90819750D01*
X130529203Y-90798926D01*
X130526053Y-90777691D01*
X130525000Y-90756250D01*
X130525000Y-90243750D01*
X130526053Y-90222309D01*
X130529203Y-90201074D01*
X130534419Y-90180250D01*
X130541651Y-90160038D01*
X130550830Y-90140632D01*
X130561866Y-90122219D01*
X130574654Y-90104976D01*
X130589070Y-90089070D01*
X130604976Y-90074654D01*
X130622219Y-90061866D01*
X130640632Y-90050830D01*
X130660038Y-90041651D01*
X130680250Y-90034419D01*
X130701074Y-90029203D01*
X130722309Y-90026053D01*
X130743750Y-90025000D01*
X131181250Y-90025000D01*
X131202691Y-90026053D01*
G37*
D14*
X133250000Y-64250000D03*
X135150000Y-64250000D03*
X134200000Y-62250000D03*
M02*
